<svg width="4" height="15" viewBox="0 0 4 15" fill="none" xmlns="http://www.w3.org/2000/svg">
<path d="M1.75 14.5575C1.28587 14.5575 0.840752 14.3733 0.512563 14.0455C0.184375 13.7177 0 13.2731 0 12.8095C0 12.3459 0.184375 11.9013 0.512563 11.5735C0.840752 11.2457 1.28587 11.0615 1.75 11.0615C2.21413 11.0615 2.65925 11.2457 2.98744 11.5735C3.31563 11.9013 3.5 12.3459 3.5 12.8095C3.5 13.2731 3.31563 13.7177 2.98744 14.0455C2.65925 14.3733 2.21413 14.5575 1.75 14.5575ZM1.75 9.31356C1.28587 9.31356 0.840752 9.1294 0.512563 8.8016C0.184375 8.47379 0 8.02919 0 7.5656C0 7.10201 0.184375 6.65741 0.512563 6.3296C0.840752 6.00179 1.28587 5.81763 1.75 5.81763C2.21413 5.81763 2.65925 6.00179 2.98744 6.3296C3.31563 6.65741 3.5 7.10201 3.5 7.5656C3.5 8.02919 3.31563 8.47379 2.98744 8.8016C2.65925 9.1294 2.21413 9.31356 1.75 9.31356ZM1.75 4.06966C1.28587 4.06966 0.840752 3.8855 0.512563 3.5577C0.184375 3.22989 0 2.78529 0 2.3217C0 1.85811 0.184375 1.41351 0.512563 1.0857C0.840752 0.757891 1.28587 0.57373 1.75 0.57373C2.21413 0.57373 2.65925 0.757891 2.98744 1.0857C3.31563 1.41351 3.5 1.85811 3.5 2.3217C3.5 2.78529 3.31563 3.22989 2.98744 3.5577C2.65925 3.8855 2.21413 4.06966 1.75 4.06966Z" fill="#176875"/>
</svg>
