<?xml version="1.0" encoding="UTF-8" standalone="no"?>
<svg width="16px" height="16px" viewBox="0 0 16 16" version="1.1" xmlns="http://www.w3.org/2000/svg" xmlns:xlink="http://www.w3.org/1999/xlink">
    <!-- Generator: Sketch 3.8.3 (29802) - http://www.bohemiancoding.com/sketch -->
    <title>close</title>
    <desc>Created with Sketch.</desc>
    <defs></defs>
    <g id="Page-1" stroke="none" stroke-width="1" fill="none" fill-rule="evenodd">
        <path d="M15.5944146,13.6363339 C16.135031,14.1769503 16.135031,15.0538751 15.5944146,15.5944915 C15.3239525,15.8649536 14.969798,16.0000308 14.6153358,16.0000308 C14.2608736,16.0000308 13.9067191,15.8649536 13.636257,15.5944915 L7.99993846,9.958173 L2.36361993,15.5944915 C2.09315787,15.8649536 1.73900334,16.0000308 1.38454112,16.0000308 C1.0300789,16.0000308 0.675924377,15.8649536 0.405462318,15.5944915 C-0.135154106,15.0538751 -0.135154106,14.1769503 0.405462318,13.6363339 L6.04178085,8.00001538 L0.405462318,2.36369685 C-0.135154106,1.82308043 -0.135154106,0.946155666 0.405462318,0.405539241 C0.946386435,-0.135077183 1.82269581,-0.135077183 2.36361993,0.405539241 L7.99993846,6.04185777 L13.636257,0.405539241 C14.1771811,-0.135077183 15.0534905,-0.135077183 15.5944146,0.405539241 C16.135031,0.946155666 16.135031,1.82308043 15.5944146,2.36369685 L9.95809607,8.00001538 L15.5944146,13.6363339 Z" id="close" fill="#000000"></path>
    </g>
</svg>