<?xml version="1.0" encoding="UTF-8" standalone="no"?>
<svg width="17px" height="17px" viewBox="0 0 17 17" version="1.1" xmlns="http://www.w3.org/2000/svg" xmlns:xlink="http://www.w3.org/1999/xlink">
    <!-- Generator: Sketch 3.8.3 (29802) - http://www.bohemiancoding.com/sketch -->
    <title>Combined Shape</title>
    <desc>Created with Sketch.</desc>
    <defs></defs>
    <g id="Page-1" stroke="none" stroke-width="1" fill="none" fill-rule="evenodd">
        <path d="M16.3137085,8.3137085 C16.3137085,3.90257806 12.7248389,0.313708499 8.3137085,0.313708499 C3.90257806,0.313708499 0.313708499,3.90257806 0.313708499,8.3137085 C0.313708499,12.7248389 3.90257806,16.3137085 8.3137085,16.3137085 C12.7248389,16.3137085 16.3137085,12.7248389 16.3137085,8.3137085 Z M14.9224042,8.3137085 C14.9224042,11.9577085 11.9577085,14.9224042 8.3137085,14.9224042 C4.6697085,14.9224042 1.70501285,11.9577085 1.70501285,8.3137085 C1.70501285,4.6697085 4.6697085,1.70501285 8.3137085,1.70501285 C11.9577085,1.70501285 14.9224042,4.6697085 14.9224042,8.3137085 Z M8.9569085,12.3118824 C8.9569085,12.6671868 8.6689085,12.9551868 8.31360415,12.9551868 C8.13603893,12.9550128 7.97534328,12.8831868 7.85882154,12.766665 C7.74247372,12.6503172 7.67047372,12.4894476 7.67047372,12.3118824 L7.67047372,8.95692589 L4.31551719,8.95692589 C4.13795198,8.95692589 3.97708241,8.88492589 3.86073459,8.76857806 C3.74438676,8.65205633 3.67238676,8.49136067 3.67238676,8.31379546 C3.67238676,7.95849111 3.96038676,7.67049111 4.31551719,7.67049111 L7.67047372,7.67049111 L7.67047372,4.31553459 C7.67047372,3.96040415 7.95847372,3.67223024 8.31377806,3.67223024 C8.6689085,3.67240415 8.9569085,3.96023024 8.9569085,4.31553459 L8.9569085,7.67049111 L12.311865,7.67049111 C12.6671694,7.67049111 12.9549955,7.95849111 12.9551694,8.31362154 C12.9551694,8.66892589 12.6671694,8.95692589 12.311865,8.95692589 L8.9569085,8.95692589 L8.9569085,12.3118824 Z" id="Combined-Shape" fill="#000000" transform="translate(8.313708, 8.313708) rotate(-315.000000) translate(-8.313708, -8.313708) "></path>
    </g>
</svg>