<?xml version="1.0" encoding="UTF-8" standalone="no"?>
<svg width="16px" height="16px" viewBox="0 0 16 16" version="1.1" xmlns="http://www.w3.org/2000/svg" xmlns:xlink="http://www.w3.org/1999/xlink">
    <!-- Generator: Sketch 3.8.3 (29802) - http://www.bohemiancoding.com/sketch -->
    <title>info</title>
    <desc>Created with Sketch.</desc>
    <defs></defs>
    <g id="Page-1" stroke="none" stroke-width="1" fill="none" fill-rule="evenodd">
        <path d="M14.6086957,8 C14.6086957,11.644 11.644,14.6086957 8,14.6086957 C4.356,14.6086957 1.39130435,11.644 1.39130435,8 C1.39130435,4.356 4.356,1.39130435 8,1.39130435 C11.644,1.39130435 14.6086957,4.356 14.6086957,8 M16,8 C16,3.58886957 12.4111304,0 8,0 C3.58886957,0 0,3.58886957 0,8 C0,12.4111304 3.58886957,16 8,16 C12.4111304,16 16,12.4111304 16,8 M9.25913043,4.53043478 C9.42086957,4.36869565 9.51304348,4.14434783 9.51304348,3.91652174 C9.51304348,3.68695652 9.42086957,3.4626087 9.25913043,3.30086957 C9.0973913,3.13913043 8.87304348,3.04695652 8.64347826,3.04695652 C8.41565217,3.04695652 8.19130435,3.13913043 8.02956522,3.30086957 C7.86608696,3.4626087 7.77391304,3.68695652 7.77391304,3.91652174 C7.77391304,4.14434783 7.86608696,4.36869565 8.02956522,4.53043478 C8.19130435,4.69217391 8.41391304,4.78608696 8.64347826,4.78608696 C8.87304348,4.78608696 9.0973913,4.69217391 9.25913043,4.53043478 M7.53147826,12.8365217 C7.39513043,12.8365217 7.26017391,12.7906087 7.14991304,12.702087 C6.97356522,12.5603478 6.89043478,12.3321739 6.93426087,12.110087 L7.79095652,7.76069565 L7.31913043,8.02643478 C7.02591304,8.19147826 6.65478261,8.08765217 6.49008696,7.79478261 C6.32504348,7.50191304 6.42869565,7.13078261 6.72156522,6.96573913 L8.34486957,6.05130435 C8.552,5.9346087 8.808,5.94921739 9.00034783,6.08852174 C9.19286957,6.22765217 9.28678261,6.46626087 9.24086957,6.69930435 L8.35304348,11.205913 L9.08104348,10.8886957 C9.38956522,10.7547826 9.748,10.8956522 9.88226087,11.2036522 C10.0165217,11.5118261 9.87547826,11.8704348 9.56730435,12.0048696 L7.7746087,12.785913 C7.69652174,12.8198261 7.61373913,12.8365217 7.53147826,12.8365217" id="info" fill="#000000"></path>
    </g>
</svg>