<?xml version="1.0" encoding="UTF-8" standalone="no"?>
<svg width="16px" height="16px" viewBox="0 0 16 16" version="1.1" xmlns="http://www.w3.org/2000/svg" xmlns:xlink="http://www.w3.org/1999/xlink">
    <!-- Generator: Sketch 3.8.3 (29802) - http://www.bohemiancoding.com/sketch -->
    <title>Combined Shape</title>
    <desc>Created with Sketch.</desc>
    <defs></defs>
    <g id="Page-1" stroke="none" stroke-width="1" fill="none" fill-rule="evenodd">
        <path d="M16,8 C16,3.58886957 12.4111304,0 8,0 C3.58886957,0 0,3.58886957 0,8 C0,12.4111304 3.58886957,16 8,16 C12.4111304,16 16,12.4111304 16,8 Z M14.6086957,8 C14.6086957,11.644 11.644,14.6086957 8,14.6086957 C4.356,14.6086957 1.39130435,11.644 1.39130435,8 C1.39130435,4.356 4.356,1.39130435 8,1.39130435 C11.644,1.39130435 14.6086957,4.356 14.6086957,8 Z M8.6432,11.9981739 C8.6432,12.3534783 8.3552,12.6414783 7.99989565,12.6414783 C7.82233043,12.6413043 7.66163478,12.5694783 7.54511304,12.4529565 C7.42876522,12.3366087 7.35676522,12.1757391 7.35676522,11.9981739 L7.35676522,8.64321739 L4.0018087,8.64321739 C3.82424348,8.64321739 3.66337391,8.57121739 3.54702609,8.45486957 C3.43067826,8.33834783 3.35867826,8.17765217 3.35867826,8.00008696 C3.35867826,7.64478261 3.64667826,7.35678261 4.0018087,7.35678261 L7.35676522,7.35678261 L7.35676522,4.00182609 C7.35676522,3.64669565 7.64476522,3.35852174 8.00006957,3.35852174 C8.3552,3.35869565 8.6432,3.64652174 8.6432,4.00182609 L8.6432,7.35678261 L11.9981565,7.35678261 C12.3534609,7.35678261 12.641287,7.64478261 12.6414609,7.99991304 C12.6414609,8.35521739 12.3534609,8.64321739 11.9981565,8.64321739 L8.6432,8.64321739 L8.6432,11.9981739 Z" id="Combined-Shape" fill="#000000"></path>
    </g>
</svg>