<?xml version="1.0" encoding="UTF-8" standalone="no"?>
<svg width="13px" height="13px" viewBox="0 0 13 13" version="1.1" xmlns="http://www.w3.org/2000/svg" xmlns:xlink="http://www.w3.org/1999/xlink">
    <!-- Generator: Sketch 3.8.3 (29802) - http://www.bohemiancoding.com/sketch -->
    <title>Page 1</title>
    <desc>Created with Sketch.</desc>
    <defs></defs>
    <g id="Page-1" stroke="none" stroke-width="1" fill="none" fill-rule="evenodd">
        <path d="M13,6.62264151 C13,7.23216981 12.5057547,7.72641509 11.8962264,7.72641509 L7.48113208,7.72641509 L7.48113208,11.8962264 C7.48113208,12.5057547 6.98688679,13 6.37735849,13 C5.76783019,13 5.27358491,12.5057547 5.27358491,11.8962264 L5.27358491,7.72641509 L1.10377358,7.72641509 C0.494245283,7.72641509 0,7.23216981 0,6.62264151 C0,6.01311321 0.494245283,5.51886792 1.10377358,5.51886792 L5.27358491,5.51886792 L5.27358491,1.10377358 C5.27358491,0.494245283 5.76783019,0 6.37735849,0 C6.98688679,0 7.48113208,0.494245283 7.48113208,1.10377358 L7.48113208,5.51886792 L11.8962264,5.51886792 C12.5057547,5.51886792 13,6.01311321 13,6.62264151" fill="#000000"></path>
    </g>
</svg>