<?xml version="1.0" encoding="UTF-8" standalone="no"?>
<svg width="16px" height="14px" viewBox="0 0 16 14" version="1.1" xmlns="http://www.w3.org/2000/svg" xmlns:xlink="http://www.w3.org/1999/xlink">
    <!-- Generator: Sketch 3.8.3 (29802) - http://www.bohemiancoding.com/sketch -->
    <title>sahre</title>
    <desc>Created with Sketch.</desc>
    <defs></defs>
    <g id="Page-1" stroke="none" stroke-width="1" fill="none" fill-rule="evenodd">
        <path d="M14.2913031,5.10123615 L11.6558251,2.42036681 L11.6558251,3.267845 C11.6558251,3.6563667 11.352173,3.9713232 10.9645208,3.9713232 C8.80973839,3.9713232 7.15026027,4.54854054 6.01860819,5.68697523 C5.50312997,6.20558388 5.15460826,6.78454035 4.91686915,7.33132292 C6.55286901,6.35688822 8.61826014,6.18210562 9.88817308,6.18210562 C10.5433035,6.18210562 10.9779121,6.2285404 11.0417382,6.23567083 C11.3972164,6.275323 11.6558251,6.57636646 11.6558251,6.93497512 L11.6558251,7.78245331 L14.2913031,5.10123615 Z M15.7987813,5.59497524 L11.4756512,9.99288791 C11.2756512,10.1961922 10.9685208,10.2584531 10.7045208,10.1501053 C10.4410426,10.0419314 10.264173,9.7845401 10.264173,9.49914882 L10.264173,7.59793159 C8.87234708,7.55827942 5.52765171,7.69793158 4.32191268,9.84436618 C4.19547791,10.0695836 3.96156488,10.2028009 3.71269534,10.2028009 C3.65391274,10.2028009 3.59582578,10.1954966 3.53704318,10.1800183 C3.22869538,10.0996705 3.01356496,9.82106184 3.01234757,9.50175752 C3.01182583,9.38871405 3.0206954,6.70836645 5.02313001,4.69375792 C6.29582556,3.4134102 8.00243411,2.70488852 10.264173,2.5831494 L10.264173,0.7036713 C10.264173,0.41828002 10.4410426,0.160888737 10.7045208,0.0527148334 C10.968173,-0.0558068966 11.2732164,0.00645396772 11.4732164,0.209758298 L15.79739,4.60732315 C16.0666073,4.88123617 16.0679986,5.32106222 15.7987813,5.59497524 L15.7987813,5.59497524 Z M12.6996511,12.0861051 L12.6996511,12.9634964 C12.6996511,13.3520181 12.3709555,13.5652354 11.9833033,13.5652354 L0.631304295,13.5652354 C0.243652153,13.5652354 0,13.3520181 0,12.9634964 L0,4.36280143 C0,3.97410581 0.243652153,3.63271453 0.631304295,3.63271453 L2.66956499,3.63271453 C3.05721713,3.63271453 3.37165189,3.94123624 3.37165189,4.32975795 C3.37165189,4.71827966 3.05721713,5.02680137 2.66956499,5.02680137 L1.39182597,5.02680137 L1.39182597,12.1711486 L11.3078251,12.1711486 L11.3078251,12.0861051 C11.3078251,11.6974095 11.615999,11.382453 12.0038251,11.382453 C12.3914772,11.382453 12.6996511,11.6974095 12.6996511,12.0861051 L12.6996511,12.0861051 Z" id="sahre" fill="#000000"></path>
    </g>
</svg>