<?xml version="1.0" encoding="UTF-8" standalone="no"?>
<svg width="20px" height="17px" viewBox="0 0 20 17" version="1.1" xmlns="http://www.w3.org/2000/svg" xmlns:xlink="http://www.w3.org/1999/xlink">
    <!-- Generator: Sketch 3.8.3 (29802) - http://www.bohemiancoding.com/sketch -->
    <title>Twitter icon</title>
    <desc>Created with Sketch.</desc>
    <defs></defs>
    <g id="Page-1" stroke="none" stroke-width="1" fill="none" fill-rule="evenodd">
        <path d="M20,2 C19.7,2.2 18.7,2.6 17.7,2.6 C18.3,2.3 19.2,1.2 19.4,0.4 C18.8,0.8 17.5,1.3 16.8,1.3 L16.8,1.3 C16,0.5 15,0 13.8,0 C11.5,0 9.7,1.8 9.7,4.1 C9.7,4.4 9.7,4.7 9.8,5 L9.8,5 C6.7,4.9 3.3,3.4 1.3,0.7 C0,2.9 1.1,5.3 2.6,6.2 C2.1,6.2 1.2,6.1 0.8,5.7 C0.8,7.1 1.5,9 4,9.7 C3.5,10 2.7,9.9 2.3,9.8 C2.4,11 4.1,12.6 6,12.6 C5.3,13.4 2.8,14.8 0,14.3 C1.9,15.5 4.1,16.1 6.5,16.1 C13.2,16.1 18.3,10.7 18,4.1 L18,4.1 C18,4.1 18,4.1 18,4 C18,4 18,4 18,3.9 C18.6,3.7 19.4,2.9 20,2" id="Twitter-icon" fill="#000000"></path>
    </g>
</svg>