<?xml version="1.0" encoding="UTF-8" standalone="no"?>
<svg width="30px" height="31px" viewBox="0 0 30 31" version="1.1" xmlns="http://www.w3.org/2000/svg" xmlns:xlink="http://www.w3.org/1999/xlink">
    <!-- Generator: Sketch 3.8.3 (29802) - http://www.bohemiancoding.com/sketch -->
    <title>GDA-symbol</title>
    <desc>Created with Sketch.</desc>
    <defs></defs>
    <g id="Page-1" stroke="none" stroke-width="1" fill="none" fill-rule="evenodd">
        <g id="GDA-symbol">
            <path d="M18.2262479,7.87725308 L14.9407926,4.57881345 L11.5420382,1.16640823 C10.2408419,-0.139711744 8.11190874,-0.139711744 6.81093032,1.16640823 L0.975810073,7.02480799 C-0.325168345,8.33092796 -0.325168345,10.4682748 0.975810073,11.7743948 L4.37456445,15.1868 L7.66001972,11.8883604 L6.36383473,10.5870528 C5.71345447,9.93388342 5.71345447,8.86510062 6.36383473,8.21215001 L7.99359835,6.57594547 C8.64419651,5.92277611 9.70855415,5.92277611 10.3591523,6.57594547 L11.6555552,7.87725308 L14.9407926,11.1756927 L18.9361102,15.1868 L22.2215655,11.8883604 L18.2262479,7.87725308 L18.2262479,7.87725308 Z" id="Fill-41" fill="#4A4A4A"></path>
            <path d="M28.9059059,18.5991177 L25.5069336,15.1867125 L22.2216962,18.4851521 L23.5178812,19.7864597 C24.1682614,20.4396291 24.1682614,21.5084119 23.5178812,22.1613625 L21.8878997,23.7975671 C21.2375194,24.4507364 20.1729439,24.4507364 19.5225636,23.7975671 L18.2261608,22.4962595 L14.9409233,19.1978199 L10.9456058,15.1867125 L7.66015046,18.4851521 L11.655468,22.4962595 L14.9409233,25.7946991 L18.3396777,29.2071043 C19.640874,30.5132243 21.7698072,30.5132243 23.0707856,29.2071043 L28.9059059,23.3489233 C30.2068843,22.0425846 30.2068843,19.9052377 28.9059059,18.5991177" id="Fill-42" fill="#4A4A4A"></path>
            <path d="M10.3592177,23.7976546 C9.70861954,24.4508239 8.64426186,24.4506052 7.9936637,23.7976546 L6.36390012,22.16145 C5.71330196,21.5082807 5.71330196,20.4397166 6.36390012,19.7865472 L7.66008511,18.4852397 L10.9455404,15.1868 L14.940858,11.1756927 L11.6554027,7.87725308 L7.66008511,11.8883604 L4.3746298,15.1868 L0.975875436,18.5992052 C-0.325320863,19.9053252 -0.325320863,22.0426721 0.975875436,23.3487921 L6.81099568,29.2069731 C8.11197409,30.513093 10.2409073,30.5133118 11.5418857,29.2069731 L14.940858,25.7947866 L11.6554027,22.496347 L10.3592177,23.7976546 L10.3592177,23.7976546 Z" id="Fill-43" fill="#9B9B9B"></path>
            <path d="M28.9059059,7.02469861 L23.0707856,1.1665176 C21.7698072,-0.139602372 19.640874,-0.139602372 18.3396777,1.1665176 L14.9409233,4.57892282 L18.2261608,7.8771437 L19.5225636,6.57583609 C20.1729439,5.92288549 21.2375194,5.92288549 21.8878997,6.57583609 L23.5178812,8.21204064 C24.1682614,8.86521 24.1682614,9.9339928 23.5178812,10.5869434 L22.2216962,11.8884698 L18.9362409,15.1866906 L14.9409233,19.197798 L18.2261608,22.4962376 L22.2216962,18.4851303 L25.5069336,15.1866906 L28.9059059,11.7745042 C30.2068843,10.4681655 30.2068843,8.33081858 28.9059059,7.02469861" id="Fill-44" fill="#9B9B9B"></path>
        </g>
    </g>
</svg>