<?xml version="1.0" encoding="UTF-8" standalone="no"?>
<svg width="150px" height="65px" viewBox="0 0 150 65" version="1.1" xmlns="http://www.w3.org/2000/svg" xmlns:xlink="http://www.w3.org/1999/xlink">
    <!-- Generator: Sketch 3.8.3 (29802) - http://www.bohemiancoding.com/sketch -->
    <title>logo</title>
    <desc>Created with Sketch.</desc>
    <defs></defs>
    <g id="Page-1" stroke="none" stroke-width="1" fill="none" fill-rule="evenodd">
        <g id="logo">
            <path d="M6.58167984,25.5929644 C6.85440711,25.8188538 7.20420949,26.1200395 7.63049407,26.4971146 C8.05618577,26.8747826 8.54235178,27.2488933 9.08899209,27.6182609 C9.90835968,28.1649012 10.7200198,28.5911858 11.5239723,28.8959289 C12.327332,29.2018577 13.1710079,29.3542292 14.055,29.3542292 C14.8749605,29.3542292 15.5621146,29.2617391 16.1164625,29.0773518 C16.6714032,28.8923715 17.1089526,28.6475099 17.4302964,28.3427668 C17.7516403,28.0374308 17.981087,27.6840711 18.1180435,27.2826877 C18.2538142,26.8813043 18.3225889,26.4556126 18.3225889,26.0056126 C18.3225889,25.5075889 18.1334585,25.062332 17.7557905,24.669249 C17.3781225,24.2755731 16.9162648,23.9263636 16.3696245,23.6216206 C15.8229842,23.3162846 15.2526285,23.055415 14.6579644,22.838419 C14.0633004,22.6214229 13.5486759,22.4411858 13.1152767,22.2959289 C11.1866206,21.6224111 9.49867589,20.8955336 8.05203557,20.1164822 C6.60598814,19.3374308 5.40005929,18.4700395 4.43602767,17.5149012 C3.47140316,16.5597628 2.74867589,15.5073913 2.26606719,14.3595652 C1.78405138,13.2111462 1.54274704,11.9305138 1.54274704,10.5170751 C1.54274704,9.02418972 1.84452569,7.66648221 2.44689723,6.44632411 C3.04986166,5.22557312 3.90954545,4.18209486 5.0265415,3.31470356 C6.14353755,2.44731225 7.48938735,1.77735178 9.06468379,1.30304348 C10.6399802,0.829328063 12.399664,0.592766798 14.3443281,0.592766798 C15.8069763,0.592766798 17.2091502,0.757588933 18.5514427,1.08664032 C19.8931423,1.41687747 21.2158696,1.94217391 22.517253,2.66608696 C23.0638933,2.98743083 23.5820751,3.3212253 24.0723913,3.66687747 C24.5627075,4.01252964 24.9925494,4.34573123 25.3625099,4.6670751 C25.7318775,4.98841897 26.0253557,5.29375494 26.2423518,5.583083 C26.4593478,5.87241107 26.5678458,6.12142292 26.5678458,6.33071146 C26.5678458,6.53940711 26.5156719,6.73209486 26.4107312,6.9087747 C26.3063834,7.08604743 26.1492688,7.28703557 25.9405731,7.51173913 L22.2522332,11.4413834 C21.978913,11.7152964 21.7055929,11.8510672 21.4322727,11.8510672 C21.2069763,11.8510672 21.0024308,11.7876285 20.8180435,11.6583794 C20.6330632,11.5297233 20.4279249,11.3690514 20.2032213,11.1763636 L19.9862253,10.983083 C19.6642885,10.7097628 19.3067787,10.4287352 18.9131028,10.14 C18.5194269,9.85007905 18.0972925,9.58920949 17.6478854,9.35561265 C17.1972925,9.12320158 16.7229842,8.93051383 16.2249605,8.77754941 C15.7269368,8.62517787 15.2206126,8.54869565 14.706581,8.54869565 C14.1759486,8.54869565 13.677332,8.59256917 13.2113241,8.68150198 C12.7453162,8.76924901 12.3356324,8.90976285 11.9816798,9.10304348 C11.6283202,9.29573123 11.3466996,9.54889328 11.138004,9.86252964 C10.9293083,10.1755731 10.8249605,10.5579842 10.8249605,11.0073913 C10.8249605,11.4573913 10.9370158,11.8475099 11.1623123,12.1765613 C11.3870158,12.5067984 11.7243676,12.8115415 12.1749605,13.0931621 C12.6243676,13.3747826 13.1834585,13.6398024 13.8504545,13.8888142 C14.5168577,14.1378261 15.2929447,14.406996 16.1769368,14.6963241 C17.8802964,15.2589723 19.4514427,15.8494862 20.8903755,16.4678656 C22.3287154,17.0868379 23.5696245,17.8184585 24.6148814,18.6621344 C25.6595455,19.5058103 26.4747628,20.5149012 27.0617194,21.6876285 C27.6486759,22.8615415 27.9415613,24.2832806 27.9415613,25.9546245 C27.9415613,27.7232016 27.5799012,29.3263636 26.8571739,30.7647036 C26.1338538,32.2030435 25.1413636,33.4285375 23.8797036,34.4411858 C22.6174506,35.453834 21.1346443,36.2370356 19.4312846,36.7919763 C17.7279249,37.3463241 15.8953162,37.6232016 13.9346443,37.6232016 C12.0866206,37.6232016 10.2700198,37.2923715 8.48602767,36.6324901 C6.70203557,35.9714229 5.03839921,35.0850593 3.49571146,33.9728063 C2.85243083,33.5050198 2.30994071,33.0455336 1.86824111,32.5943478 C1.42594862,32.1431621 1.07673913,31.7809091 0.819426877,31.5064032 L0.747687747,31.4340711 C0.731086957,31.4014625 0.715079051,31.3818972 0.699071146,31.373004 C0.683063241,31.3652964 0.666462451,31.3534387 0.651047431,31.3368379 C0.63444664,31.3048221 0.618438735,31.2852569 0.603023715,31.2763636 C0.586422925,31.2686561 0.57041502,31.2567984 0.554407115,31.2401976 C0.18444664,30.8376285 5.92885376e-05,30.5150988 5.92885376e-05,30.2732016 C5.92885376e-05,29.9992885 0.18444664,29.6927668 0.554407115,29.3542292 L4.72535573,25.3765613 C5.06270751,25.1352569 5.33602767,25.0143083 5.54472332,25.0143083 C5.68998024,25.0143083 5.84235178,25.062332 6.00302372,25.1595652 C6.16310277,25.2562055 6.3563834,25.4002767 6.58167984,25.5929644" id="Fill-1" fill="#FFFFFF"></path>
            <path d="M43.286502,9.99498024 L43.286502,28.5345059 L45.3117984,28.5345059 C45.681166,28.5345059 46.0428261,28.5226482 46.3967787,28.4983399 C46.7501383,28.4740316 47.103498,28.446166 47.4574506,28.4135573 C48.6627866,28.3175099 49.7874901,28.0246245 50.832747,27.5337154 C51.8768182,27.0439921 52.7892688,26.4007115 53.568913,25.6050593 C54.3479644,24.8094071 54.9586364,23.8732411 55.4009289,22.7965613 C55.8432213,21.7198814 56.0643676,20.5465613 56.0643676,19.2766008 C56.0643676,17.9266008 55.8112055,16.6850988 55.3048814,15.5520949 C54.7985573,14.4190909 54.1114032,13.4390514 53.243419,12.6107905 C52.3754348,11.7831225 51.3586364,11.1404348 50.1936166,10.6821344 C49.028004,10.223834 47.786502,9.99498024 46.4691107,9.99498024 L43.286502,9.99498024 Z M65.3459881,19.3009091 C65.3459881,21.0042688 65.1289921,22.6240316 64.695,24.1590119 C64.2610079,25.6939921 63.6420356,27.1246245 62.8386759,28.4503162 C62.0347233,29.7760079 61.074249,30.9777866 59.9578458,32.0544664 C58.8402569,33.1311462 57.6029051,34.0471542 56.2446047,34.803083 C54.8863043,35.558419 53.4200988,36.1412253 51.8453953,36.5503162 C50.2695059,36.96 48.6384783,37.1651383 46.9511265,37.1651383 L35.0655534,37.1651383 C34.7762253,37.1651383 34.518913,37.1016996 34.2942095,36.9724506 C34.068913,36.8437945 33.9562648,36.5710672 33.9562648,36.1524901 L33.9562648,2.47304348 C33.9562648,2.1356917 34.0487549,1.86237154 34.2337352,1.65367589 C34.4181225,1.44438735 34.6955929,1.33944664 35.0655534,1.33944664 L46.9511265,1.33944664 C48.6384783,1.33944664 50.2659486,1.54932806 51.8329447,1.96671937 C53.3999407,2.38470356 54.8625889,2.97936759 56.2208893,3.75071146 C57.5785968,4.52264822 58.8206917,5.44636364 59.9453953,6.52363636 C61.0706917,7.60031621 62.031166,8.80565217 62.8268182,10.1396443 C63.6218775,11.4736364 64.2408498,12.9119763 64.6831423,14.454664 C65.1248419,15.9979447 65.3459881,17.6135573 65.3459881,19.3009091 L65.3459881,19.3009091 Z" id="Fill-4" fill="#FFFFFF"></path>
            <path d="M93.6793874,11.4656324 C92.8594269,10.8869763 91.9831423,10.4375692 91.0511265,10.1156324 C90.1191107,9.79428854 89.1224704,9.63302372 88.0617984,9.63302372 C86.7278063,9.63302372 85.5064625,9.88677866 84.3971739,10.3925099 C83.2884783,10.898834 82.3363043,11.5859881 81.5406522,12.4539723 C80.745,13.3219565 80.1218775,14.3387549 79.6724704,15.5037747 C79.2218775,16.6687945 78.9971739,17.9108893 78.9971739,19.2288735 C78.9971739,20.5462648 79.2218775,21.7836166 79.6724704,22.9409289 C80.1218775,24.098834 80.745,25.107332 81.5406522,25.9670158 C82.3363043,26.8266996 83.2884783,27.5061462 84.3971739,28.00417 C85.5064625,28.5021937 86.7278063,28.7512055 88.0617984,28.7512055 C88.6244466,28.7512055 89.1829447,28.7114822 89.7378854,28.6308498 C90.2922332,28.5502174 90.882747,28.4464625 91.5094269,28.3178063 L91.5094269,22.0012055 C91.5094269,21.6958696 91.5977668,21.4427075 91.7750395,21.2417194 C91.9511265,21.0407312 92.2167391,20.9399407 92.5700988,20.9399407 L99.1274111,20.9399407 C99.3687154,20.9399407 99.6254348,21.0371739 99.8987549,21.2298617 C100.172075,21.4225494 100.309032,21.6798617 100.309032,22.0012055 L100.309032,33.6697826 C100.309032,34.1037747 100.076028,34.4571344 99.6100198,34.7304545 C98.8546838,35.2444862 98.0187154,35.6873715 97.1027075,36.0567391 C96.1866996,36.4266996 95.2303755,36.7314427 94.2337352,36.9721542 C93.2370949,37.2140514 92.2285968,37.3942885 91.2082411,37.5152372 C90.1872925,37.6355929 89.1953953,37.6954743 88.2307708,37.6954743 C86.5268182,37.6954743 84.8916403,37.4790711 83.3246443,37.0450791 C81.7576482,36.611087 80.2902569,35.9921146 78.9248419,35.1887549 C77.558834,34.3848024 76.3167391,33.4249209 75.200336,32.307332 C74.082747,31.1909289 73.1228656,29.9535771 72.318913,28.5952767 C71.5149605,27.2369763 70.896581,25.7743281 70.4625889,24.2067391 C70.0285968,22.640336 69.8116008,21.0045652 69.8116008,19.3012055 C69.8116008,17.5978458 70.0285968,15.9620751 70.4625889,14.3944862 C70.896581,12.828083 71.5149605,11.3571344 72.318913,9.98282609 C73.1228656,8.60911067 74.082747,7.3593083 75.200336,6.23401186 C76.3167391,5.10871542 77.558834,4.14824111 78.9248419,3.35258893 C80.2902569,2.55752964 81.7576482,1.9391502 83.3246443,1.49685771 C84.8916403,1.05456522 86.5268182,0.833418972 88.2307708,0.833418972 C90.1594269,0.833418972 91.979585,1.10258893 93.6912451,1.64152174 C95.4029051,2.17986166 97.0143676,2.95535573 98.5250395,3.96800395 C98.7983597,4.12867589 99.0070553,4.34152174 99.1517194,4.60713439 C99.2963834,4.87215415 99.2643676,5.17333992 99.0550791,5.5106917 L95.1497431,11.1525889 C94.9404545,11.4093083 94.7317589,11.5824308 94.5230632,11.6707708 C94.3137747,11.7591107 94.032747,11.6909289 93.6793874,11.4656324" id="Fill-6" fill="#FFFFFF"></path>
            <path d="M106.323439,5.02843874 C106.323439,4.41835968 106.676798,3.91974308 107.384111,3.5337747 L110.662767,1.91875494 C111.080158,1.64543478 111.490435,1.48416996 111.893004,1.43614625 C112.293794,1.38812253 112.808419,1.36381423 113.435099,1.36381423 L118.884308,1.36381423 C119.205652,1.36381423 119.478379,1.46045455 119.703676,1.65373518 C119.928379,1.84642292 120.041621,2.10314229 120.041621,2.42448617 L120.041621,36.1045257 C120.041621,36.8118379 119.66336,37.1651976 118.908617,37.1651976 L112.061383,37.1651976 C111.659407,37.1651976 111.381937,37.0566996 111.228972,36.8397036 C111.076601,36.6227075 111.000711,36.3938538 111.000711,36.1525494 L111.000711,9.58535573 L107.697154,11.2246838 C107.617115,11.2566996 107.537075,11.2685573 107.456443,11.2608498 C107.37581,11.2525494 107.320079,11.2810079 107.28747,11.3450395 C106.982134,11.3450395 106.745573,11.2329842 106.576601,11.0076877 C106.408221,10.7823913 106.323439,10.5173715 106.323439,10.2120356 L106.323439,5.02843874 Z" id="Fill-8" fill="#18AEC4"></path>
            <path d="M132.945356,25.4725494 C132.945356,26.11583 133.041403,26.7104941 133.234091,27.2571344 C133.427372,27.8037747 133.700099,28.2774901 134.054051,28.6788735 C134.407411,29.0808498 134.833696,29.3944862 135.331719,29.6191897 C135.829743,29.8444862 136.392391,29.9565415 137.019664,29.9565415 C137.646344,29.9565415 138.213142,29.8444862 138.718874,29.6191897 C139.225791,29.3944862 139.651482,29.0808498 139.997134,28.6788735 C140.342787,28.2774901 140.611957,27.8037747 140.804644,27.2571344 C140.997332,26.7104941 141.093972,26.11583 141.093972,25.4725494 C141.093972,24.8458696 140.997332,24.2595059 140.804644,23.7128656 C140.611957,23.1662253 140.342787,22.6883597 139.997134,22.278083 C139.651482,21.8683992 139.225791,21.5429051 138.718874,21.3021937 C138.213142,21.0608893 137.646344,20.9399407 137.019664,20.9399407 C136.392391,20.9399407 135.829743,21.0608893 135.331719,21.3021937 C134.833696,21.5429051 134.407411,21.8683992 134.054051,22.278083 C133.700099,22.6883597 133.427372,23.1662253 133.234091,23.7128656 C133.041403,24.2595059 132.945356,24.8458696 132.945356,25.4725494 M124.604051,26.8468577 C124.571443,26.5735375 124.547134,26.2966601 124.531719,26.0150395 C124.515119,25.7340119 124.507411,25.4571344 124.507411,25.1838142 C124.507411,23.0618775 125.021443,21.1012055 126.050099,19.3012055 C126.065514,19.2846047 126.093972,19.2448814 126.134881,19.1802569 C126.174605,19.1162253 126.287253,18.9235375 126.472233,18.6016008 C126.656621,18.2802569 126.942391,17.778083 127.327767,17.0950791 C127.713735,16.4120751 128.256225,15.4480435 128.955237,14.2017984 C129.654249,12.9567391 130.537648,11.3778854 131.607213,9.46464427 C132.676186,7.55199605 133.99002,5.20535573 135.549308,2.42472332 C135.725395,2.08737154 135.934684,1.82590909 136.175395,1.64152174 C136.4167,1.4565415 136.738043,1.36405138 137.14002,1.36405138 L143.98666,1.36405138 C144.613933,1.36405138 144.926976,1.54903162 144.926976,1.91839921 C144.926976,1.98302372 144.910968,2.09092885 144.878953,2.24389328 C144.846344,2.39685771 144.814921,2.48875494 144.782905,2.52136364 C144.220257,3.51800395 143.725791,4.38954545 143.300099,5.13717391 C142.873814,5.88420949 142.488439,6.55950593 142.142787,7.16187747 C141.797134,7.7648419 141.483498,8.3162253 141.20247,8.81365613 C140.92085,9.31167984 140.64753,9.79428854 140.38251,10.2602964 C140.11749,10.7263043 139.84832,11.2047628 139.575593,11.6944862 C139.30168,12.1853953 139.004644,12.7189921 138.6833,13.2976482 C140.225988,13.4749209 141.672628,13.9047628 143.022628,14.5877668 C144.372628,15.2707708 145.545949,16.1506126 146.542589,17.2278854 C147.538636,18.3045652 148.322431,19.5383597 148.892787,20.928083 C149.463142,22.3189921 149.748913,23.808913 149.748913,25.4002174 C149.748913,27.10417 149.419269,28.6990316 148.760573,30.1859881 C148.100692,31.6729447 147.201285,32.9672134 146.05998,34.0676087 C144.918676,35.1685968 143.580534,36.0359881 142.046739,36.6715613 C140.511166,37.3059486 138.867688,37.6231423 137.115711,37.6231423 C135.492391,37.6231423 133.961561,37.3622727 132.523221,36.8399407 C131.084289,36.3176087 129.80247,35.5824308 128.67836,34.6338142 C127.55247,33.6863834 126.632905,32.5486364 125.917292,31.2223518 C125.20168,29.8966601 124.76413,28.4381621 124.604051,26.8468577" id="Fill-10" fill="#18AEC4"></path>
            <path d="M2.97503953,58.8419763 C2.97503953,59.2060079 3.03136364,59.5457312 3.14401186,59.8629249 C3.25725296,60.1801186 3.4179249,60.4534387 3.62780632,60.6852569 C3.83650198,60.9164822 4.08907115,61.0996838 4.38373518,61.2342688 C4.67839921,61.3700395 5.00507905,61.4370356 5.36318182,61.4370356 C5.71535573,61.4370356 6.04737154,61.3735968 6.35863636,61.2473123 C6.66990119,61.1204348 6.94144269,60.9455336 7.17266798,60.7220158 C7.40389328,60.4990909 7.59005929,60.2358498 7.73057312,59.9328854 C7.87108696,59.6299209 7.94994071,59.3050198 7.96594862,58.9581818 L7.96594862,58.8419763 C7.96594862,58.4898024 7.90013834,58.1536364 7.7679249,57.8340711 C7.63571146,57.5150988 7.45250988,57.2340711 7.21832016,56.9909881 C6.98413043,56.748498 6.70843874,56.556996 6.39183794,56.4170751 C6.07523715,56.2759684 5.73195652,56.2060079 5.36318182,56.2060079 C5.00507905,56.2060079 4.67839921,56.2759684 4.38373518,56.4170751 C4.08907115,56.556996 3.83650198,56.748498 3.62780632,56.9909881 C3.4179249,57.2340711 3.25725296,57.5150988 3.14401186,57.8340711 C3.03136364,58.1536364 2.97503953,58.4898024 2.97503953,58.8419763 L2.97503953,58.8419763 Z M7.72701581,62.8000791 C7.5776087,62.9494862 7.41397233,63.1089723 7.23492095,63.2803162 C7.05586957,63.4504743 6.85903162,63.6105534 6.64381423,63.7593676 C6.42918972,63.9081818 6.19796443,64.0309091 5.95013834,64.1269565 C5.70171937,64.2235968 5.43432806,64.2716206 5.14796443,64.2716206 C4.39855731,64.2716206 3.70843874,64.1311067 3.07820158,63.8500791 C2.44737154,63.5690514 1.90488142,63.1848617 1.45013834,62.6975099 C0.995988142,62.2095652 0.640849802,61.6350593 0.384130435,60.9739921 C0.128003953,60.3129249 -5.92885376e-05,59.6020553 -5.92885376e-05,58.8419763 C-5.92885376e-05,58.0765613 0.128003953,57.3645059 0.384130435,56.7064032 C0.640849802,56.0477075 0.995988142,55.4749802 1.45013834,54.9870356 C1.90488142,54.4990909 2.44737154,54.1166798 3.07820158,53.8386166 C3.70843874,53.5599605 4.39855731,53.4212253 5.14796443,53.4212253 C5.45092885,53.4212253 5.72780632,53.4650988 5.97859684,53.5534387 C6.22938735,53.6417787 6.45824111,53.7550198 6.66456522,53.8919763 C6.87088933,54.0295257 7.06120553,54.1854545 7.23492095,54.35917 C7.40804348,54.5328854 7.57227273,54.7018577 7.72701581,54.8672727 L7.72701581,51.0911858 C7.72701581,50.9145059 7.77978261,50.7656917 7.88768775,50.6441502 C7.995,50.5237945 8.15626482,50.4633202 8.37088933,50.4633202 L10.2301779,50.4633202 C10.301917,50.4633202 10.3778063,50.4781423 10.4578458,50.5083794 C10.5372925,50.5386166 10.6108103,50.5813043 10.6766206,50.6364427 C10.7430237,50.691581 10.7969763,50.7573913 10.8378854,50.8350593 C10.8787945,50.9121344 10.9001383,50.9975099 10.9001383,51.0911858 L10.9001383,63.4451383 C10.9001383,63.8690514 10.6766206,64.0813043 10.2301779,64.0813043 L8.61100791,64.0813043 C8.50013834,64.0813043 8.41535573,64.067668 8.35488142,64.0403953 C8.29381423,64.0125296 8.24282609,63.9728063 8.201917,63.9200395 C8.15982213,63.8678656 8.12306324,63.8014625 8.08986166,63.7220158 C8.05725296,63.6419763 8.01575099,63.5494862 7.96594862,63.4451383 L7.72701581,62.8000791 Z" id="Fill-13" fill="#FFFFFF"></path>
            <path d="M16.2292292,58.8419763 C16.2292292,59.2060079 16.2855534,59.5457312 16.3982016,59.8629249 C16.5114427,60.1801186 16.6727075,60.4534387 16.881996,60.6852569 C17.0918775,60.9164822 17.3438538,61.0996838 17.6385178,61.2342688 C17.9325889,61.3700395 18.2592688,61.4370356 18.6173715,61.4370356 C18.9867391,61.4370356 19.3294269,61.3700395 19.6460277,61.2342688 C19.9632213,61.0996838 20.2383202,60.9164822 20.4725099,60.6852569 C20.7066996,60.4534387 20.8899012,60.1801186 21.0221146,59.8629249 C21.1543281,59.5457312 21.2201383,59.2060079 21.2201383,58.8419763 C21.2201383,58.4898024 21.1543281,58.1536364 21.0221146,57.8340711 C20.8899012,57.5150988 20.7066996,57.2340711 20.4725099,56.9909881 C20.2383202,56.748498 19.9632213,56.556996 19.6460277,56.4170751 C19.3294269,56.2759684 18.9867391,56.2060079 18.6173715,56.2060079 C18.2592688,56.2060079 17.9325889,56.2759684 17.6385178,56.4170751 C17.3438538,56.556996 17.0918775,56.748498 16.881996,56.9909881 C16.6727075,57.2340711 16.5114427,57.5150988 16.3982016,57.8340711 C16.2855534,58.1536364 16.2292292,58.4898024 16.2292292,58.8419763 L16.2292292,58.8419763 Z M24.3689526,63.4700395 C24.3689526,63.5637154 24.3523518,63.6526482 24.3191502,63.7386166 C24.2865415,63.8239921 24.2308103,63.8909881 24.1543281,63.9413834 C24.0932609,64.0018577 24.0221146,64.0403953 23.9391107,64.0564032 C23.8566996,64.073004 23.7849605,64.0813043 23.7244862,64.0813043 L22.0964229,64.0813043 C21.9808103,64.0813043 21.8865415,64.0664822 21.8153953,64.0362451 C21.7436561,64.0060079 21.6861462,63.9627273 21.6422727,63.9081818 C21.5978063,63.8530435 21.5604545,63.7854545 21.5302174,63.705415 C21.4999802,63.6259684 21.4685573,63.5388142 21.4353557,63.4451383 L21.1952372,62.8249802 C21.0470158,62.9743874 20.8845652,63.1326877 20.7084783,63.3004743 C20.5317984,63.4688538 20.337332,63.6241897 20.1256719,63.7670751 C19.9140119,63.9111462 19.6833794,64.0309091 19.4355534,64.1269565 C19.1877273,64.2235968 18.9233004,64.2716206 18.6422727,64.2716206 C18.1406917,64.2716206 17.6604545,64.2081818 17.2003755,64.0813043 C16.7402964,63.9544269 16.3110474,63.7741897 15.9114427,63.54 C15.5118379,63.3058103 15.149585,63.0247826 14.8240909,62.6975099 C14.4991897,62.3696443 14.2199407,62.0044269 13.9851581,61.6024506 C13.7515613,61.1998814 13.5707312,60.7658893 13.4444466,60.3010672 C13.3175692,59.8356522 13.2541304,59.3488933 13.2541304,58.8419763 C13.2541304,58.0765613 13.3952372,57.3645059 13.6762648,56.7064032 C13.9572925,56.0477075 14.3397036,55.4749802 14.8240909,54.9870356 C15.309664,54.4990909 15.8794269,54.1166798 16.5351581,53.8386166 C17.1908893,53.5599605 17.8928656,53.4212253 18.6422727,53.4212253 C18.9837747,53.4212253 19.298004,53.4722134 19.5843676,53.5741897 C19.8707312,53.676166 20.1310079,53.8095652 20.3651976,53.9749802 C20.5993874,54.1403953 20.8116403,54.327747 21.0013636,54.5370356 C21.1916798,54.7463241 21.3612451,54.9579842 21.5094664,55.1732016 L21.831996,54.173004 C21.8865415,54.0360474 21.9327866,53.9239921 21.9683597,53.8386166 C22.0039328,53.7532411 22.0424704,53.6898024 22.0839723,53.6483004 C22.1254743,53.6073913 22.1764625,53.5795257 22.2369368,53.5658893 C22.298004,53.552253 22.3827866,53.5451383 22.4930632,53.5451383 L23.7244862,53.5451383 C23.7849605,53.5451383 23.8566996,53.5534387 23.9391107,53.5700395 C24.0221146,53.5860474 24.0932609,53.6251779 24.1543281,53.6856522 C24.2308103,53.7461265 24.2865415,53.8154941 24.3191502,53.8919763 C24.3523518,53.9696443 24.3689526,54.0573913 24.3689526,54.156996 L24.3689526,63.4700395 Z" id="Fill-16" fill="#FFFFFF"></path>
            <path d="M28.7554743,51.950336 C28.7554743,51.779585 28.8117984,51.6509289 28.9244466,51.5661462 C29.0376877,51.4807708 29.1989526,51.3989526 29.4082411,51.3224704 L31.2841304,50.6691107 C31.311996,50.6637747 31.3374901,50.6614032 31.3623913,50.6614032 L31.4323518,50.6614032 C31.6368972,50.6614032 31.772668,50.7206917 31.8414427,50.8392688 C31.9108103,50.957253 31.9451976,51.1125889 31.9451976,51.3052767 L31.9374901,53.9086364 L33.3171344,53.9086364 C33.4932213,53.9086364 33.6366996,53.9608103 33.7463834,54.065751 C33.8566601,54.1706917 33.9123913,54.3278063 33.9123913,54.5370949 L33.9123913,56.1313636 C33.9123913,56.3631818 33.8566601,56.5321542 33.7463834,56.6400593 C33.6366996,56.7473715 33.4932213,56.8013241 33.3171344,56.8013241 L31.9374901,56.8013241 L31.9451976,63.4451976 C31.9451976,63.6544862 31.8847233,63.8127866 31.7631818,63.9200988 C31.6422332,64.0274111 31.4744466,64.0813636 31.2592292,64.0813636 L29.3916403,64.0813636 C28.9677273,64.0813636 28.7554743,63.8691107 28.7554743,63.4451976 L28.7471739,56.8013241 L28.1436166,56.8013241 C27.7197036,56.8013241 27.5074506,56.5783992 27.5074506,56.1313636 L27.5074506,54.5370949 C27.5074506,54.1179249 27.7197036,53.9086364 28.1436166,53.9086364 L28.7471739,53.9086364 L28.7554743,51.950336 Z" id="Fill-18" fill="#FFFFFF"></path>
            <path d="M39.2413043,58.8419763 C39.2413043,59.2060079 39.2976285,59.5457312 39.4102767,59.8629249 C39.5235178,60.1801186 39.6847826,60.4534387 39.8940711,60.6852569 C40.1039526,60.9164822 40.3559289,61.0996838 40.6505929,61.2342688 C40.944664,61.3700395 41.2713439,61.4370356 41.6294466,61.4370356 C41.9988142,61.4370356 42.341502,61.3700395 42.6581028,61.2342688 C42.9752964,61.0996838 43.2503953,60.9164822 43.484585,60.6852569 C43.7187747,60.4534387 43.9019763,60.1801186 44.0341897,59.8629249 C44.1664032,59.5457312 44.2322134,59.2060079 44.2322134,58.8419763 C44.2322134,58.4898024 44.1664032,58.1536364 44.0341897,57.8340711 C43.9019763,57.5150988 43.7187747,57.2340711 43.484585,56.9909881 C43.2503953,56.748498 42.9752964,56.556996 42.6581028,56.4170751 C42.341502,56.2759684 41.9988142,56.2060079 41.6294466,56.2060079 C41.2713439,56.2060079 40.944664,56.2759684 40.6505929,56.4170751 C40.3559289,56.556996 40.1039526,56.748498 39.8940711,56.9909881 C39.6847826,57.2340711 39.5235178,57.5150988 39.4102767,57.8340711 C39.2976285,58.1536364 39.2413043,58.4898024 39.2413043,58.8419763 L39.2413043,58.8419763 Z M47.3810277,63.4700395 C47.3810277,63.5637154 47.3644269,63.6526482 47.3312253,63.7386166 C47.2986166,63.8239921 47.2428854,63.8909881 47.1664032,63.9413834 C47.105336,64.0018577 47.0341897,64.0403953 46.9511858,64.0564032 C46.8687747,64.073004 46.7970356,64.0813043 46.7365613,64.0813043 L45.108498,64.0813043 C44.9934783,64.0813043 44.8986166,64.0664822 44.8274704,64.0362451 C44.7557312,64.0060079 44.6982213,63.9627273 44.6543478,63.9081818 C44.6098814,63.8530435 44.5725296,63.7854545 44.5422925,63.705415 C44.5120553,63.6259684 44.4806324,63.5388142 44.4474308,63.4451383 L44.2073123,62.8249802 C44.0590909,62.9743874 43.8966403,63.1326877 43.7205534,63.3004743 C43.5438735,63.4688538 43.3494071,63.6241897 43.137747,63.7670751 C42.926087,63.9111462 42.6954545,64.0309091 42.4476285,64.1269565 C42.1998024,64.2235968 41.9353755,64.2716206 41.6543478,64.2716206 C41.1527668,64.2716206 40.6725296,64.2081818 40.2124506,64.0813043 C39.7523715,63.9544269 39.3231225,63.7741897 38.9235178,63.54 C38.523913,63.3058103 38.1616601,63.0247826 37.836166,62.6975099 C37.5112648,62.3696443 37.2320158,62.0044269 36.9972332,61.6024506 C36.7636364,61.1998814 36.5828063,60.7658893 36.4565217,60.3010672 C36.3296443,59.8356522 36.2662055,59.3488933 36.2662055,58.8419763 C36.2662055,58.0765613 36.4073123,57.3645059 36.6883399,56.7064032 C36.9693676,56.0477075 37.3517787,55.4749802 37.836166,54.9870356 C38.3217391,54.4990909 38.891502,54.1166798 39.5472332,53.8386166 C40.2029644,53.5599605 40.9049407,53.4212253 41.6543478,53.4212253 C41.9958498,53.4212253 42.3100791,53.4722134 42.5964427,53.5741897 C42.8828063,53.676166 43.143083,53.8095652 43.3772727,53.9749802 C43.6114625,54.1403953 43.8237154,54.327747 44.0134387,54.5370356 C44.2037549,54.7463241 44.3733202,54.9579842 44.5215415,55.1732016 L44.8440711,54.173004 C44.8986166,54.0360474 44.9448617,53.9239921 44.9804348,53.8386166 C45.0160079,53.7532411 45.0545455,53.6898024 45.0960474,53.6483004 C45.1375494,53.6073913 45.1885375,53.5795257 45.2490119,53.5658893 C45.3100791,53.552253 45.3948617,53.5451383 45.5051383,53.5451383 L46.7365613,53.5451383 C46.7970356,53.5451383 46.8687747,53.5534387 46.9511858,53.5700395 C47.0341897,53.5860474 47.105336,53.6251779 47.1664032,53.6856522 C47.2428854,53.7461265 47.2986166,53.8154941 47.3312253,53.8919763 C47.3644269,53.9696443 47.3810277,54.0573913 47.3810277,54.156996 L47.3810277,63.4700395 Z" id="Fill-20" fill="#FFFFFF"></path>
            <path d="M59.9362055,54.2310474 C59.9362055,54.0543676 59.9860079,53.9037747 60.0850198,53.7768972 C60.1840316,53.6494269 60.3387747,53.5859881 60.5480632,53.5859881 L62.4405534,53.5859881 C62.5063636,53.5859881 62.5775099,53.601996 62.6551779,53.6322332 C62.732253,53.6624704 62.8033992,53.7063439 62.8703953,53.7638538 C62.9362055,53.8219565 62.9919368,53.8895455 63.0393676,53.9666206 C63.0856126,54.0436957 63.1093281,54.1320356 63.1093281,54.2310474 L63.1093281,63.4450791 C63.1093281,63.6549605 63.0518182,63.8132609 62.9362055,63.9199802 C62.8205929,64.0278854 62.6551779,64.0812451 62.4405534,64.0812451 L60.5480632,64.0812451 C60.1401581,64.0812451 59.9362055,63.869585 59.9362055,63.4450791 L59.9362055,54.2310474 Z M59.9362055,50.0500198 C59.9362055,49.8182016 59.9860079,49.6545652 60.0850198,49.5579249 C60.1840316,49.4618775 60.3387747,49.4132609 60.5480632,49.4132609 L62.4654545,49.4132609 C62.6581423,49.4132609 62.8134783,49.4618775 62.9320553,49.5579249 C63.0500395,49.6545652 63.1093281,49.8182016 63.1093281,50.0500198 L63.1093281,51.6608893 C63.1093281,51.7272925 63.0945059,51.7984387 63.0642688,51.8761067 C63.0340316,51.9531818 62.990751,52.0278854 62.9362055,52.0990316 C62.8810672,52.1707708 62.8134783,52.2300593 62.7334387,52.2768972 C62.6539921,52.3237352 62.5644664,52.3468577 62.4654545,52.3468577 L60.5480632,52.3468577 C60.1401581,52.3468577 59.9362055,52.1185968 59.9362055,51.6608893 L59.9362055,50.0500198 Z" id="Fill-22" fill="#FFFFFF"></path>
            <path d="M66.4628656,53.7342688 C66.5346047,53.6737945 66.6104941,53.6352569 66.6905336,53.6186561 C66.7705731,53.6020553 66.8458696,53.5943478 66.9182016,53.5943478 L68.1650395,53.5943478 C68.2646443,53.5943478 68.3500198,53.6115415 68.421166,53.6477075 C68.493498,53.6832806 68.5539723,53.7318972 68.6031818,53.7923715 C68.6529842,53.8528458 68.6927075,53.9210277 68.7229447,53.9981028 C68.7531818,54.0751779 68.7822332,54.1546245 68.8100988,54.2370356 L69.0662253,55.2917787 C69.1492292,55.1216206 69.2689921,54.927747 69.4261067,54.710751 C69.5832213,54.4937549 69.7824308,54.2909881 70.0249209,54.1012648 C70.2668182,53.9115415 70.5549605,53.7526482 70.8881621,53.6228063 C71.2219565,53.4935573 71.6085178,53.4295257 72.0490316,53.4295257 C72.6774901,53.4295257 73.247253,53.5504743 73.7600988,53.7923715 C74.2723518,54.0342688 74.7087154,54.3633202 75.0697826,54.7807115 C75.4302569,55.1986957 75.7100988,55.6860474 75.9081225,56.2445455 C76.107332,56.8030435 76.2063439,57.3988933 76.2063439,58.0320949 L76.2063439,63.4451383 C76.2063439,63.6544269 76.1600988,63.8133202 76.0693874,63.9200395 C75.9792688,64.0273518 75.8340119,64.0813043 75.6359881,64.0813043 L73.7268972,64.0813043 C73.4897431,64.0813043 73.3272925,64.041581 73.2395455,63.9615415 C73.1512055,63.8820949 73.107332,63.726166 73.107332,63.4943478 L73.107332,58.1150988 C73.107332,57.8779447 73.0533794,57.653834 72.9460672,57.441581 C72.8381621,57.2299209 72.6964625,57.0425692 72.5203755,56.8795257 C72.3442885,56.7170751 72.1444862,56.5890119 71.9209684,56.495336 C71.6980435,56.4016601 71.4709684,56.3548221 71.2391502,56.3548221 C71.0411265,56.3548221 70.8389526,56.3986957 70.6320356,56.4870356 C70.4251186,56.5753755 70.2353953,56.6981028 70.0622727,56.8552174 C69.8885573,57.012332 69.7427075,57.1961265 69.6241304,57.4083794 C69.5055534,57.6206324 69.4379644,57.8500791 69.4213636,58.098498 L69.4213636,63.4700395 C69.4213636,63.5637154 69.4035771,63.6573913 69.368004,63.7510672 C69.3324308,63.8447431 69.2784783,63.9164822 69.2067391,63.9656917 C69.135,64.0101581 69.0674111,64.0403953 69.0039723,64.0564032 C68.9405336,64.073004 68.8682016,64.0813043 68.7851976,64.0813043 L66.9182016,64.0813043 C66.6804545,64.0813043 66.5097036,64.0232016 66.4053557,63.9081818 C66.300415,63.7919763 66.2482411,63.6378261 66.2482411,63.4451383 L66.2482411,54.203834 C66.2482411,54.1000791 66.2719565,54.0040316 66.3182016,53.9156917 C66.3656324,53.8279447 66.4302569,53.75917 66.5132609,53.7093676 L66.4628656,53.7342688 Z" id="Fill-24" fill="#FFFFFF"></path>
            <path d="M79.3450791,54.2310474 C79.3450791,54.0543676 79.3948814,53.9037747 79.4938933,53.7768972 C79.5929051,53.6494269 79.7476482,53.5859881 79.9569368,53.5859881 L81.8494269,53.5859881 C81.9152372,53.5859881 81.9863834,53.601996 82.0640514,53.6322332 C82.1411265,53.6624704 82.2122727,53.7063439 82.2792688,53.7638538 C82.3450791,53.8219565 82.4008103,53.8895455 82.4482411,53.9666206 C82.4944862,54.0436957 82.5182016,54.1320356 82.5182016,54.2310474 L82.5182016,63.4450791 C82.5182016,63.6549605 82.4606917,63.8132609 82.3450791,63.9199802 C82.2294664,64.0278854 82.0640514,64.0812451 81.8494269,64.0812451 L79.9569368,64.0812451 C79.5484387,64.0812451 79.3450791,63.869585 79.3450791,63.4450791 L79.3450791,54.2310474 Z M79.3450791,50.0500198 C79.3450791,49.8182016 79.3948814,49.6545652 79.4938933,49.5579249 C79.5929051,49.4618775 79.7476482,49.4132609 79.9569368,49.4132609 L81.8743281,49.4132609 C82.0670158,49.4132609 82.2223518,49.4618775 82.3409289,49.5579249 C82.458913,49.6545652 82.5182016,49.8182016 82.5182016,50.0500198 L82.5182016,51.6608893 C82.5182016,51.7272925 82.5033794,51.7984387 82.4731423,51.8761067 C82.4429051,51.9531818 82.3996245,52.0278854 82.3450791,52.0990316 C82.2899407,52.1707708 82.2223518,52.2300593 82.1423123,52.2768972 C82.0628656,52.3237352 81.9733399,52.3468577 81.8743281,52.3468577 L79.9569368,52.3468577 C79.5484387,52.3468577 79.3450791,52.1185968 79.3450791,51.6608893 L79.3450791,50.0500198 Z" id="Fill-26" fill="#FFFFFF"></path>
            <path d="M86.120336,51.950336 C86.120336,51.779585 86.1766601,51.6509289 86.2893083,51.5661462 C86.4025494,51.4807708 86.5638142,51.3989526 86.7731028,51.3224704 L88.6489921,50.6691107 C88.6768577,50.6637747 88.7023518,50.6614032 88.727253,50.6614032 L88.7972134,50.6614032 C89.0017589,50.6614032 89.1375296,50.7206917 89.2063043,50.8392688 C89.2756719,50.957253 89.3100593,51.1125889 89.3100593,51.3052767 L89.3023518,53.9086364 L90.681996,53.9086364 C90.858083,53.9086364 91.0015613,53.9608103 91.1112451,54.065751 C91.2215217,54.1706917 91.277253,54.3278063 91.277253,54.5370949 L91.277253,56.1313636 C91.277253,56.3631818 91.2215217,56.5321542 91.1112451,56.6400593 C91.0015613,56.7473715 90.858083,56.8013241 90.681996,56.8013241 L89.3023518,56.8013241 L89.3100593,63.4451976 C89.3100593,63.6544862 89.249585,63.8127866 89.1280435,63.9200988 C89.0070949,64.0274111 88.8393083,64.0813636 88.6240909,64.0813636 L86.756502,64.0813636 C86.3325889,64.0813636 86.120336,63.8691107 86.120336,63.4451976 L86.1120356,56.8013241 L85.5084783,56.8013241 C85.0845652,56.8013241 84.8723123,56.5783992 84.8723123,56.1313636 L84.8723123,54.5370949 C84.8723123,54.1179249 85.0845652,53.9086364 85.5084783,53.9086364 L86.1120356,53.9086364 L86.120336,51.950336 Z" id="Fill-28" fill="#FFFFFF"></path>
            <path d="M93.6311265,54.2310474 C93.6311265,54.0543676 93.6809289,53.9037747 93.7799407,53.7768972 C93.8789526,53.6494269 94.0336957,53.5859881 94.2429842,53.5859881 L96.1354743,53.5859881 C96.2012846,53.5859881 96.2724308,53.601996 96.3500988,53.6322332 C96.4271739,53.6624704 96.4983202,53.7063439 96.5653162,53.7638538 C96.6311265,53.8219565 96.6868577,53.8895455 96.7342885,53.9666206 C96.7805336,54.0436957 96.804249,54.1320356 96.804249,54.2310474 L96.804249,63.4450791 C96.804249,63.6549605 96.7467391,63.8132609 96.6311265,63.9199802 C96.5155138,64.0278854 96.3500988,64.0812451 96.1354743,64.0812451 L94.2429842,64.0812451 C93.8344862,64.0812451 93.6311265,63.869585 93.6311265,63.4450791 L93.6311265,54.2310474 Z M93.6311265,50.0500198 C93.6311265,49.8182016 93.6809289,49.6545652 93.7799407,49.5579249 C93.8789526,49.4618775 94.0336957,49.4132609 94.2429842,49.4132609 L96.1603755,49.4132609 C96.3530632,49.4132609 96.5083992,49.4618775 96.6269763,49.5579249 C96.7449605,49.6545652 96.804249,49.8182016 96.804249,50.0500198 L96.804249,51.6608893 C96.804249,51.7272925 96.7894269,51.7984387 96.7591897,51.8761067 C96.7289526,51.9531818 96.6856719,52.0278854 96.6311265,52.0990316 C96.5759881,52.1707708 96.5083992,52.2300593 96.4283597,52.2768972 C96.348913,52.3237352 96.2593874,52.3468577 96.1603755,52.3468577 L94.2429842,52.3468577 C93.8344862,52.3468577 93.6311265,52.1185968 93.6311265,51.6608893 L93.6311265,50.0500198 Z" id="Fill-30" fill="#FFFFFF"></path>
            <path d="M102.133577,58.8419763 C102.133577,59.2060079 102.189901,59.5457312 102.302549,59.8629249 C102.415791,60.1801186 102.577055,60.4534387 102.786344,60.6852569 C102.996225,60.9164822 103.248202,61.0996838 103.542866,61.2342688 C103.836937,61.3700395 104.163617,61.4370356 104.521719,61.4370356 C104.891087,61.4370356 105.233775,61.3700395 105.550375,61.2342688 C105.867569,61.0996838 106.142668,60.9164822 106.376858,60.6852569 C106.611047,60.4534387 106.794249,60.1801186 106.926462,59.8629249 C107.058676,59.5457312 107.124486,59.2060079 107.124486,58.8419763 C107.124486,58.4898024 107.058676,58.1536364 106.926462,57.8340711 C106.794249,57.5150988 106.611047,57.2340711 106.376858,56.9909881 C106.142668,56.748498 105.867569,56.556996 105.550375,56.4170751 C105.233775,56.2759684 104.891087,56.2060079 104.521719,56.2060079 C104.163617,56.2060079 103.836937,56.2759684 103.542866,56.4170751 C103.248202,56.556996 102.996225,56.748498 102.786344,56.9909881 C102.577055,57.2340711 102.415791,57.5150988 102.302549,57.8340711 C102.189901,58.1536364 102.133577,58.4898024 102.133577,58.8419763 L102.133577,58.8419763 Z M110.2733,63.4700395 C110.2733,63.5637154 110.2567,63.6526482 110.223498,63.7386166 C110.190889,63.8239921 110.135158,63.8909881 110.058676,63.9413834 C109.997609,64.0018577 109.926462,64.0403953 109.843458,64.0564032 C109.761047,64.073004 109.689308,64.0813043 109.628834,64.0813043 L108.000771,64.0813043 C107.885751,64.0813043 107.790889,64.0664822 107.719743,64.0362451 C107.648004,64.0060079 107.590494,63.9627273 107.546621,63.9081818 C107.502154,63.8530435 107.464802,63.7854545 107.434565,63.705415 C107.404328,63.6259684 107.372905,63.5388142 107.339704,63.4451383 L107.099585,62.8249802 C106.951364,62.9743874 106.788913,63.1326877 106.612826,63.3004743 C106.436146,63.4688538 106.24168,63.6241897 106.03002,63.7670751 C105.81836,63.9111462 105.587727,64.0309091 105.339901,64.1269565 C105.092075,64.2235968 104.827648,64.2716206 104.546621,64.2716206 C104.04504,64.2716206 103.564802,64.2081818 103.104723,64.0813043 C102.644644,63.9544269 102.215395,63.7741897 101.815791,63.54 C101.416186,63.3058103 101.053933,63.0247826 100.728439,62.6975099 C100.403538,62.3696443 100.124289,62.0044269 99.8895059,61.6024506 C99.6559091,61.1998814 99.4750791,60.7658893 99.3487945,60.3010672 C99.221917,59.8356522 99.1584783,59.3488933 99.1584783,58.8419763 C99.1584783,58.0765613 99.299585,57.3645059 99.5806126,56.7064032 C99.8616403,56.0477075 100.244051,55.4749802 100.728439,54.9870356 C101.214012,54.4990909 101.783775,54.1166798 102.439506,53.8386166 C103.095237,53.5599605 103.797213,53.4212253 104.546621,53.4212253 C104.888123,53.4212253 105.202352,53.4722134 105.488715,53.5741897 C105.775079,53.676166 106.035356,53.8095652 106.269545,53.9749802 C106.503735,54.1403953 106.715988,54.327747 106.905711,54.5370356 C107.096028,54.7463241 107.265593,54.9579842 107.413814,55.1732016 L107.736344,54.173004 C107.790889,54.0360474 107.837134,53.9239921 107.872708,53.8386166 C107.908281,53.7532411 107.946818,53.6898024 107.98832,53.6483004 C108.029822,53.6073913 108.08081,53.5795257 108.141285,53.5658893 C108.202352,53.552253 108.287134,53.5451383 108.397411,53.5451383 L109.628834,53.5451383 C109.689308,53.5451383 109.761047,53.5534387 109.843458,53.5700395 C109.926462,53.5860474 109.997609,53.6251779 110.058676,53.6856522 C110.135158,53.7461265 110.190889,53.8154941 110.223498,53.8919763 C110.2567,53.9696443 110.2733,54.0573913 110.2733,54.156996 L110.2733,63.4700395 Z" id="Fill-32" fill="#FFFFFF"></path>
            <path d="M113.875138,51.950336 C113.875138,51.779585 113.931462,51.6509289 114.044111,51.5661462 C114.157352,51.4807708 114.318617,51.3989526 114.527905,51.3224704 L116.403794,50.6691107 C116.43166,50.6637747 116.457154,50.6614032 116.482055,50.6614032 L116.552016,50.6614032 C116.756561,50.6614032 116.892332,50.7206917 116.961107,50.8392688 C117.030474,50.957253 117.064862,51.1125889 117.064862,51.3052767 L117.057154,53.9086364 L118.436798,53.9086364 C118.612885,53.9086364 118.756364,53.9608103 118.866047,54.065751 C118.976324,54.1706917 119.032055,54.3278063 119.032055,54.5370949 L119.032055,56.1313636 C119.032055,56.3631818 118.976324,56.5321542 118.866047,56.6400593 C118.756364,56.7473715 118.612885,56.8013241 118.436798,56.8013241 L117.057154,56.8013241 L117.064862,63.4451976 C117.064862,63.6544862 117.004387,63.8127866 116.882846,63.9200988 C116.761897,64.0274111 116.594111,64.0813636 116.378893,64.0813636 L114.511304,64.0813636 C114.087391,64.0813636 113.875138,63.8691107 113.875138,63.4451976 L113.866838,56.8013241 L113.263281,56.8013241 C112.839368,56.8013241 112.627115,56.5783992 112.627115,56.1313636 L112.627115,54.5370949 C112.627115,54.1179249 112.839368,53.9086364 113.263281,53.9086364 L113.866838,53.9086364 L113.875138,51.950336 Z" id="Fill-34" fill="#FFFFFF"></path>
            <path d="M121.38587,54.2310474 C121.38587,54.0543676 121.435672,53.9037747 121.534684,53.7768972 C121.633696,53.6494269 121.788439,53.5859881 121.997727,53.5859881 L123.890217,53.5859881 C123.956028,53.5859881 124.027174,53.601996 124.104842,53.6322332 C124.181917,53.6624704 124.253063,53.7063439 124.320059,53.7638538 C124.38587,53.8219565 124.441601,53.8895455 124.489032,53.9666206 C124.535277,54.0436957 124.558992,54.1320356 124.558992,54.2310474 L124.558992,63.4450791 C124.558992,63.6549605 124.501482,63.8132609 124.38587,63.9199802 C124.270257,64.0278854 124.104842,64.0812451 123.890217,64.0812451 L121.997727,64.0812451 C121.589229,64.0812451 121.38587,63.869585 121.38587,63.4450791 L121.38587,54.2310474 Z M121.38587,50.0500198 C121.38587,49.8182016 121.435672,49.6545652 121.534684,49.5579249 C121.633696,49.4618775 121.788439,49.4132609 121.997727,49.4132609 L123.915119,49.4132609 C124.107806,49.4132609 124.263142,49.4618775 124.381719,49.5579249 C124.499704,49.6545652 124.558992,49.8182016 124.558992,50.0500198 L124.558992,51.6608893 C124.558992,51.7272925 124.54417,51.7984387 124.513933,51.8761067 C124.483696,51.9531818 124.440415,52.0278854 124.38587,52.0990316 C124.330731,52.1707708 124.263142,52.2300593 124.183103,52.2768972 C124.103656,52.3237352 124.01413,52.3468577 123.915119,52.3468577 L121.997727,52.3468577 C121.589229,52.3468577 121.38587,52.1185968 121.38587,51.6608893 L121.38587,50.0500198 Z" id="Fill-36" fill="#FFFFFF"></path>
            <path d="M127.015316,54.4044664 C126.904447,54.17917 126.884289,53.9864822 126.953063,53.8264032 C127.021838,53.6663241 127.185474,53.5862846 127.445158,53.5862846 L129.55998,53.5862846 C129.703458,53.5862846 129.82915,53.6248221 129.936462,53.7024901 C130.043775,53.7795652 130.119071,53.8898419 130.163538,54.0327273 C130.256621,54.3244269 130.360375,54.6522925 130.473024,55.0163241 C130.586265,55.3797628 130.704842,55.7532806 130.828755,56.1356917 C130.952668,56.5186957 131.075395,56.8993281 131.196344,57.2764032 C131.317292,57.6540711 131.429348,58.0009091 131.531324,58.3175099 C131.632708,58.6341107 131.724012,58.9098024 131.804051,59.1439921 C131.883498,59.3781818 131.942787,59.5447826 131.981324,59.6437945 L133.7333,54.0327273 C133.80504,53.8566403 133.886265,53.7380632 133.976976,53.6775889 C134.068281,53.6171146 134.196344,53.5862846 134.361166,53.5862846 L136.535277,53.5862846 C136.694763,53.5862846 136.816304,53.6058498 136.898123,53.6443874 C136.981126,53.6829249 137.036265,53.7356917 137.06413,53.801502 C137.09081,53.8673123 137.096739,53.9432016 137.080138,54.0285771 C137.06413,54.1139526 137.036265,54.2040711 136.997134,54.2971542 L133.063933,63.7258103 C133.003458,63.825415 132.932312,63.9090119 132.849308,63.9777866 C132.766304,64.0471542 132.642984,64.0815415 132.476976,64.0815415 L131.493972,64.0815415 C131.273419,64.0815415 131.118083,64.0501186 131.027372,63.9866798 C130.936067,63.9232411 130.868478,63.836087 130.825198,63.7258103 L127.015316,54.4044664 Z" id="Fill-38" fill="#FFFFFF"></path>
            <path d="M143.814664,55.9418775 C143.60004,55.9418775 143.391344,55.9839723 143.190949,56.0699407 C142.98996,56.1553162 142.801423,56.2691502 142.624743,56.4126285 C142.448063,56.5561067 142.289763,56.7185573 142.149842,56.9005731 C142.008735,57.081996 141.894901,57.2663834 141.806561,57.4537352 L146.029684,57.4537352 C145.913478,57.2391107 145.788379,57.0404941 145.653794,56.8590711 C145.518024,56.6770553 145.363874,56.5169763 145.190751,56.3794269 C145.017036,56.2424704 144.819012,56.1345652 144.595494,56.0574901 C144.372569,55.980415 144.1117,55.9418775 143.814664,55.9418775 M147.78996,62.8252767 C147.304387,63.2717194 146.759526,63.620336 146.153597,63.8705336 C145.547075,64.1213241 144.905573,64.2464229 144.227905,64.2464229 C143.473162,64.2464229 142.759328,64.1094664 142.087589,63.8337747 C141.415257,63.558083 140.825929,63.1768577 140.319012,62.688913 C139.812095,62.2015613 139.410119,61.6270553 139.11249,60.9659881 C138.815455,60.3049209 138.66664,59.585751 138.66664,58.8090711 C138.66664,58.3246838 138.725929,57.8545257 138.843913,57.4003755 C138.96249,56.9456324 139.13087,56.5199407 139.348458,56.1238933 C139.565455,55.7266601 139.830474,55.3614427 140.141739,55.028834 C140.453004,54.6950395 140.801028,54.4098617 141.186996,54.1733004 C141.572372,53.9361462 141.991542,53.7517589 142.442727,53.6195455 C142.895099,53.487332 143.371186,53.4215217 143.872767,53.4215217 C144.329289,53.4215217 144.77336,53.481996 145.202609,53.6029447 C145.633043,53.7238933 146.036206,53.8952372 146.413874,54.1157905 C146.790949,54.335751 147.136601,54.6001779 147.45083,54.9084783 C147.765059,55.2173715 148.034822,55.5547233 148.260711,55.9205336 C148.486601,56.2875296 148.661502,56.6782411 148.785415,57.0944466 C148.909328,57.5106522 148.971581,57.9387154 148.971581,58.3798221 C148.971581,58.6661858 148.966838,58.8997826 148.958538,59.0817984 C148.95083,59.2638142 148.907549,59.4084783 148.831067,59.5157905 C148.753992,59.6231028 148.625336,59.6978063 148.446877,59.7387154 C148.267233,59.7796245 148.004585,59.8009684 147.657747,59.8009684 L141.707549,59.8009684 C141.762688,60.1531423 141.87415,60.4483992 142.041937,60.6849605 C142.210316,60.9221146 142.40419,61.1106522 142.624743,61.251166 C142.845296,61.3916798 143.079486,61.4918775 143.326719,61.5529447 C143.575138,61.613419 143.809328,61.6436561 144.029881,61.6436561 C144.227905,61.6436561 144.431858,61.6229051 144.641146,61.5814032 C144.850435,61.5404941 145.053202,61.4853557 145.248854,61.416581 C145.443913,61.3472134 145.622964,61.2677668 145.785415,61.1764625 C145.947866,61.085751 146.078893,60.9908893 146.177905,60.8918775 C146.266245,60.8201383 146.342134,60.7661858 146.405573,60.7306126 C146.469012,60.6950395 146.536601,60.6766601 146.607747,60.6766601 C146.678893,60.6766601 146.752411,60.7015613 146.826522,60.7507708 C146.901225,60.8005731 146.984822,60.8723123 147.079091,60.9659881 L147.954783,61.9578854 C148.015257,62.0290316 148.053794,62.0936561 148.070395,62.1517589 C148.086996,62.2098617 148.095889,62.2691502 148.095889,62.3296245 C148.095889,62.4393083 148.065059,62.5347628 148.004585,62.6148024 C147.944111,62.694249 147.871779,62.7648024 147.78996,62.8252767" id="Fill-40" fill="#FFFFFF"></path>
        </g>
    </g>
</svg>