<?xml version="1.0" encoding="UTF-8" standalone="no"?>
<svg width="145px" height="30px" viewBox="0 0 145 30" version="1.1" xmlns="http://www.w3.org/2000/svg" xmlns:xlink="http://www.w3.org/1999/xlink">
    <!-- Generator: Sketch 3.8.3 (29802) - http://www.bohemiancoding.com/sketch -->
    <title>logo</title>
    <desc>Created with Sketch.</desc>
    <defs></defs>
    <g id="Page-1" stroke="none" stroke-width="1" fill="none" fill-rule="evenodd">
        <g id="logo">
            <path d="M18.8747273,8.86227273 C18.2265455,8.40454545 17.5338182,8.04909091 16.797,7.79454545 C16.0597273,7.54045455 15.2715455,7.41318182 14.4329091,7.41318182 C13.3774545,7.41318182 12.4115455,7.61318182 11.5347273,8.01363636 C10.6579091,8.41409091 9.90472727,8.95727273 9.27563636,9.64409091 C8.64609091,10.33 8.15336364,11.1340909 7.79790909,12.0554545 C7.442,12.9772727 7.26427273,13.9590909 7.26427273,15.0013636 C7.26427273,16.0436364 7.442,17.0222727 7.79790909,17.9372727 C8.15336364,18.8527273 8.64609091,19.65 9.27563636,20.33 C9.90472727,21.0104545 10.6579091,21.5472727 11.5347273,21.9409091 C12.4115455,22.3354545 13.3774545,22.5318182 14.4329091,22.5318182 C14.8774545,22.5318182 15.3192727,22.5004545 15.7579091,22.4368182 C16.1960909,22.3736364 16.6633636,22.2909091 17.1592727,22.1886364 L17.1592727,17.1936364 C17.1592727,16.9527273 17.2288182,16.7522727 17.3688182,16.5931818 C17.5083636,16.4340909 17.7183636,16.3545455 17.9979091,16.3545455 L23.1833636,16.3545455 C23.3742727,16.3545455 23.5774545,16.4309091 23.7938182,16.5836364 C24.0097273,16.7359091 24.1179091,16.94 24.1179091,17.1936364 L24.1179091,26.4213636 C24.1179091,26.7645455 23.9333636,27.0440909 23.5647273,27.2604545 C22.9674545,27.6672727 22.307,28.0168182 21.582,28.3086364 C20.8574545,28.6013636 20.1010909,28.8427273 19.3133636,29.0331818 C18.5251818,29.2240909 17.7279091,29.3668182 16.9206364,29.4622727 C16.1133636,29.5577273 15.3288182,29.6054545 14.5660909,29.6054545 C13.2188182,29.6054545 11.9256364,29.4336364 10.6860909,29.0904545 C9.447,28.7472727 8.287,28.2581818 7.207,27.6222727 C6.12654545,26.9872727 5.14472727,26.2277273 4.26154545,25.3440909 C3.37745455,24.4609091 2.61836364,23.4822727 1.98290909,22.4081818 C1.347,21.3340909 0.857909091,20.1777273 0.514727273,18.9381818 C0.172,17.6986364 0.000181818182,16.4059091 0.000181818182,15.0586364 C0.000181818182,13.7113636 0.172,12.4177273 0.514727273,11.1786364 C0.857909091,9.93909091 1.347,8.77636364 1.98290909,7.68954545 C2.61836364,6.60272727 3.37745455,5.61454545 4.26154545,4.72454545 C5.14472727,3.83545455 6.12654545,3.07590909 7.207,2.44681818 C8.287,1.81772727 9.447,1.32863636 10.6860909,0.978636364 C11.9256364,0.629090909 13.2188182,0.454545455 14.5660909,0.454545455 C16.0915455,0.454545455 17.5306364,0.667272727 18.8842727,1.09272727 C20.2379091,1.51909091 21.5124545,2.13181818 22.707,2.93272727 C22.9229091,3.06 23.0888182,3.22818182 23.2024545,3.43772727 C23.317,3.64772727 23.2915455,3.88636364 23.1265455,4.15318182 L20.0379091,8.61409091 C19.8724545,8.81772727 19.707,8.95454545 19.5424545,9.02409091 C19.3765455,9.09454545 19.1542727,9.04045455 18.8747273,8.86227273" id="Fill-1" fill="#FFF"></path>
            <path d="M35.7093182,15.0395 C35.7093182,16.0945 35.8870455,17.0790455 36.2425,17.9945 C36.5975,18.9099545 37.0961364,19.7076818 37.7370455,20.3872273 C38.3779545,21.0672273 39.1365909,21.6013182 40.0125,21.9885909 C40.8884091,22.3767727 41.8529545,22.5699545 42.9065909,22.5699545 C43.9597727,22.5699545 44.9275,22.3767727 45.8102273,21.9885909 C46.6920455,21.6013182 47.4538636,21.0672273 48.0947727,20.3872273 C48.7361364,19.7076818 49.2343182,18.9099545 49.5893182,17.9945 C49.9447727,17.0790455 50.1229545,16.0945 50.1229545,15.0395 C50.1229545,13.9972273 49.9447727,13.0154091 49.5893182,12.0940455 C49.2343182,11.1722273 48.7361364,10.3685909 48.0947727,9.68222727 C47.4538636,8.99540909 46.6920455,8.45586364 45.8102273,8.06131818 C44.9275,7.66768182 43.9597727,7.47040909 42.9065909,7.47040909 C41.8529545,7.47040909 40.8884091,7.66768182 40.0125,8.06131818 C39.1365909,8.45586364 38.3779545,8.99540909 37.7370455,9.68222727 C37.0961364,10.3685909 36.5975,11.1722273 36.2425,12.0940455 C35.8870455,13.0154091 35.7093182,13.9972273 35.7093182,15.0395 M28.3311364,15.0585909 C28.3311364,13.7113182 28.5029545,12.4176818 28.8461364,11.1785909 C29.1893182,9.93904545 29.6788636,8.77631818 30.3152273,7.6895 C30.9506818,6.60268182 31.7106818,5.61495455 32.5947727,4.72495455 C33.4788636,3.83586364 34.4611364,3.07586364 35.5425,2.44677273 C36.6234091,1.81768182 37.7838636,1.32859091 39.0238636,0.978590909 C40.2643182,0.629045455 41.5579545,0.4545 42.9065909,0.4545 C44.2415909,0.4545 45.5325,0.629045455 46.7793182,0.978590909 C48.0256818,1.32859091 49.1893182,1.81768182 50.2706818,2.44677273 C51.3515909,3.07586364 52.3375,3.83586364 53.2279545,4.72495455 C54.1179545,5.61495455 54.8779545,6.60268182 55.5075,7.6895 C56.1370455,8.77631818 56.6270455,9.93904545 56.9765909,11.1785909 C57.3265909,12.4176818 57.5011364,13.7113182 57.5011364,15.0585909 C57.5011364,16.4058636 57.3265909,17.6990455 56.9765909,18.9381364 C56.6270455,20.1776818 56.1370455,21.3345 55.5075,22.4081364 C54.8779545,23.4822273 54.1179545,24.4613182 53.2279545,25.3440455 C52.3375,26.2276818 51.3515909,26.9872273 50.2706818,27.6226818 C49.1893182,28.2581364 48.0256818,28.7472273 46.7793182,29.0904091 C45.5325,29.4335909 44.2415909,29.6054091 42.9065909,29.6054091 C41.5579545,29.6054091 40.2643182,29.4335909 39.0238636,29.0904091 C37.7838636,28.7472273 36.6234091,28.2581364 35.5425,27.6226818 C34.4611364,26.9872273 33.4788636,26.2276818 32.5947727,25.3440455 C31.7106818,24.4613182 30.9506818,23.4822273 30.3152273,22.4081364 C29.6788636,21.3345 29.1893182,20.1776818 28.8461364,18.9381364 C28.5029545,17.6990455 28.3311364,16.4058636 28.3311364,15.0585909" id="Fill-4" fill="#FFF"></path>
            <path d="M71.4377727,9.77713636 C71.1959545,10.4257727 70.9518636,11.1248636 70.7036818,11.8744091 C70.4559545,12.6248636 70.2109545,13.3807727 69.9700455,14.1430455 C69.7277727,14.9057727 69.4832273,15.6589545 69.2355,16.4025909 C68.9877727,17.1462273 68.7427727,17.8416818 68.5014091,18.4903182 L74.3545909,18.4903182 L71.4377727,9.77713636 Z M67.9677727,1.61759091 C67.9805,1.54122727 68.0214091,1.4585 68.0918636,1.36940909 C68.1614091,1.28077273 68.2468636,1.19804545 68.3491364,1.12168182 C68.4509545,1.04531818 68.5586818,0.984863636 68.6732273,0.940772727 C68.7877727,0.896227273 68.8955,0.8735 68.9973182,0.8735 L73.8777727,0.8735 C74.0941364,0.8735 74.2782273,0.940772727 74.4309545,1.07395455 C74.5836818,1.20713636 74.6977727,1.32486364 74.7741364,1.42668182 L75.2509545,2.5135 L85.2600455,28.3280455 C85.3618636,28.5821364 85.3427727,28.7885 85.2027727,28.9475909 C85.0632273,29.1062273 84.8214091,29.1857727 84.4782273,29.1857727 L79.0064091,29.1857727 C78.7141364,29.1857727 78.4886818,29.1321364 78.3295909,29.0239545 C78.1709545,28.9157727 78.0468636,28.7348636 77.9582273,28.4803182 C77.7036818,27.8325909 77.4555,27.1875909 77.2145909,26.5453182 C76.9732273,25.9039545 76.7314091,25.2585 76.4900455,24.6103182 L66.3664091,24.6103182 C66.1250455,25.2585 65.8800455,25.9039545 65.6323182,26.5453182 C65.3845909,27.1875909 65.1395909,27.8325909 64.8982273,28.4803182 C64.7327727,28.9512273 64.4086818,29.1857727 63.9259545,29.1857727 L58.3018636,29.1857727 C58.0600455,29.1857727 57.8600455,29.1225909 57.7009545,28.9948636 C57.5423182,28.8685 57.5132273,28.6775909 57.6155,28.4230455 L67.9677727,1.61759091 Z" id="Fill-7" fill="#FFF"></path>
            <path d="M88.3869091,1.69340909 C88.3869091,1.46477273 88.4632727,1.2675 88.6150909,1.1025 C88.7678182,0.9375 88.9773636,0.854772727 89.2446364,0.854772727 L94.8882727,0.854772727 C95.1037273,0.854772727 95.301,0.930681818 95.4787273,1.08340909 C95.6569091,1.23613636 95.7519091,1.43931818 95.7650909,1.69340909 L95.7650909,22.4370455 L106.251,22.4370455 C106.480091,22.4370455 106.676,22.5129545 106.842364,22.6656818 C107.007364,22.8184091 107.089636,23.0279545 107.089636,23.2943182 L107.089636,28.3088636 C107.089636,28.5247727 107.016,28.7220455 106.870545,28.8997727 C106.724182,29.0779545 106.518273,29.1734091 106.251,29.1856818 L89.226,29.1856818 C88.6655455,29.1856818 88.3869091,28.9065909 88.3869091,28.3470455 L88.3869091,1.69340909 Z" id="Fill-9" fill="#FFF"></path>
            <path d="M109.510409,3.77172727 C109.510409,3.289 109.789955,2.89445455 110.3495,2.58945455 L112.942227,1.31218182 C113.272682,1.09627273 113.596773,0.969 113.9145,0.930818182 C114.232227,0.892636364 114.639045,0.873545455 115.134955,0.873545455 L119.444045,0.873545455 C119.697682,0.873545455 119.914045,0.949909091 120.091773,1.10263636 C120.2695,1.25490909 120.358591,1.45854545 120.358591,1.71263636 L120.358591,28.3467273 C120.358591,28.9067273 120.059955,29.1858182 119.462682,29.1858182 L114.048136,29.1858182 C113.729955,29.1858182 113.511318,29.1003636 113.390409,28.9285455 C113.2695,28.7571818 113.2095,28.5758182 113.2095,28.3849091 L113.2095,7.37536364 L110.597227,8.67127273 C110.533591,8.69718182 110.469955,8.70627273 110.406773,8.70036364 C110.342682,8.694 110.298136,8.71627273 110.273136,8.76672727 C110.031318,8.76672727 109.844045,8.67809091 109.710409,8.49990909 C109.577227,8.32218182 109.510409,8.11263636 109.510409,7.87081818 L109.510409,3.77172727 Z" id="Fill-11" fill="#18AEC4"></path>
            <path d="M131.2065,19.9391818 C131.2065,20.4478182 131.282864,20.9178182 131.435591,21.3500909 C131.587864,21.7823636 131.803773,22.1573636 132.083773,22.4746364 C132.362864,22.7923636 132.699682,23.0405455 133.093773,23.2182727 C133.487864,23.3964545 133.932864,23.4855455 134.428773,23.4855455 C134.924227,23.4855455 135.372409,23.3964545 135.772864,23.2182727 C136.173318,23.0405455 136.509682,22.7923636 136.783318,22.4746364 C137.0565,22.1573636 137.269227,21.7823636 137.421955,21.3500909 C137.574682,20.9178182 137.650591,20.4478182 137.650591,19.9391818 C137.650591,19.4432727 137.574682,18.9796364 137.421955,18.5473636 C137.269227,18.1155455 137.0565,17.7369091 136.783318,17.4128182 C136.509682,17.0887273 136.173318,16.8314545 135.772864,16.641 C135.372409,16.4500909 134.924227,16.3546364 134.428773,16.3546364 C133.932864,16.3546364 133.487864,16.4500909 133.093773,16.641 C132.699682,16.8314545 132.362864,17.0887273 132.083773,17.4128182 C131.803773,17.7369091 131.587864,18.1155455 131.435591,18.5473636 C131.282864,18.9796364 131.2065,19.4432727 131.2065,19.9391818 M124.609682,21.026 C124.584682,20.8100909 124.565591,20.591 124.552409,20.3678182 C124.540136,20.146 124.533318,19.9269091 124.533318,19.7105455 C124.533318,18.0328182 124.940591,16.4823636 125.753773,15.0587273 C125.766045,15.0455455 125.788773,15.0141818 125.820591,14.9632727 C125.852409,14.9123636 125.941045,14.7596364 126.087409,14.5055455 C126.233773,14.2514545 126.459227,13.8541818 126.764682,13.3141818 C127.069227,12.7737273 127.498318,12.0114545 128.0515,11.0264545 C128.603773,10.0414545 129.303318,8.79281818 130.148318,7.27963636 C130.993318,5.76736364 132.032409,3.91145455 133.265591,1.71236364 C133.405591,1.44554545 133.570591,1.23918182 133.7615,1.09281818 C133.951955,0.947363636 134.206045,0.873727273 134.524227,0.873727273 L139.938318,0.873727273 C140.434227,0.873727273 140.682409,1.02009091 140.682409,1.31236364 C140.682409,1.36327273 140.669227,1.44872727 140.644227,1.56963636 C140.618318,1.691 140.592864,1.76372727 140.567864,1.78872727 C140.122409,2.57736364 139.731955,3.26645455 139.395136,3.85736364 C139.057864,4.44872727 138.753318,4.98236364 138.480136,5.45918182 C138.2065,5.93554545 137.958318,6.371 137.7365,6.76509091 C137.513773,7.15918182 137.297864,7.54054545 137.087864,7.90872727 C136.878773,8.27781818 136.665591,8.656 136.449682,9.04327273 C136.233318,9.43145455 135.998318,9.85372727 135.743773,10.311 C136.964227,10.451 138.108318,10.791 139.175591,11.3314545 C140.243773,11.8714545 141.171045,12.5673636 141.959227,13.4187273 C142.747409,14.2705455 143.366955,15.246 143.818318,16.3455455 C144.269227,17.4450909 144.495136,18.6232727 144.495136,19.8819091 C144.495136,21.2296364 144.234227,22.491 143.713773,23.6664545 C143.191955,24.8423636 142.480591,25.8655455 141.577864,26.736 C140.675591,27.6064545 139.617409,28.2932727 138.403773,28.7950909 C137.189682,29.2969091 135.890136,29.5482727 134.505136,29.5482727 C133.221045,29.5482727 132.010591,29.3414545 130.872864,28.9282727 C129.735591,28.5155455 128.7215,27.9341818 127.831955,27.1837273 C126.941955,26.4341818 126.214682,25.5350909 125.648773,24.4864545 C125.083318,23.4373636 124.736955,22.2841818 124.609682,21.026" id="Fill-13" fill="#18AEC4"></path>
        </g>
    </g>
</svg>
