<?xml version="1.0" encoding="UTF-8" standalone="no"?>
<svg width="100px" height="43px" viewBox="0 0 100 43" version="1.1" xmlns="http://www.w3.org/2000/svg" xmlns:xlink="http://www.w3.org/1999/xlink">
    <!-- Generator: Sketch 3.8.3 (29802) - http://www.bohemiancoding.com/sketch -->
    <title>logo</title>
    <desc>Created with Sketch.</desc>
    <defs></defs>
    <g id="Page-1" stroke="none" stroke-width="1" fill="none" fill-rule="evenodd">
        <g id="logo">
            <path d="M4.38778656,17.0619763 C4.56960474,17.2125692 4.80280632,17.4133597 5.08699605,17.6647431 C5.37079051,17.9165217 5.69490119,18.1659289 6.05932806,18.4121739 C6.60557312,18.7766008 7.14667984,19.0607905 7.68264822,19.2639526 C8.21822134,19.4679051 8.78067194,19.5694862 9.37,19.5694862 C9.91664032,19.5694862 10.3747431,19.5078261 10.7443083,19.3849012 C11.1142688,19.261581 11.4059684,19.0983399 11.6201976,18.8951779 C11.8344269,18.6916206 11.9873913,18.4560474 12.0786957,18.1884585 C12.1692095,17.9208696 12.2150593,17.6370751 12.2150593,17.3370751 C12.2150593,17.0050593 12.0889723,16.7082213 11.8371937,16.446166 C11.585415,16.1837154 11.2775099,15.9509091 10.913083,15.747747 C10.5486561,15.5441897 10.168419,15.3702767 9.77197628,15.2256126 C9.3755336,15.0809486 9.03245059,14.9607905 8.74351779,14.8639526 C7.45774704,14.4149407 6.33245059,13.9303557 5.36802372,13.4109881 C4.40399209,12.8916206 3.60003953,12.3133597 2.95735178,11.6766008 C2.31426877,11.0398419 1.83245059,10.3382609 1.51071146,9.57304348 C1.18936759,8.80743083 1.02849802,7.95367589 1.02849802,7.0113834 C1.02849802,6.01612648 1.22968379,5.11098814 1.63126482,4.29754941 C2.03324111,3.48371542 2.60636364,2.78806324 3.35102767,2.20980237 C4.0956917,1.6315415 4.9929249,1.18490119 6.04312253,0.868695652 C7.09332016,0.552885375 8.26644269,0.395177866 9.56288538,0.395177866 C10.5379842,0.395177866 11.4727668,0.505059289 12.3676285,0.724426877 C13.2620949,0.94458498 14.143913,1.29478261 15.011502,1.7773913 C15.3759289,1.99162055 15.7213834,2.2141502 16.0482609,2.44458498 C16.3751383,2.67501976 16.6616996,2.89715415 16.9083399,3.1113834 C17.154585,3.32561265 17.3502372,3.52916996 17.4949012,3.72205534 C17.6395652,3.91494071 17.7118972,4.08094862 17.7118972,4.22047431 C17.7118972,4.35960474 17.6771146,4.48806324 17.6071542,4.6058498 C17.5375889,4.72403162 17.4328458,4.85802372 17.2937154,5.00782609 L14.8348221,7.62758893 C14.6526087,7.81019763 14.4703953,7.90071146 14.2881818,7.90071146 C14.1379842,7.90071146 14.0016206,7.85841897 13.8786957,7.77225296 C13.7553755,7.68648221 13.6186166,7.57936759 13.4688142,7.45090909 L13.3241502,7.32205534 C13.1095257,7.1398419 12.8711858,6.95249012 12.6087352,6.76 C12.3462846,6.56671937 12.0648617,6.39280632 11.7652569,6.2370751 C11.4648617,6.08213439 11.1486561,5.95367589 10.8166403,5.8516996 C10.4846245,5.75011858 10.1470751,5.69913043 9.80438735,5.69913043 C9.45063241,5.69913043 9.11822134,5.72837945 8.80754941,5.78766798 C8.49687747,5.84616601 8.22375494,5.9398419 7.98778656,6.06869565 C7.75221344,6.19715415 7.5644664,6.36592885 7.42533597,6.57501976 C7.28620553,6.78371542 7.21664032,7.03865613 7.21664032,7.33826087 C7.21664032,7.63826087 7.29134387,7.89833992 7.4415415,8.11770751 C7.59134387,8.33786561 7.81624506,8.54102767 8.11664032,8.7287747 C8.41624506,8.91652174 8.78897233,9.09320158 9.23363636,9.25920949 C9.67790514,9.42521739 10.1952964,9.60466403 10.7846245,9.79754941 C11.9201976,10.1726482 12.9676285,10.5663241 13.926917,10.9785771 C14.8858103,11.3912253 15.713083,11.8789723 16.4099209,12.4414229 C17.1063636,13.0038735 17.6498419,13.6766008 18.0411462,14.458419 C18.4324506,15.2410277 18.6277075,16.1888538 18.6277075,17.303083 C18.6277075,18.4821344 18.3866008,19.5509091 17.9047826,20.5098024 C17.4225692,21.4686957 16.7609091,22.2856917 15.9198024,22.9607905 C15.0783004,23.6358893 14.0897628,24.1580237 12.9541897,24.5279842 C11.8186166,24.8975494 10.5968775,25.0821344 9.28976285,25.0821344 C8.05774704,25.0821344 6.84667984,24.861581 5.65735178,24.4216601 C4.46802372,23.9809486 3.35893281,23.3900395 2.33047431,22.6485375 C1.90162055,22.3366798 1.53996047,22.0303557 1.24549407,21.7295652 C0.950632411,21.4287747 0.717826087,21.1872727 0.546284585,21.0042688 L0.498458498,20.9560474 C0.487391304,20.9343083 0.476719368,20.9212648 0.466047431,20.915336 C0.455375494,20.9101976 0.4443083,20.9022925 0.434031621,20.8912253 C0.422964427,20.8698814 0.41229249,20.8568379 0.40201581,20.8509091 C0.390948617,20.8457708 0.38027668,20.8378656 0.369604743,20.8267984 C0.122964427,20.558419 3.95256917e-05,20.3433992 3.95256917e-05,20.1821344 C3.95256917e-05,19.9995257 0.122964427,19.7951779 0.369604743,19.5694862 L3.15023715,16.9177075 C3.37513834,16.7568379 3.55735178,16.6762055 3.69648221,16.6762055 C3.79332016,16.6762055 3.89490119,16.7082213 4.00201581,16.7730435 C4.10873518,16.8374704 4.23758893,16.9335178 4.38778656,17.0619763" id="Fill-1" fill="#146975"></path>
            <path d="M28.857668,6.66332016 L28.857668,19.023004 L30.2078656,19.023004 C30.4541107,19.023004 30.6952174,19.0150988 30.9311858,18.9988933 C31.1667589,18.9826877 31.402332,18.9641107 31.6383004,18.9423715 C32.4418577,18.8783399 33.1916601,18.683083 33.888498,18.3558103 C34.5845455,18.0293281 35.1928458,17.6004743 35.7126087,17.0700395 C36.2319763,16.5396047 36.6390909,15.9154941 36.9339526,15.1977075 C37.2288142,14.4799209 37.3762451,13.6977075 37.3762451,12.8510672 C37.3762451,11.9510672 37.2074704,11.1233992 36.8699209,10.3680632 C36.5323715,9.61272727 36.0742688,8.95936759 35.4956126,8.40719368 C34.9169565,7.85541502 34.2390909,7.42695652 33.4624111,7.12142292 C32.685336,6.81588933 31.857668,6.66332016 30.9794071,6.66332016 L28.857668,6.66332016 Z M43.5639921,12.8672727 C43.5639921,14.0028458 43.4193281,15.0826877 43.13,16.1060079 C42.8406719,17.1293281 42.4280237,18.083083 41.8924506,18.9668775 C41.3564822,19.8506719 40.716166,20.6518577 39.9718972,21.3696443 C39.2268379,22.0874308 38.4019368,22.6981028 37.4964032,23.2020553 C36.5908696,23.7056126 35.6133992,24.0941502 34.5635968,24.3668775 C33.513004,24.64 32.4256522,24.7767589 31.300751,24.7767589 L23.3770356,24.7767589 C23.1841502,24.7767589 23.0126087,24.7344664 22.8628063,24.6483004 C22.7126087,24.5625296 22.6375099,24.3807115 22.6375099,24.1016601 L22.6375099,1.64869565 C22.6375099,1.42379447 22.69917,1.24158103 22.8224901,1.10245059 C22.945415,0.962924901 23.1303953,0.892964427 23.3770356,0.892964427 L31.300751,0.892964427 C32.4256522,0.892964427 33.5106324,1.03288538 34.5552964,1.31114625 C35.5999605,1.58980237 36.5750593,1.98624506 37.4805929,2.50047431 C38.3857312,3.01509881 39.2137945,3.63090909 39.9635968,4.34909091 C40.7137945,5.06687747 41.3541107,5.87043478 41.8845455,6.75976285 C42.414585,7.64909091 42.8272332,8.60798419 43.1220949,9.63644269 C43.4165613,10.6652964 43.5639921,11.7423715 43.5639921,12.8672727 L43.5639921,12.8672727 Z" id="Fill-4" fill="#146975"></path>
            <path d="M62.4529249,7.64375494 C61.9062846,7.25798419 61.3220949,6.95837945 60.700751,6.74375494 C60.0794071,6.52952569 59.4149802,6.42201581 58.7078656,6.42201581 C57.8185375,6.42201581 57.0043083,6.59118577 56.2647826,6.92833992 C55.5256522,7.26588933 54.8908696,7.72399209 54.3604348,8.30264822 C53.83,8.88130435 53.414585,9.55916996 53.1149802,10.3358498 C52.814585,11.1125296 52.6647826,11.9405929 52.6647826,12.819249 C52.6647826,13.6975099 52.814585,14.5224111 53.1149802,15.2939526 C53.414585,16.0658893 53.83,16.7382213 54.3604348,17.3113439 C54.8908696,17.8844664 55.5256522,18.3374308 56.2647826,18.6694466 C57.0043083,19.0014625 57.8185375,19.1674704 58.7078656,19.1674704 C59.0829644,19.1674704 59.4552964,19.1409881 59.8252569,19.0872332 C60.1948221,19.0334783 60.588498,18.9643083 61.0062846,18.8785375 L61.0062846,14.6674704 C61.0062846,14.463913 61.0651779,14.2951383 61.1833597,14.1611462 C61.300751,14.0271542 61.4778261,13.9599605 61.7133992,13.9599605 L66.0849407,13.9599605 C66.2458103,13.9599605 66.4169565,14.0247826 66.59917,14.1532411 C66.7813834,14.2816996 66.8726877,14.4532411 66.8726877,14.6674704 L66.8726877,22.4465217 C66.8726877,22.7358498 66.7173518,22.9714229 66.4066798,23.1536364 C65.9031225,23.4963241 65.3458103,23.791581 64.7351383,24.0378261 C64.1244664,24.2844664 63.486917,24.4876285 62.8224901,24.6481028 C62.1580632,24.8093676 61.4857312,24.9295257 60.8054941,25.0101581 C60.1248617,25.0903953 59.4635968,25.1303162 58.8205138,25.1303162 C57.6845455,25.1303162 56.5944269,24.9860474 55.5497628,24.6967194 C54.5050988,24.4073913 53.5268379,23.9947431 52.6165613,23.45917 C51.7058893,22.9232016 50.8778261,22.2832806 50.1335573,21.5382213 C49.388498,20.7939526 48.7485771,19.9690514 48.2126087,19.0635178 C47.6766403,18.1579842 47.2643874,17.1828854 46.9750593,16.1378261 C46.6857312,15.0935573 46.5410672,14.0030435 46.5410672,12.8674704 C46.5410672,11.7318972 46.6857312,10.6413834 46.9750593,9.59632411 C47.2643874,8.55205534 47.6766403,7.57142292 48.2126087,6.65521739 C48.7485771,5.73940711 49.388498,4.90620553 50.1335573,4.15600791 C50.8778261,3.40581028 51.7058893,2.76549407 52.6165613,2.23505929 C53.5268379,1.70501976 54.5050988,1.2927668 55.5497628,0.997905138 C56.5944269,0.703043478 57.6845455,0.555612648 58.8205138,0.555612648 C60.1062846,0.555612648 61.3197233,0.735059289 62.46083,1.09434783 C63.6019368,1.45324111 64.6762451,1.97023715 65.6833597,2.64533597 C65.8655731,2.75245059 66.0047036,2.89434783 66.1011462,3.07142292 C66.1975889,3.24810277 66.1762451,3.44889328 66.0367194,3.67379447 L63.4331621,7.43505929 C63.2936364,7.60620553 63.1545059,7.72162055 63.0153755,7.78051383 C62.8758498,7.83940711 62.688498,7.79395257 62.4529249,7.64375494" id="Fill-6" fill="#146975"></path>
            <path d="M70.8822925,3.35229249 C70.8822925,2.94557312 71.1178656,2.61316206 71.5894071,2.3558498 L73.7751779,1.27916996 C74.0534387,1.09695652 74.3269565,0.98944664 74.595336,0.95743083 C74.8625296,0.92541502 75.2056126,0.909209486 75.6233992,0.909209486 L79.2562055,0.909209486 C79.4704348,0.909209486 79.652253,0.973636364 79.8024506,1.10249012 C79.952253,1.23094862 80.027747,1.40209486 80.027747,1.61632411 L80.027747,24.0696838 C80.027747,24.5412253 79.7755731,24.7767984 79.2724111,24.7767984 L74.7075889,24.7767984 C74.4396047,24.7767984 74.2546245,24.7044664 74.1526482,24.5598024 C74.0510672,24.4151383 74.0004743,24.2625692 74.0004743,24.1016996 L74.0004743,6.39023715 L71.7981028,7.48312253 C71.7447431,7.5044664 71.6913834,7.51237154 71.6376285,7.5072332 C71.5838735,7.5016996 71.5467194,7.52067194 71.5249802,7.56335968 C71.3214229,7.56335968 71.1637154,7.48865613 71.0510672,7.3384585 C70.9388142,7.18826087 70.8822925,7.01158103 70.8822925,6.80802372 L70.8822925,3.35229249 Z" id="Fill-8" fill="#18AEC4"></path>
            <path d="M88.6302372,16.9816996 C88.6302372,17.4105534 88.6942688,17.806996 88.8227273,18.1714229 C88.951581,18.5358498 89.1333992,18.8516601 89.3693676,19.119249 C89.6049407,19.3872332 89.8891304,19.5963241 90.2211462,19.7461265 C90.5531621,19.8963241 90.9282609,19.9710277 91.3464427,19.9710277 C91.7642292,19.9710277 92.1420949,19.8963241 92.479249,19.7461265 C92.8171937,19.5963241 93.1009881,19.3872332 93.3314229,19.119249 C93.5618577,18.8516601 93.7413043,18.5358498 93.8697628,18.1714229 C93.9982213,17.806996 94.0626482,17.4105534 94.0626482,16.9816996 C94.0626482,16.563913 93.9982213,16.173004 93.8697628,15.8085771 C93.7413043,15.4441502 93.5618577,15.1255731 93.3314229,14.8520553 C93.1009881,14.5789328 92.8171937,14.3619368 92.479249,14.2014625 C92.1420949,14.0405929 91.7642292,13.9599605 91.3464427,13.9599605 C90.9282609,13.9599605 90.5531621,14.0405929 90.2211462,14.2014625 C89.8891304,14.3619368 89.6049407,14.5789328 89.3693676,14.8520553 C89.1333992,15.1255731 88.951581,15.4441502 88.8227273,15.8085771 C88.6942688,16.173004 88.6302372,16.563913 88.6302372,16.9816996 M83.0693676,17.8979051 C83.0476285,17.7156917 83.0314229,17.5311067 83.0211462,17.3433597 C83.0100791,17.1560079 83.0049407,16.9714229 83.0049407,16.7892095 C83.0049407,15.374585 83.3476285,14.0674704 84.0333992,12.8674704 C84.0436759,12.8564032 84.0626482,12.8299209 84.0899209,12.7868379 C84.1164032,12.7441502 84.191502,12.6156917 84.3148221,12.4010672 C84.437747,12.1868379 84.6282609,11.8520553 84.8851779,11.3967194 C85.1424901,10.9413834 85.5041502,10.2986957 85.9701581,9.46786561 C86.436166,8.63782609 87.0250988,7.58525692 87.7381423,6.30976285 C88.4507905,5.03466403 89.3266798,3.47023715 90.3662055,1.61648221 C90.4835968,1.39158103 90.6231225,1.21727273 90.7835968,1.09434783 C90.9444664,0.971027668 91.1586957,0.909367589 91.4266798,0.909367589 L95.9911067,0.909367589 C96.4092885,0.909367589 96.6179842,1.03268775 96.6179842,1.27893281 C96.6179842,1.32201581 96.6073123,1.39395257 96.5859684,1.49592885 C96.5642292,1.59790514 96.5432806,1.65916996 96.5219368,1.68090909 C96.1468379,2.34533597 95.8171937,2.92636364 95.5333992,3.42478261 C95.2492095,3.92280632 94.9922925,4.37300395 94.7618577,4.77458498 C94.5314229,5.17656126 94.322332,5.5441502 94.1349802,5.87577075 C93.9472332,6.20778656 93.7650198,6.52952569 93.5883399,6.84019763 C93.4116601,7.15086957 93.2322134,7.4698419 93.0503953,7.79632411 C92.8677866,8.12359684 92.6697628,8.47932806 92.4555336,8.86509881 C93.4839921,8.98328063 94.448419,9.2698419 95.348419,9.72517787 C96.248419,10.1805138 97.0306324,10.7670751 97.6950593,11.4852569 C98.3590909,12.2030435 98.8816206,13.0255731 99.2618577,13.9520553 C99.6420949,14.8793281 99.8326087,15.8726087 99.8326087,16.9334783 C99.8326087,18.0694466 99.6128458,19.1326877 99.1737154,20.1239921 C98.7337945,21.1152964 98.1341897,21.9781423 97.3733202,22.7117391 C96.6124506,23.4457312 95.7203557,24.0239921 94.6978261,24.4477075 C93.6741107,24.8706324 92.5784585,25.0820949 91.4104743,25.0820949 C90.3282609,25.0820949 89.3077075,24.9081818 88.3488142,24.5599605 C87.3895257,24.2117391 86.5349802,23.7216206 85.7855731,23.0892095 C85.0349802,22.4575889 84.4219368,21.6990909 83.9448617,20.8149012 C83.4677866,19.9311067 83.176087,18.9587747 83.0693676,17.8979051" id="Fill-10" fill="#18AEC4"></path>
            <path d="M1.98335968,39.2279842 C1.98335968,39.4706719 2.02090909,39.6971542 2.09600791,39.9086166 C2.17150198,40.1200791 2.2786166,40.3022925 2.41853755,40.4568379 C2.55766798,40.6109881 2.72604743,40.7331225 2.92249012,40.8228458 C3.11893281,40.9133597 3.33671937,40.9580237 3.57545455,40.9580237 C3.81023715,40.9580237 4.03158103,40.9157312 4.23909091,40.8315415 C4.44660079,40.7469565 4.62762846,40.6303557 4.78177866,40.4813439 C4.93592885,40.3327273 5.06003953,40.1572332 5.15371542,39.9552569 C5.2473913,39.7532806 5.29996047,39.5366798 5.31063241,39.3054545 L5.31063241,39.2279842 C5.31063241,38.9932016 5.26675889,38.7690909 5.1786166,38.5560474 C5.09047431,38.3433992 4.96833992,38.1560474 4.81221344,37.9939921 C4.65608696,37.832332 4.47229249,37.704664 4.2612253,37.6113834 C4.0501581,37.5173123 3.82130435,37.4706719 3.57545455,37.4706719 C3.33671937,37.4706719 3.11893281,37.5173123 2.92249012,37.6113834 C2.72604743,37.704664 2.55766798,37.832332 2.41853755,37.9939921 C2.2786166,38.1560474 2.17150198,38.3433992 2.09600791,38.5560474 C2.02090909,38.7690909 1.98335968,38.9932016 1.98335968,39.2279842 L1.98335968,39.2279842 Z M5.15134387,41.8667194 C5.05173913,41.9663241 4.94264822,42.0726482 4.82328063,42.1868775 C4.70391304,42.3003162 4.57268775,42.4070356 4.42920949,42.5062451 C4.28612648,42.6054545 4.13197628,42.6872727 3.96675889,42.7513043 C3.80114625,42.8157312 3.62288538,42.847747 3.43197628,42.847747 C2.93237154,42.847747 2.47229249,42.7540711 2.05213439,42.5667194 C1.63158103,42.3793676 1.26992095,42.1232411 0.966758893,41.7983399 C0.663992095,41.4730435 0.427233202,41.0900395 0.256086957,40.6493281 C0.0853359684,40.2086166 -3.95256917e-05,39.7347036 -3.95256917e-05,39.2279842 C-3.95256917e-05,38.7177075 0.0853359684,38.243004 0.256086957,37.8042688 C0.427233202,37.3651383 0.663992095,36.9833202 0.966758893,36.6580237 C1.26992095,36.3327273 1.63158103,36.0777866 2.05213439,35.8924111 C2.47229249,35.7066403 2.93237154,35.6141502 3.43197628,35.6141502 C3.63395257,35.6141502 3.81853755,35.6433992 3.98573123,35.7022925 C4.1529249,35.7611858 4.30549407,35.8366798 4.44304348,35.9279842 C4.58059289,36.0196838 4.70747036,36.1236364 4.82328063,36.2394466 C4.93869565,36.3552569 5.04818182,36.4679051 5.15134387,36.5781818 L5.15134387,34.0607905 C5.15134387,33.943004 5.18652174,33.8437945 5.2584585,33.7627668 C5.33,33.6825296 5.43750988,33.6422134 5.58059289,33.6422134 L6.82011858,33.6422134 C6.86794466,33.6422134 6.91853755,33.6520949 6.97189723,33.672253 C7.02486166,33.6924111 7.07387352,33.7208696 7.11774704,33.7576285 C7.16201581,33.7943874 7.19798419,33.8382609 7.22525692,33.8900395 C7.25252964,33.9414229 7.26675889,33.9983399 7.26675889,34.0607905 L7.26675889,42.2967589 C7.26675889,42.5793676 7.11774704,42.7208696 6.82011858,42.7208696 L5.74067194,42.7208696 C5.66675889,42.7208696 5.61023715,42.7117787 5.56992095,42.6935968 C5.52920949,42.6750198 5.49521739,42.6485375 5.46794466,42.6133597 C5.43988142,42.5785771 5.41537549,42.5343083 5.39324111,42.4813439 C5.37150198,42.4279842 5.34383399,42.3663241 5.31063241,42.2967589 L5.15134387,41.8667194 Z" id="Fill-13" fill="#146975"></path>
            <path d="M10.8194862,39.2279842 C10.8194862,39.4706719 10.8570356,39.6971542 10.9321344,39.9086166 C11.0076285,40.1200791 11.1151383,40.3022925 11.254664,40.4568379 C11.394585,40.6109881 11.5625692,40.7331225 11.7590119,40.8228458 C11.9550593,40.9133597 12.1728458,40.9580237 12.411581,40.9580237 C12.6578261,40.9580237 12.8862846,40.9133597 13.0973518,40.8228458 C13.3088142,40.7331225 13.4922134,40.6109881 13.6483399,40.4568379 C13.8044664,40.3022925 13.9266008,40.1200791 14.0147431,39.9086166 C14.1028854,39.6971542 14.1467589,39.4706719 14.1467589,39.2279842 C14.1467589,38.9932016 14.1028854,38.7690909 14.0147431,38.5560474 C13.9266008,38.3433992 13.8044664,38.1560474 13.6483399,37.9939921 C13.4922134,37.832332 13.3088142,37.704664 13.0973518,37.6113834 C12.8862846,37.5173123 12.6578261,37.4706719 12.411581,37.4706719 C12.1728458,37.4706719 11.9550593,37.5173123 11.7590119,37.6113834 C11.5625692,37.704664 11.394585,37.832332 11.254664,37.9939921 C11.1151383,38.1560474 11.0076285,38.3433992 10.9321344,38.5560474 C10.8570356,38.7690909 10.8194862,38.9932016 10.8194862,39.2279842 L10.8194862,39.2279842 Z M16.2459684,42.3133597 C16.2459684,42.3758103 16.2349012,42.4350988 16.2127668,42.4924111 C16.1910277,42.5493281 16.1538735,42.5939921 16.1028854,42.6275889 C16.0621739,42.6679051 16.0147431,42.6935968 15.9594071,42.7042688 C15.9044664,42.715336 15.8566403,42.7208696 15.8163241,42.7208696 L14.7309486,42.7208696 C14.6538735,42.7208696 14.5910277,42.7109881 14.5435968,42.69083 C14.4957708,42.6706719 14.4574308,42.6418182 14.4281818,42.6054545 C14.3985375,42.5686957 14.3736364,42.5236364 14.3534783,42.4702767 C14.3333202,42.4173123 14.3123715,42.3592095 14.2902372,42.2967589 L14.1301581,41.8833202 C14.0313439,41.9829249 13.9230435,42.0884585 13.8056522,42.2003162 C13.6878656,42.3125692 13.5582213,42.4161265 13.4171146,42.5113834 C13.2760079,42.6074308 13.122253,42.6872727 12.9570356,42.7513043 C12.7918182,42.8157312 12.6155336,42.847747 12.4281818,42.847747 C12.0937945,42.847747 11.7736364,42.8054545 11.466917,42.7208696 C11.1601976,42.6362846 10.8740316,42.5161265 10.6076285,42.36 C10.3412253,42.2038735 10.0997233,42.0165217 9.88272727,41.7983399 C9.66612648,41.5797628 9.47996047,41.3362846 9.32343874,41.0683004 C9.16770751,40.7999209 9.04715415,40.5105929 8.96296443,40.2007115 C8.87837945,39.8904348 8.83608696,39.5659289 8.83608696,39.2279842 C8.83608696,38.7177075 8.9301581,38.243004 9.11750988,37.8042688 C9.30486166,37.3651383 9.55980237,36.9833202 9.88272727,36.6580237 C10.2064427,36.3327273 10.5862846,36.0777866 11.0234387,35.8924111 C11.4605929,35.7066403 11.9285771,35.6141502 12.4281818,35.6141502 C12.6558498,35.6141502 12.865336,35.6481423 13.0562451,35.7161265 C13.2471542,35.7841107 13.4206719,35.8730435 13.5767984,35.9833202 C13.7329249,36.0935968 13.8744269,36.218498 14.0009091,36.3580237 C14.1277866,36.4975494 14.24083,36.6386561 14.3396443,36.7821344 L14.554664,36.115336 C14.5910277,36.0240316 14.6218577,35.9493281 14.6455731,35.8924111 C14.6692885,35.8354941 14.6949802,35.7932016 14.7226482,35.7655336 C14.7503162,35.7382609 14.7843083,35.7196838 14.8246245,35.7105929 C14.865336,35.701502 14.9218577,35.6967589 14.9953755,35.6967589 L15.8163241,35.6967589 C15.8566403,35.6967589 15.9044664,35.7022925 15.9594071,35.7133597 C16.0147431,35.7240316 16.0621739,35.7501186 16.1028854,35.7904348 C16.1538735,35.830751 16.1910277,35.876996 16.2127668,35.9279842 C16.2349012,35.9797628 16.2459684,36.0382609 16.2459684,36.104664 L16.2459684,42.3133597 Z" id="Fill-16" fill="#146975"></path>
            <path d="M19.1703162,34.6335573 C19.1703162,34.5197233 19.2078656,34.4339526 19.2829644,34.3774308 C19.3584585,34.3205138 19.4659684,34.2659684 19.6054941,34.2149802 L20.856087,33.7794071 C20.874664,33.7758498 20.8916601,33.7742688 20.9082609,33.7742688 L20.9549012,33.7742688 C21.0912648,33.7742688 21.1817787,33.8137945 21.2276285,33.8928458 C21.2738735,33.971502 21.2967984,34.0750593 21.2967984,34.2035178 L21.2916601,35.9390909 L22.2114229,35.9390909 C22.3288142,35.9390909 22.4244664,35.9738735 22.4975889,36.043834 C22.5711067,36.1137945 22.6082609,36.2185375 22.6082609,36.3580632 L22.6082609,37.4209091 C22.6082609,37.5754545 22.5711067,37.6881028 22.4975889,37.7600395 C22.4244664,37.831581 22.3288142,37.8675494 22.2114229,37.8675494 L21.2916601,37.8675494 L21.2967984,42.2967984 C21.2967984,42.4363241 21.2564822,42.5418577 21.1754545,42.6133992 C21.0948221,42.6849407 20.9829644,42.7209091 20.8394862,42.7209091 L19.5944269,42.7209091 C19.3118182,42.7209091 19.1703162,42.5794071 19.1703162,42.2967984 L19.1647826,37.8675494 L18.7624111,37.8675494 C18.4798024,37.8675494 18.3383004,37.7189328 18.3383004,37.4209091 L18.3383004,36.3580632 C18.3383004,36.0786166 18.4798024,35.9390909 18.7624111,35.9390909 L19.1647826,35.9390909 L19.1703162,34.6335573 Z" id="Fill-18" fill="#146975"></path>
            <path d="M26.1608696,39.2279842 C26.1608696,39.4706719 26.198419,39.6971542 26.2735178,39.9086166 C26.3490119,40.1200791 26.4565217,40.3022925 26.5960474,40.4568379 C26.7359684,40.6109881 26.9039526,40.7331225 27.1003953,40.8228458 C27.2964427,40.9133597 27.5142292,40.9580237 27.7529644,40.9580237 C27.9992095,40.9580237 28.227668,40.9133597 28.4387352,40.8228458 C28.6501976,40.7331225 28.8335968,40.6109881 28.9897233,40.4568379 C29.1458498,40.3022925 29.2679842,40.1200791 29.3561265,39.9086166 C29.4442688,39.6971542 29.4881423,39.4706719 29.4881423,39.2279842 C29.4881423,38.9932016 29.4442688,38.7690909 29.3561265,38.5560474 C29.2679842,38.3433992 29.1458498,38.1560474 28.9897233,37.9939921 C28.8335968,37.832332 28.6501976,37.704664 28.4387352,37.6113834 C28.227668,37.5173123 27.9992095,37.4706719 27.7529644,37.4706719 C27.5142292,37.4706719 27.2964427,37.5173123 27.1003953,37.6113834 C26.9039526,37.704664 26.7359684,37.832332 26.5960474,37.9939921 C26.4565217,38.1560474 26.3490119,38.3433992 26.2735178,38.5560474 C26.198419,38.7690909 26.1608696,38.9932016 26.1608696,39.2279842 L26.1608696,39.2279842 Z M31.5873518,42.3133597 C31.5873518,42.3758103 31.5762846,42.4350988 31.5541502,42.4924111 C31.5324111,42.5493281 31.4952569,42.5939921 31.4442688,42.6275889 C31.4035573,42.6679051 31.3561265,42.6935968 31.3007905,42.7042688 C31.2458498,42.715336 31.1980237,42.7208696 31.1577075,42.7208696 L30.072332,42.7208696 C29.9956522,42.7208696 29.9324111,42.7109881 29.8849802,42.69083 C29.8371542,42.6706719 29.7988142,42.6418182 29.7695652,42.6054545 C29.7399209,42.5686957 29.7150198,42.5236364 29.6948617,42.4702767 C29.6747036,42.4173123 29.6537549,42.3592095 29.6316206,42.2967589 L29.4715415,41.8833202 C29.3727273,41.9829249 29.2644269,42.0884585 29.1470356,42.2003162 C29.029249,42.3125692 28.8996047,42.4161265 28.758498,42.5113834 C28.6173913,42.6074308 28.4636364,42.6872727 28.298419,42.7513043 C28.1332016,42.8157312 27.956917,42.847747 27.7695652,42.847747 C27.4351779,42.847747 27.1150198,42.8054545 26.8083004,42.7208696 C26.501581,42.6362846 26.215415,42.5161265 25.9490119,42.36 C25.6826087,42.2038735 25.4411067,42.0165217 25.2241107,41.7983399 C25.0075099,41.5797628 24.8213439,41.3362846 24.6648221,41.0683004 C24.5090909,40.7999209 24.3885375,40.5105929 24.3043478,40.2007115 C24.2197628,39.8904348 24.1774704,39.5659289 24.1774704,39.2279842 C24.1774704,38.7177075 24.2715415,38.243004 24.4588933,37.8042688 C24.6462451,37.3651383 24.9011858,36.9833202 25.2241107,36.6580237 C25.5478261,36.3327273 25.927668,36.0777866 26.3648221,35.8924111 C26.8019763,35.7066403 27.2699605,35.6141502 27.7695652,35.6141502 C27.9972332,35.6141502 28.2067194,35.6481423 28.3976285,35.7161265 C28.5885375,35.7841107 28.7620553,35.8730435 28.9181818,35.9833202 C29.0743083,36.0935968 29.2158103,36.218498 29.3422925,36.3580237 C29.46917,36.4975494 29.5822134,36.6386561 29.6810277,36.7821344 L29.8960474,36.115336 C29.9324111,36.0240316 29.9632411,35.9493281 29.9869565,35.8924111 C30.0106719,35.8354941 30.0363636,35.7932016 30.0640316,35.7655336 C30.0916996,35.7382609 30.1256917,35.7196838 30.1660079,35.7105929 C30.2067194,35.701502 30.2632411,35.6967589 30.3367589,35.6967589 L31.1577075,35.6967589 C31.1980237,35.6967589 31.2458498,35.7022925 31.3007905,35.7133597 C31.3561265,35.7240316 31.4035573,35.7501186 31.4442688,35.7904348 C31.4952569,35.830751 31.5324111,35.876996 31.5541502,35.9279842 C31.5762846,35.9797628 31.5873518,36.0382609 31.5873518,36.104664 L31.5873518,42.3133597 Z" id="Fill-20" fill="#146975"></path>
            <path d="M39.9574704,36.1540316 C39.9574704,36.0362451 39.9906719,35.9358498 40.0566798,35.8512648 C40.1226877,35.7662846 40.2258498,35.7239921 40.3653755,35.7239921 L41.6270356,35.7239921 C41.6709091,35.7239921 41.7183399,35.734664 41.7701186,35.7548221 C41.821502,35.7749802 41.8689328,35.8042292 41.9135968,35.8425692 C41.9574704,35.8813043 41.9946245,35.9263636 42.0262451,35.977747 C42.0570751,36.0291304 42.0728854,36.0880237 42.0728854,36.1540316 L42.0728854,42.2967194 C42.0728854,42.4366403 42.0345455,42.5421739 41.9574704,42.6133202 C41.8803953,42.6852569 41.7701186,42.72083 41.6270356,42.72083 L40.3653755,42.72083 C40.0934387,42.72083 39.9574704,42.5797233 39.9574704,42.2967194 L39.9574704,36.1540316 Z M39.9574704,33.3666798 C39.9574704,33.2121344 39.9906719,33.1030435 40.0566798,33.0386166 C40.1226877,32.974585 40.2258498,32.9421739 40.3653755,32.9421739 L41.6436364,32.9421739 C41.7720949,32.9421739 41.8756522,32.974585 41.9547036,33.0386166 C42.0333597,33.1030435 42.0728854,33.2121344 42.0728854,33.3666798 L42.0728854,34.4405929 C42.0728854,34.4848617 42.063004,34.5322925 42.0428458,34.5840711 C42.0226877,34.6354545 41.993834,34.6852569 41.9574704,34.7326877 C41.9207115,34.7805138 41.8756522,34.8200395 41.8222925,34.8512648 C41.7693281,34.8824901 41.7096443,34.8979051 41.6436364,34.8979051 L40.3653755,34.8979051 C40.0934387,34.8979051 39.9574704,34.7457312 39.9574704,34.4405929 L39.9574704,33.3666798 Z" id="Fill-22" fill="#146975"></path>
            <path d="M44.3085771,35.8228458 C44.3564032,35.7825296 44.406996,35.7568379 44.4603557,35.7457708 C44.5137154,35.7347036 44.563913,35.7295652 44.6121344,35.7295652 L45.4433597,35.7295652 C45.5097628,35.7295652 45.5666798,35.7410277 45.6141107,35.7651383 C45.662332,35.7888538 45.7026482,35.8212648 45.7354545,35.861581 C45.7686561,35.9018972 45.7951383,35.9473518 45.8152964,35.9987352 C45.8354545,36.0501186 45.8548221,36.103083 45.8733992,36.1580237 L46.0441502,36.8611858 C46.0994862,36.747747 46.1793281,36.618498 46.2840711,36.473834 C46.3888142,36.32917 46.5216206,36.1939921 46.6832806,36.0675099 C46.8445455,35.9410277 47.0366403,35.8350988 47.2587747,35.7485375 C47.4813043,35.6623715 47.7390119,35.6196838 48.0326877,35.6196838 C48.4516601,35.6196838 48.831502,35.7003162 49.1733992,35.861581 C49.5149012,36.0228458 49.8058103,36.2422134 50.0465217,36.5204743 C50.2868379,36.7991304 50.4733992,37.1240316 50.605415,37.4963636 C50.7382213,37.8686957 50.8042292,38.2659289 50.8042292,38.6880632 L50.8042292,42.2967589 C50.8042292,42.4362846 50.7733992,42.5422134 50.7129249,42.6133597 C50.6528458,42.6849012 50.5560079,42.7208696 50.4239921,42.7208696 L49.1512648,42.7208696 C48.9931621,42.7208696 48.8848617,42.6943874 48.8263636,42.6410277 C48.7674704,42.5880632 48.7382213,42.4841107 48.7382213,42.3295652 L48.7382213,38.7433992 C48.7382213,38.5852964 48.702253,38.4358893 48.6307115,38.2943874 C48.5587747,38.1532806 48.4643083,38.0283794 48.346917,37.9196838 C48.2295257,37.8113834 48.0963241,37.7260079 47.9473123,37.6635573 C47.7986957,37.6011067 47.6473123,37.5698814 47.4927668,37.5698814 C47.360751,37.5698814 47.2259684,37.5991304 47.0880237,37.6580237 C46.9500791,37.716917 46.8235968,37.7987352 46.7081818,37.9034783 C46.5923715,38.0082213 46.4951383,38.130751 46.416087,38.272253 C46.3370356,38.4137549 46.2919763,38.5667194 46.2809091,38.732332 L46.2809091,42.3133597 C46.2809091,42.3758103 46.2690514,42.4382609 46.245336,42.5007115 C46.2216206,42.5631621 46.1856522,42.6109881 46.1378261,42.6437945 C46.09,42.6734387 46.0449407,42.6935968 46.0026482,42.7042688 C45.9603557,42.715336 45.9121344,42.7208696 45.8567984,42.7208696 L44.6121344,42.7208696 C44.4536364,42.7208696 44.3398024,42.6821344 44.2702372,42.6054545 C44.2002767,42.5279842 44.1654941,42.4252174 44.1654941,42.2967589 L44.1654941,36.1358893 C44.1654941,36.0667194 44.1813043,36.0026877 44.2121344,35.9437945 C44.2437549,35.8852964 44.2868379,35.8394466 44.3421739,35.8062451 L44.3085771,35.8228458 Z" id="Fill-24" fill="#146975"></path>
            <path d="M52.8967194,36.1540316 C52.8967194,36.0362451 52.9299209,35.9358498 52.9959289,35.8512648 C53.0619368,35.7662846 53.1650988,35.7239921 53.3046245,35.7239921 L54.5662846,35.7239921 C54.6101581,35.7239921 54.6575889,35.734664 54.7093676,35.7548221 C54.760751,35.7749802 54.8081818,35.8042292 54.8528458,35.8425692 C54.8967194,35.8813043 54.9338735,35.9263636 54.9654941,35.977747 C54.9963241,36.0291304 55.0121344,36.0880237 55.0121344,36.1540316 L55.0121344,42.2967194 C55.0121344,42.4366403 54.9737945,42.5421739 54.8967194,42.6133202 C54.8196443,42.6852569 54.7093676,42.72083 54.5662846,42.72083 L53.3046245,42.72083 C53.0322925,42.72083 52.8967194,42.5797233 52.8967194,42.2967194 L52.8967194,36.1540316 Z M52.8967194,33.3666798 C52.8967194,33.2121344 52.9299209,33.1030435 52.9959289,33.0386166 C53.0619368,32.974585 53.1650988,32.9421739 53.3046245,32.9421739 L54.5828854,32.9421739 C54.7113439,32.9421739 54.8149012,32.974585 54.8939526,33.0386166 C54.9726087,33.1030435 55.0121344,33.2121344 55.0121344,33.3666798 L55.0121344,34.4405929 C55.0121344,34.4848617 55.002253,34.5322925 54.9820949,34.5840711 C54.9619368,34.6354545 54.933083,34.6852569 54.8967194,34.7326877 C54.8599605,34.7805138 54.8149012,34.8200395 54.7615415,34.8512648 C54.7085771,34.8824901 54.6488933,34.8979051 54.5828854,34.8979051 L53.3046245,34.8979051 C53.0322925,34.8979051 52.8967194,34.7457312 52.8967194,34.4405929 L52.8967194,33.3666798 Z" id="Fill-26" fill="#146975"></path>
            <path d="M57.4135573,34.6335573 C57.4135573,34.5197233 57.4511067,34.4339526 57.5262055,34.3774308 C57.6016996,34.3205138 57.7092095,34.2659684 57.8487352,34.2149802 L59.0993281,33.7794071 C59.1179051,33.7758498 59.1349012,33.7742688 59.151502,33.7742688 L59.1981423,33.7742688 C59.3345059,33.7742688 59.4250198,33.8137945 59.4708696,33.8928458 C59.5171146,33.971502 59.5400395,34.0750593 59.5400395,34.2035178 L59.5349012,35.9390909 L60.454664,35.9390909 C60.5720553,35.9390909 60.6677075,35.9738735 60.74083,36.043834 C60.8143478,36.1137945 60.851502,36.2185375 60.851502,36.3580632 L60.851502,37.4209091 C60.851502,37.5754545 60.8143478,37.6881028 60.74083,37.7600395 C60.6677075,37.831581 60.5720553,37.8675494 60.454664,37.8675494 L59.5349012,37.8675494 L59.5400395,42.2967984 C59.5400395,42.4363241 59.4997233,42.5418577 59.4186957,42.6133992 C59.3380632,42.6849407 59.2262055,42.7209091 59.0827273,42.7209091 L57.837668,42.7209091 C57.5550593,42.7209091 57.4135573,42.5794071 57.4135573,42.2967984 L57.4080237,37.8675494 L57.0056522,37.8675494 C56.7230435,37.8675494 56.5815415,37.7189328 56.5815415,37.4209091 L56.5815415,36.3580632 C56.5815415,36.0786166 56.7230435,35.9390909 57.0056522,35.9390909 L57.4080237,35.9390909 L57.4135573,34.6335573 Z" id="Fill-28" fill="#146975"></path>
            <path d="M62.420751,36.1540316 C62.420751,36.0362451 62.4539526,35.9358498 62.5199605,35.8512648 C62.5859684,35.7662846 62.6891304,35.7239921 62.8286561,35.7239921 L64.0903162,35.7239921 C64.1341897,35.7239921 64.1816206,35.734664 64.2333992,35.7548221 C64.2847826,35.7749802 64.3322134,35.8042292 64.3768775,35.8425692 C64.420751,35.8813043 64.4579051,35.9263636 64.4895257,35.977747 C64.5203557,36.0291304 64.536166,36.0880237 64.536166,36.1540316 L64.536166,42.2967194 C64.536166,42.4366403 64.4978261,42.5421739 64.420751,42.6133202 C64.3436759,42.6852569 64.2333992,42.72083 64.0903162,42.72083 L62.8286561,42.72083 C62.5563241,42.72083 62.420751,42.5797233 62.420751,42.2967194 L62.420751,36.1540316 Z M62.420751,33.3666798 C62.420751,33.2121344 62.4539526,33.1030435 62.5199605,33.0386166 C62.5859684,32.974585 62.6891304,32.9421739 62.8286561,32.9421739 L64.106917,32.9421739 C64.2353755,32.9421739 64.3389328,32.974585 64.4179842,33.0386166 C64.4966403,33.1030435 64.536166,33.2121344 64.536166,33.3666798 L64.536166,34.4405929 C64.536166,34.4848617 64.5262846,34.5322925 64.5061265,34.5840711 C64.4859684,34.6354545 64.4571146,34.6852569 64.420751,34.7326877 C64.3839921,34.7805138 64.3389328,34.8200395 64.2855731,34.8512648 C64.2326087,34.8824901 64.1729249,34.8979051 64.106917,34.8979051 L62.8286561,34.8979051 C62.5563241,34.8979051 62.420751,34.7457312 62.420751,34.4405929 L62.420751,33.3666798 Z" id="Fill-30" fill="#146975"></path>
            <path d="M68.0890514,39.2279842 C68.0890514,39.4706719 68.1266008,39.6971542 68.2016996,39.9086166 C68.2771937,40.1200791 68.3847036,40.3022925 68.5242292,40.4568379 C68.6641502,40.6109881 68.8321344,40.7331225 69.0285771,40.8228458 C69.2246245,40.9133597 69.4424111,40.9580237 69.6811462,40.9580237 C69.9273913,40.9580237 70.1558498,40.9133597 70.366917,40.8228458 C70.5783794,40.7331225 70.7617787,40.6109881 70.9179051,40.4568379 C71.0740316,40.3022925 71.196166,40.1200791 71.2843083,39.9086166 C71.3724506,39.6971542 71.4163241,39.4706719 71.4163241,39.2279842 C71.4163241,38.9932016 71.3724506,38.7690909 71.2843083,38.5560474 C71.196166,38.3433992 71.0740316,38.1560474 70.9179051,37.9939921 C70.7617787,37.832332 70.5783794,37.704664 70.366917,37.6113834 C70.1558498,37.5173123 69.9273913,37.4706719 69.6811462,37.4706719 C69.4424111,37.4706719 69.2246245,37.5173123 69.0285771,37.6113834 C68.8321344,37.704664 68.6641502,37.832332 68.5242292,37.9939921 C68.3847036,38.1560474 68.2771937,38.3433992 68.2016996,38.5560474 C68.1266008,38.7690909 68.0890514,38.9932016 68.0890514,39.2279842 L68.0890514,39.2279842 Z M73.5155336,42.3133597 C73.5155336,42.3758103 73.5044664,42.4350988 73.482332,42.4924111 C73.4605929,42.5493281 73.4234387,42.5939921 73.3724506,42.6275889 C73.3317391,42.6679051 73.2843083,42.6935968 73.2289723,42.7042688 C73.1740316,42.715336 73.1262055,42.7208696 73.0858893,42.7208696 L72.0005138,42.7208696 C71.923834,42.7208696 71.8605929,42.7109881 71.8131621,42.69083 C71.765336,42.6706719 71.726996,42.6418182 71.697747,42.6054545 C71.6681028,42.5686957 71.6432016,42.5236364 71.6230435,42.4702767 C71.6028854,42.4173123 71.5819368,42.3592095 71.5598024,42.2967589 L71.3997233,41.8833202 C71.3009091,41.9829249 71.1926087,42.0884585 71.0752174,42.2003162 C70.9574308,42.3125692 70.8277866,42.4161265 70.6866798,42.5113834 C70.5455731,42.6074308 70.3918182,42.6872727 70.2266008,42.7513043 C70.0613834,42.8157312 69.8850988,42.847747 69.697747,42.847747 C69.3633597,42.847747 69.0432016,42.8054545 68.7364822,42.7208696 C68.4297628,42.6362846 68.1435968,42.5161265 67.8771937,42.36 C67.6107905,42.2038735 67.3692885,42.0165217 67.1522925,41.7983399 C66.9356917,41.5797628 66.7495257,41.3362846 66.593004,41.0683004 C66.4372727,40.7999209 66.3167194,40.5105929 66.2325296,40.2007115 C66.1479447,39.8904348 66.1056522,39.5659289 66.1056522,39.2279842 C66.1056522,38.7177075 66.1997233,38.243004 66.3870751,37.8042688 C66.5744269,37.3651383 66.8293676,36.9833202 67.1522925,36.6580237 C67.4760079,36.3327273 67.8558498,36.0777866 68.293004,35.8924111 C68.7301581,35.7066403 69.1981423,35.6141502 69.697747,35.6141502 C69.925415,35.6141502 70.1349012,35.6481423 70.3258103,35.7161265 C70.5167194,35.7841107 70.6902372,35.8730435 70.8463636,35.9833202 C71.0024901,36.0935968 71.1439921,36.218498 71.2704743,36.3580237 C71.3973518,36.4975494 71.5103953,36.6386561 71.6092095,36.7821344 L71.8242292,36.115336 C71.8605929,36.0240316 71.8914229,35.9493281 71.9151383,35.8924111 C71.9388538,35.8354941 71.9645455,35.7932016 71.9922134,35.7655336 C72.0198814,35.7382609 72.0538735,35.7196838 72.0941897,35.7105929 C72.1349012,35.701502 72.1914229,35.6967589 72.2649407,35.6967589 L73.0858893,35.6967589 C73.1262055,35.6967589 73.1740316,35.7022925 73.2289723,35.7133597 C73.2843083,35.7240316 73.3317391,35.7501186 73.3724506,35.7904348 C73.4234387,35.830751 73.4605929,35.876996 73.482332,35.9279842 C73.5044664,35.9797628 73.5155336,36.0382609 73.5155336,36.104664 L73.5155336,42.3133597 Z" id="Fill-32" fill="#146975"></path>
            <path d="M75.9167589,34.6335573 C75.9167589,34.5197233 75.9543083,34.4339526 76.0294071,34.3774308 C76.1049012,34.3205138 76.2124111,34.2659684 76.3519368,34.2149802 L77.6025296,33.7794071 C77.6211067,33.7758498 77.6381028,33.7742688 77.6547036,33.7742688 L77.7013439,33.7742688 C77.8377075,33.7742688 77.9282213,33.8137945 77.9740711,33.8928458 C78.0203162,33.971502 78.0432411,34.0750593 78.0432411,34.2035178 L78.0381028,35.9390909 L78.9578656,35.9390909 C79.0752569,35.9390909 79.1709091,35.9738735 79.2440316,36.043834 C79.3175494,36.1137945 79.3547036,36.2185375 79.3547036,36.3580632 L79.3547036,37.4209091 C79.3547036,37.5754545 79.3175494,37.6881028 79.2440316,37.7600395 C79.1709091,37.831581 79.0752569,37.8675494 78.9578656,37.8675494 L78.0381028,37.8675494 L78.0432411,42.2967984 C78.0432411,42.4363241 78.0029249,42.5418577 77.9218972,42.6133992 C77.8412648,42.6849407 77.7294071,42.7209091 77.5859289,42.7209091 L76.3408696,42.7209091 C76.0582609,42.7209091 75.9167589,42.5794071 75.9167589,42.2967984 L75.9112253,37.8675494 L75.5088538,37.8675494 C75.2262451,37.8675494 75.0847431,37.7189328 75.0847431,37.4209091 L75.0847431,36.3580632 C75.0847431,36.0786166 75.2262451,35.9390909 75.5088538,35.9390909 L75.9112253,35.9390909 L75.9167589,34.6335573 Z" id="Fill-34" fill="#146975"></path>
            <path d="M80.923913,36.1540316 C80.923913,36.0362451 80.9571146,35.9358498 81.0231225,35.8512648 C81.0891304,35.7662846 81.1922925,35.7239921 81.3318182,35.7239921 L82.5934783,35.7239921 C82.6373518,35.7239921 82.6847826,35.734664 82.7365613,35.7548221 C82.7879447,35.7749802 82.8353755,35.8042292 82.8800395,35.8425692 C82.923913,35.8813043 82.9610672,35.9263636 82.9926877,35.977747 C83.0235178,36.0291304 83.0393281,36.0880237 83.0393281,36.1540316 L83.0393281,42.2967194 C83.0393281,42.4366403 83.0009881,42.5421739 82.923913,42.6133202 C82.8468379,42.6852569 82.7365613,42.72083 82.5934783,42.72083 L81.3318182,42.72083 C81.0594862,42.72083 80.923913,42.5797233 80.923913,42.2967194 L80.923913,36.1540316 Z M80.923913,33.3666798 C80.923913,33.2121344 80.9571146,33.1030435 81.0231225,33.0386166 C81.0891304,32.974585 81.1922925,32.9421739 81.3318182,32.9421739 L82.6100791,32.9421739 C82.7385375,32.9421739 82.8420949,32.974585 82.9211462,33.0386166 C82.9998024,33.1030435 83.0393281,33.2121344 83.0393281,33.3666798 L83.0393281,34.4405929 C83.0393281,34.4848617 83.0294466,34.5322925 83.0092885,34.5840711 C82.9891304,34.6354545 82.9602767,34.6852569 82.923913,34.7326877 C82.8871542,34.7805138 82.8420949,34.8200395 82.7887352,34.8512648 C82.7357708,34.8824901 82.676087,34.8979051 82.6100791,34.8979051 L81.3318182,34.8979051 C81.0594862,34.8979051 80.923913,34.7457312 80.923913,34.4405929 L80.923913,33.3666798 Z" id="Fill-36" fill="#146975"></path>
            <path d="M84.6768775,36.2696443 C84.6029644,36.1194466 84.5895257,35.9909881 84.6353755,35.8842688 C84.6812253,35.7775494 84.7903162,35.7241897 84.9634387,35.7241897 L86.3733202,35.7241897 C86.4689723,35.7241897 86.5527668,35.7498814 86.6243083,35.8016601 C86.6958498,35.8530435 86.7460474,35.9265613 86.7756917,36.0218182 C86.837747,36.2162846 86.906917,36.4348617 86.9820158,36.6775494 C87.0575099,36.9198419 87.1365613,37.1688538 87.21917,37.4237945 C87.3017787,37.6791304 87.3835968,37.9328854 87.4642292,38.1842688 C87.5448617,38.4360474 87.6195652,38.6672727 87.6875494,38.8783399 C87.7551383,39.0894071 87.8160079,39.2732016 87.8693676,39.4293281 C87.922332,39.5854545 87.9618577,39.6965217 87.9875494,39.7625296 L89.1555336,36.0218182 C89.2033597,35.9044269 89.2575099,35.8253755 89.3179842,35.7850593 C89.3788538,35.7447431 89.4642292,35.7241897 89.5741107,35.7241897 L91.0235178,35.7241897 C91.1298419,35.7241897 91.2108696,35.7372332 91.265415,35.7629249 C91.320751,35.7886166 91.3575099,35.8237945 91.376087,35.867668 C91.3938735,35.9115415 91.3978261,35.9621344 91.3867589,36.0190514 C91.376087,36.0759684 91.3575099,36.1360474 91.3314229,36.1981028 L88.7092885,42.4838735 C88.6689723,42.5502767 88.6215415,42.6060079 88.5662055,42.6518577 C88.5108696,42.6981028 88.4286561,42.7210277 88.3179842,42.7210277 L87.6626482,42.7210277 C87.5156126,42.7210277 87.4120553,42.7000791 87.351581,42.6577866 C87.2907115,42.6154941 87.2456522,42.5573913 87.2167984,42.4838735 L84.6768775,36.2696443 Z" id="Fill-38" fill="#146975"></path>
            <path d="M95.8764427,37.294585 C95.7333597,37.294585 95.5942292,37.3226482 95.4606324,37.3799605 C95.3266403,37.4368775 95.2009486,37.5127668 95.0831621,37.608419 C94.9653755,37.7040711 94.8598419,37.8123715 94.7665613,37.9337154 C94.6724901,38.054664 94.5966008,38.1775889 94.5377075,38.3024901 L97.3531225,38.3024901 C97.2756522,38.1594071 97.192253,38.026996 97.1025296,37.9060474 C97.0120158,37.7847036 96.909249,37.6779842 96.793834,37.5862846 C96.6780237,37.4949802 96.5460079,37.4230435 96.396996,37.3716601 C96.2483794,37.3202767 96.0744664,37.294585 95.8764427,37.294585 M98.5266403,41.8835178 C98.2029249,42.1811462 97.8396838,42.4135573 97.4357312,42.5803557 C97.0313834,42.7475494 96.6037154,42.8309486 96.1519368,42.8309486 C95.6487747,42.8309486 95.1728854,42.7396443 94.7250593,42.5558498 C94.2768379,42.3720553 93.8839526,42.1179051 93.5460079,41.7926087 C93.2080632,41.4677075 92.9400791,41.0847036 92.7416601,40.6439921 C92.5436364,40.2032806 92.4444269,39.723834 92.4444269,39.2060474 C92.4444269,38.8831225 92.4839526,38.5696838 92.5626087,38.266917 C92.6416601,37.9637549 92.753913,37.6799605 92.8989723,37.4159289 C93.0436364,37.1511067 93.2203162,36.9076285 93.4278261,36.6858893 C93.635336,36.4633597 93.8673518,36.2732411 94.124664,36.1155336 C94.381581,35.9574308 94.6610277,35.8345059 94.9618182,35.7463636 C95.2633992,35.6582213 95.5807905,35.6143478 95.9151779,35.6143478 C96.2195257,35.6143478 96.5155731,35.654664 96.8017391,35.7352964 C97.0886957,35.8159289 97.3574704,35.9301581 97.609249,36.0771937 C97.8606324,36.223834 98.0910672,36.4001186 98.3005534,36.6056522 C98.5100395,36.811581 98.6898814,37.0364822 98.8404743,37.2803557 C98.9910672,37.5250198 99.107668,37.7854941 99.1902767,38.0629644 C99.2728854,38.3404348 99.3143874,38.6258103 99.3143874,38.9198814 C99.3143874,39.1107905 99.3112253,39.2665217 99.3056917,39.3878656 C99.3005534,39.5092095 99.2716996,39.6056522 99.2207115,39.6771937 C99.1693281,39.7487352 99.0835573,39.7985375 98.964585,39.8258103 C98.8448221,39.853083 98.6697233,39.8673123 98.438498,39.8673123 L94.4716996,39.8673123 C94.5084585,40.1020949 94.5827668,40.2989328 94.6946245,40.4566403 C94.8068775,40.6147431 94.9361265,40.7404348 95.0831621,40.8341107 C95.2301976,40.9277866 95.3863241,40.994585 95.5511462,41.0352964 C95.7167589,41.0756126 95.8728854,41.0957708 96.0199209,41.0957708 C96.1519368,41.0957708 96.2879051,41.0819368 96.4274308,41.0542688 C96.5669565,41.026996 96.7021344,40.9902372 96.8325692,40.9443874 C96.9626087,40.8981423 97.0819763,40.8451779 97.1902767,40.7843083 C97.2985771,40.723834 97.3859289,40.6605929 97.4519368,40.594585 C97.51083,40.5467589 97.5614229,40.5107905 97.6037154,40.4870751 C97.6460079,40.4633597 97.6910672,40.4511067 97.738498,40.4511067 C97.7859289,40.4511067 97.8349407,40.4677075 97.8843478,40.5005138 C97.9341502,40.5337154 97.9898814,40.5815415 98.0527273,40.6439921 L98.6365217,41.3052569 C98.6768379,41.3526877 98.7025296,41.3957708 98.7135968,41.4345059 C98.724664,41.4732411 98.7305929,41.5127668 98.7305929,41.553083 C98.7305929,41.6262055 98.7100395,41.6898419 98.6697233,41.7432016 C98.6294071,41.796166 98.5811858,41.8432016 98.5266403,41.8835178" id="Fill-40" fill="#146975"></path>
        </g>
    </g>
</svg>