<?xml version="1.0" encoding="UTF-8" standalone="no"?>
<svg width="199px" height="30px" viewBox="0 0 199 30" version="1.1" xmlns="http://www.w3.org/2000/svg" xmlns:xlink="http://www.w3.org/1999/xlink">
    <!-- Generator: Sketch 3.8.3 (29802) - http://www.bohemiancoding.com/sketch -->
    <title>logo</title>
    <desc>Created with Sketch.</desc>
    <defs></defs>
    <g id="Page-1" stroke="none" stroke-width="1" fill="none" fill-rule="evenodd">
        <g id="logo">
            <path d="M5.20364062,20.2345312 C5.41926562,20.413125 5.69582812,20.65125 6.03285937,20.949375 C6.36942187,21.2479688 6.75379687,21.54375 7.18598437,21.8357813 C7.83379687,22.2679688 8.47551562,22.605 9.11114062,22.8459375 C9.74629687,23.0878125 10.4133281,23.2082813 11.1122344,23.2082813 C11.7605156,23.2082813 12.3037969,23.1351563 12.7420781,22.989375 C13.1808281,22.843125 13.5267656,22.6495313 13.7808281,22.4085938 C14.0348906,22.1671875 14.2162969,21.8878125 14.3245781,21.5704688 C14.4319219,21.253125 14.4862969,20.9165625 14.4862969,20.5607813 C14.4862969,20.1670313 14.3367656,19.815 14.0381719,19.5042187 C13.7395781,19.1929688 13.3744219,18.916875 12.9422344,18.6759375 C12.5100469,18.4345312 12.0591094,18.2282813 11.5889531,18.0567188 C11.1187969,17.8851563 10.7119219,17.7426562 10.3692656,17.6278125 C8.84442187,17.0953125 7.50989062,16.520625 6.36614062,15.9046875 C5.22285937,15.28875 4.26942187,14.6029687 3.50723437,13.8478125 C2.74457812,13.0926562 2.17317187,12.260625 1.79160937,11.353125 C1.41051562,10.4451563 1.21973437,9.43265625 1.21973437,8.31515625 C1.21973437,7.13484375 1.45832812,6.06140625 1.93457812,5.09671875 C2.41129687,4.1315625 3.09098437,3.3065625 3.97410937,2.62078125 C4.85723437,1.935 5.92129687,1.4053125 7.16676562,1.0303125 C8.41223437,0.65578125 9.80348437,0.46875 11.3409844,0.46875 C12.4973906,0.46875 13.6059844,0.5990625 14.6672344,0.85921875 C15.7280156,1.1203125 16.7737969,1.535625 17.8027031,2.10796875 C18.2348906,2.36203125 18.6445781,2.6259375 19.0322344,2.89921875 C19.4198906,3.1725 19.7597344,3.4359375 20.0522344,3.69 C20.3442656,3.9440625 20.5762969,4.18546875 20.7478594,4.41421875 C20.9194219,4.64296875 21.0052031,4.83984375 21.0052031,5.0053125 C21.0052031,5.1703125 20.9639531,5.32265625 20.8809844,5.46234375 C20.7984844,5.6025 20.6742656,5.76140625 20.5092656,5.9390625 L17.5931719,9.0459375 C17.3770781,9.2625 17.1609844,9.36984375 16.9448906,9.36984375 C16.7667656,9.36984375 16.6050469,9.3196875 16.4592656,9.2175 C16.3130156,9.11578125 16.1508281,8.98875 15.9731719,8.83640625 L15.8016094,8.68359375 C15.5470781,8.4675 15.2644219,8.2453125 14.9531719,8.01703125 C14.6419219,7.7878125 14.3081719,7.5815625 13.9528594,7.396875 C13.5966094,7.213125 13.2216094,7.06078125 12.8278594,6.93984375 C12.4341094,6.819375 12.0337969,6.75890625 11.6273906,6.75890625 C11.2078594,6.75890625 10.8136406,6.79359375 10.4452031,6.86390625 C10.0767656,6.93328125 9.75285937,7.044375 9.47301562,7.1971875 C9.19364062,7.34953125 8.97098437,7.5496875 8.80598437,7.79765625 C8.64098437,8.04515625 8.55848437,8.3475 8.55848437,8.7028125 C8.55848437,9.05859375 8.64707812,9.36703125 8.82520312,9.6271875 C9.00285937,9.88828125 9.26957812,10.1292188 9.62582812,10.351875 C9.98114062,10.5745312 10.4231719,10.7840625 10.9505156,10.9809375 C11.4773906,11.1778125 12.0909844,11.390625 12.7898906,11.619375 C14.1366094,12.0642188 15.3787969,12.5310938 16.5164531,13.02 C17.6536406,13.509375 18.6347344,14.0878125 19.4611406,14.7548438 C20.2870781,15.421875 20.9316094,16.2196875 21.3956719,17.146875 C21.8597344,18.075 22.0912969,19.1990625 22.0912969,20.5204688 C22.0912969,21.91875 21.8053594,23.18625 21.2339531,24.3234375 C20.6620781,25.460625 19.8773906,26.4295313 18.8798906,27.2301563 C17.8819219,28.0307813 16.7095781,28.65 15.3628594,29.08875 C14.0161406,29.5270313 12.5672344,29.7459375 11.0170781,29.7459375 C9.55598437,29.7459375 8.11973437,29.484375 6.70926562,28.9626563 C5.29879687,28.44 3.98348437,27.7392188 2.76379687,26.8598438 C2.25520312,26.49 1.82629687,26.1267188 1.47707812,25.77 C1.12739062,25.4132813 0.851296875,25.126875 0.647859375,24.9098438 L0.591140625,24.8526563 C0.578015625,24.826875 0.565359375,24.8114062 0.552703125,24.804375 C0.540046875,24.7982813 0.526921875,24.7889063 0.514734375,24.7757813 C0.501609375,24.7504687 0.488953125,24.735 0.476765625,24.7279687 C0.463640625,24.721875 0.450984375,24.7125 0.438328125,24.699375 C0.145828125,24.3810938 4.6875e-05,24.1260937 4.6875e-05,23.9348438 C4.6875e-05,23.7182813 0.145828125,23.4759375 0.438328125,23.2082813 L3.73598437,20.0634375 C4.00270312,19.8726563 4.21879687,19.7770313 4.38379687,19.7770313 C4.49864062,19.7770313 4.61910937,19.815 4.74614062,19.891875 C4.87270312,19.9682813 5.02551562,20.0821875 5.20364062,20.2345312" id="Fill-1" fill="#146975"></path>
            <path d="M34.2233906,7.902375 L34.2233906,22.5601875 L35.8246406,22.5601875 C36.1166719,22.5601875 36.4026094,22.5508125 36.6824531,22.5315938 C36.9618281,22.512375 37.2412031,22.4903438 37.5210469,22.4645625 C38.4740156,22.388625 39.3632344,22.1570625 40.1896406,21.7689375 C41.0151094,21.38175 41.7365156,20.8731563 42.3529219,20.2440938 C42.9688594,19.6150313 43.4516719,18.874875 43.8013594,18.023625 C44.1510469,17.172375 44.3258906,16.2447188 44.3258906,15.2406563 C44.3258906,14.1733125 44.1257344,13.19175 43.7254219,12.2959688 C43.3251094,11.4001875 42.7818281,10.6253438 42.0955781,9.9705 C41.4093281,9.316125 40.6054219,8.808 39.6843281,8.44565625 C38.7627656,8.0833125 37.7812031,7.902375 36.7396406,7.902375 L34.2233906,7.902375 Z M51.6641719,15.259875 C51.6641719,16.6065938 51.4926094,17.8872188 51.1494844,19.1008125 C50.8063594,20.3144063 50.3169844,21.4455 49.6818281,22.493625 C49.0462031,23.54175 48.2868281,24.4919063 47.4041719,25.3431563 C46.5205781,26.1944063 45.5422969,26.918625 44.4683906,27.5162813 C43.3944844,28.1134688 42.2352656,28.57425 40.9902656,28.8976875 C39.7443281,29.2215938 38.4547969,29.3837813 37.1207344,29.3837813 L27.7237031,29.3837813 C27.4949531,29.3837813 27.2915156,29.333625 27.1138594,29.2314375 C26.9357344,29.1297188 26.8466719,28.9140938 26.8466719,28.5831563 L26.8466719,1.95534375 C26.8466719,1.688625 26.9197969,1.47253125 27.0660469,1.30753125 C27.2118281,1.1420625 27.4312031,1.05909375 27.7237031,1.05909375 L37.1207344,1.05909375 C38.4547969,1.05909375 39.7415156,1.22503125 40.9804219,1.55503125 C42.2193281,1.8855 43.3757344,2.35565625 44.4496406,2.9655 C45.5230781,3.5758125 46.5051094,4.306125 47.3943281,5.15784375 C48.2840156,6.00909375 49.0433906,6.9620625 49.6724531,8.01675 C50.3010469,9.0714375 50.7904219,10.208625 51.1401094,11.4283125 C51.4893281,12.6484688 51.6641719,13.9258125 51.6641719,15.259875 L51.6641719,15.259875 Z" id="Fill-4" fill="#146975"></path>
            <path d="M74.0652656,9.06510938 C73.4169844,8.60760938 72.7241719,8.25229688 71.9872969,7.99776563 C71.2504219,7.74370313 70.4624531,7.61620313 69.6238594,7.61620313 C68.5691719,7.61620313 67.6035469,7.81682813 66.7265156,8.21667188 C65.8499531,8.61698438 65.0971406,9.16026563 64.4680781,9.84651563 C63.8390156,10.5327656 63.3463594,11.3366719 62.9910469,12.2577656 C62.6347969,13.1788594 62.4571406,14.1608906 62.4571406,15.2029219 C62.4571406,16.2444844 62.6347969,17.2227656 62.9910469,18.1377656 C63.3463594,19.0532344 63.8390156,19.8505781 64.4680781,20.5302656 C65.0971406,21.2099531 65.8499531,21.7471406 66.7265156,22.1408906 C67.6035469,22.5346406 68.5691719,22.7315156 69.6238594,22.7315156 C70.0687031,22.7315156 70.5102656,22.7001094 70.9490156,22.6363594 C71.3872969,22.5726094 71.8541719,22.4905781 72.3496406,22.3888594 L72.3496406,17.3947969 C72.3496406,17.1533906 72.4194844,16.9532344 72.5596406,16.7943281 C72.6988594,16.6354219 72.9088594,16.5557344 73.1882344,16.5557344 L78.3726094,16.5557344 C78.5633906,16.5557344 78.7663594,16.6326094 78.9824531,16.7849531 C79.1985469,16.9372969 79.3068281,17.1407344 79.3068281,17.3947969 L79.3068281,26.6202656 C79.3068281,26.9633906 79.1226094,27.2427656 78.7541719,27.4588594 C78.1569844,27.8652656 77.4960469,28.2154219 76.7718281,28.5074531 C76.0476094,28.7999531 75.2915156,29.0408906 74.5035469,29.2312031 C73.7155781,29.4224531 72.9182344,29.5649531 72.1115156,29.6605781 C71.3043281,29.7557344 70.5201094,29.8030781 69.7574531,29.8030781 C68.4102656,29.8030781 67.1174531,29.6319844 65.8785469,29.2888594 C64.6396406,28.9457344 63.4794844,28.4563594 62.3999531,27.8212031 C61.3199531,27.1855781 60.3379219,26.4266719 59.4552656,25.5430781 C58.5716719,24.6604219 57.8127656,23.6821406 57.1771406,22.6082344 C56.5415156,21.5343281 56.0526094,20.3779219 55.7094844,19.1385469 C55.3663594,17.9001094 55.1947969,16.6068281 55.1947969,15.2601094 C55.1947969,13.9133906 55.3663594,12.6201094 55.7094844,11.3807344 C56.0526094,10.1422969 56.5415156,8.97932813 57.1771406,7.89276563 C57.8127656,6.80667188 58.5716719,5.81854688 59.4552656,4.92885938 C60.3379219,4.03917188 61.3199531,3.27979688 62.3999531,2.65073438 C63.4794844,2.02214063 64.6396406,1.53323438 65.8785469,1.18354688 C67.1174531,0.833859375 68.4102656,0.659015625 69.7574531,0.659015625 C71.2822969,0.659015625 72.7213594,0.871828125 74.0746406,1.29792188 C75.4279219,1.72354688 76.7019844,2.33667188 77.8963594,3.13729688 C78.1124531,3.26432813 78.2774531,3.43260938 78.3918281,3.64260938 C78.5062031,3.85214063 78.4808906,4.09026563 78.3154219,4.35698438 L75.2277656,8.81760938 C75.0622969,9.02057813 74.8972969,9.15745313 74.7322969,9.22729688 C74.5668281,9.29714063 74.3446406,9.24323438 74.0652656,9.06510938" id="Fill-6" fill="#146975"></path>
            <path d="M84.0619688,3.97570313 C84.0619688,3.49335938 84.3413438,3.09914063 84.9005625,2.79398438 L87.49275,1.51710938 C87.82275,1.30101563 88.147125,1.17351563 88.4654063,1.13554688 C88.7822812,1.09757813 89.1891562,1.07835938 89.684625,1.07835938 L93.9929063,1.07835938 C94.2469688,1.07835938 94.4625937,1.15476563 94.6407188,1.30757813 C94.818375,1.45992188 94.9079063,1.66289063 94.9079063,1.91695313 L94.9079063,28.5452344 C94.9079063,29.1044531 94.6088438,29.3838281 94.012125,29.3838281 L88.5985313,29.3838281 C88.2807188,29.3838281 88.0613438,29.2980469 87.9404063,29.1264844 C87.8199375,28.9549219 87.7599375,28.7739844 87.7599375,28.5832031 L87.7599375,7.57851563 L85.1480625,8.87460938 C85.0847813,8.89992188 85.0215,8.90929688 84.95775,8.90320313 C84.894,8.89664063 84.8499375,8.91914063 84.8241563,8.96976563 C84.58275,8.96976563 84.3957188,8.88117188 84.262125,8.70304688 C84.129,8.52492188 84.0619688,8.31539063 84.0619688,8.07398438 L84.0619688,3.97570313 Z" id="Fill-8" fill="#18AEC4"></path>
            <path d="M105.109922,20.1393281 C105.109922,20.6479219 105.185859,21.1180781 105.338203,21.5502656 C105.491016,21.9824531 105.706641,22.3569844 105.986484,22.6743281 C106.265859,22.9921406 106.602891,23.2401094 106.996641,23.4177656 C107.390391,23.5958906 107.835234,23.6844844 108.331172,23.6844844 C108.826641,23.6844844 109.274766,23.5958906 109.674609,23.4177656 C110.075391,23.2401094 110.411953,22.9921406 110.685234,22.6743281 C110.958516,22.3569844 111.171328,21.9824531 111.323672,21.5502656 C111.476016,21.1180781 111.552422,20.6479219 111.552422,20.1393281 C111.552422,19.6438594 111.476016,19.1802656 111.323672,18.7480781 C111.171328,18.3158906 110.958516,17.9380781 110.685234,17.6137031 C110.411953,17.2897969 110.075391,17.0324531 109.674609,16.8421406 C109.274766,16.6513594 108.826641,16.5557344 108.331172,16.5557344 C107.835234,16.5557344 107.390391,16.6513594 106.996641,16.8421406 C106.602891,17.0324531 106.265859,17.2897969 105.986484,17.6137031 C105.706641,17.9380781 105.491016,18.3158906 105.338203,18.7480781 C105.185859,19.1802656 105.109922,19.6438594 105.109922,20.1393281 M98.5150781,21.2258906 C98.4892969,21.0097969 98.4700781,20.7908906 98.4578906,20.5682344 C98.4447656,20.3460469 98.4386719,20.1271406 98.4386719,19.9110469 C98.4386719,18.2333906 98.8450781,16.6832344 99.6583594,15.2601094 C99.6705469,15.2469844 99.6930469,15.2155781 99.7253906,15.1644844 C99.7567969,15.1138594 99.8458594,14.9615156 99.9921094,14.7069844 C100.137891,14.4529219 100.363828,14.0558906 100.668516,13.5158906 C100.973672,12.9758906 101.402578,12.2137031 101.955234,11.2283906 C102.507891,10.2440156 103.206328,8.99573438 104.051953,7.48307813 C104.897109,5.97089063 105.935859,4.11557813 107.168672,1.91714063 C107.307891,1.65042188 107.473359,1.44370313 107.663672,1.29792188 C107.854453,1.15167188 108.108516,1.07854688 108.426328,1.07854688 L113.839453,1.07854688 C114.335391,1.07854688 114.582891,1.22479688 114.582891,1.51682813 C114.582891,1.56792188 114.570234,1.65323438 114.544922,1.77417188 C114.519141,1.89510938 114.494297,1.96776563 114.468984,1.99354688 C114.024141,2.78151563 113.633203,3.47057813 113.296641,4.06167188 C112.959609,4.65229688 112.654922,5.18620313 112.381641,5.66245313 C112.108359,6.13917188 111.860391,6.57510938 111.638203,6.96839063 C111.415547,7.36214063 111.199453,7.74370313 110.989922,8.11214063 C110.780391,8.48057813 110.567578,8.85885938 110.351953,9.24604688 C110.135391,9.63417188 109.900547,10.0560469 109.646484,10.5135469 C110.866172,10.6537031 112.009922,10.9935469 113.077266,11.5335469 C114.144609,12.0735469 115.072266,12.7691719 115.860234,13.6208906 C116.647734,14.4721406 117.267422,15.4476094 117.718359,16.5463594 C118.169297,17.6460469 118.395234,18.8240156 118.395234,20.0821406 C118.395234,21.4293281 118.134609,22.6902656 117.613828,23.8658906 C117.092109,25.0415156 116.381016,26.0647969 115.478672,26.9347969 C114.576328,27.8052656 113.518359,28.4910469 112.305703,28.9935469 C111.091641,29.4951094 109.792266,29.7458906 108.407109,29.7458906 C107.123672,29.7458906 105.913359,29.5396406 104.776172,29.1266719 C103.638516,28.7137031 102.625078,28.1324531 101.736328,27.3824531 C100.846172,26.6333906 100.119141,25.7338594 99.5533594,24.6852656 C98.9875781,23.6371406 98.6416406,22.4840156 98.5150781,21.2258906" id="Fill-10" fill="#18AEC4"></path>
            <path d="M129.898219,7.9231875 C129.898219,8.211 129.94275,8.47959375 130.031812,8.730375 C130.121344,8.98115625 130.248375,9.19725 130.414312,9.38053125 C130.579312,9.56334375 130.779,9.7081875 131.011969,9.81459375 C131.244937,9.9219375 131.503219,9.97490625 131.786344,9.97490625 C132.064781,9.97490625 132.327281,9.92475 132.573375,9.82490625 C132.819469,9.72459375 133.034156,9.5863125 133.216969,9.40959375 C133.399781,9.23334375 133.546969,9.02521875 133.658062,8.7856875 C133.769156,8.54615625 133.8315,8.28928125 133.844156,8.0150625 L133.844156,7.9231875 C133.844156,7.64475 133.792125,7.37896875 133.687594,7.1263125 C133.583062,6.874125 133.438219,6.6519375 133.253062,6.45975 C133.067906,6.26803125 132.849937,6.116625 132.599625,6.006 C132.349312,5.8944375 132.077906,5.839125 131.786344,5.839125 C131.503219,5.839125 131.244937,5.8944375 131.011969,6.006 C130.779,6.116625 130.579312,6.26803125 130.414312,6.45975 C130.248375,6.6519375 130.121344,6.874125 130.031812,7.1263125 C129.94275,7.37896875 129.898219,7.64475 129.898219,7.9231875 L129.898219,7.9231875 Z M133.65525,11.0525625 C133.537125,11.1706875 133.40775,11.2967813 133.266187,11.43225 C133.124625,11.5667813 132.969,11.6933438 132.798844,11.811 C132.629156,11.9286563 132.446344,12.0256875 132.250406,12.101625 C132.054,12.1780313 131.842594,12.216 131.616187,12.216 C131.023687,12.216 130.478062,12.1049063 129.979781,11.8827188 C129.481031,11.6605313 129.052125,11.3567813 128.692594,10.9714688 C128.333531,10.5856875 128.05275,10.1314688 127.849781,9.6088125 C127.647281,9.08615625 127.546031,8.524125 127.546031,7.9231875 C127.546031,7.31803125 127.647281,6.7550625 127.849781,6.23475 C128.05275,5.71396875 128.333531,5.26115625 128.692594,4.875375 C129.052125,4.48959375 129.481031,4.18725 129.979781,3.96740625 C130.478062,3.74709375 131.023687,3.63740625 131.616187,3.63740625 C131.855719,3.63740625 132.074625,3.67209375 132.272906,3.7419375 C132.471187,3.81178125 132.652125,3.9013125 132.81525,4.00959375 C132.978375,4.11834375 133.128844,4.241625 133.266187,4.37896875 C133.403062,4.5163125 133.532906,4.64990625 133.65525,4.7806875 L133.65525,1.79521875 C133.65525,1.65553125 133.696969,1.537875 133.782281,1.44178125 C133.867125,1.346625 133.994625,1.2988125 134.164312,1.2988125 L135.634312,1.2988125 C135.691031,1.2988125 135.751031,1.31053125 135.814312,1.3344375 C135.877125,1.35834375 135.93525,1.39209375 135.987281,1.4356875 C136.039781,1.47928125 136.082437,1.5313125 136.114781,1.59271875 C136.147125,1.65365625 136.164,1.72115625 136.164,1.79521875 L136.164,11.5625625 C136.164,11.8977188 135.987281,12.0655313 135.634312,12.0655313 L134.354156,12.0655313 C134.2665,12.0655313 134.199469,12.05475 134.151656,12.0331875 C134.103375,12.0111563 134.063062,11.97975 134.030719,11.9380313 C133.997437,11.8967813 133.968375,11.8442813 133.942125,11.7814688 C133.916344,11.7181875 133.883531,11.6450625 133.844156,11.5625625 L133.65525,11.0525625 Z" id="Fill-12" fill="#146975"></path>
            <path d="M140.377313,7.9231875 C140.377313,8.211 140.421844,8.47959375 140.510906,8.730375 C140.600438,8.98115625 140.727938,9.19725 140.893406,9.38053125 C141.059344,9.56334375 141.258563,9.7081875 141.491531,9.81459375 C141.724031,9.9219375 141.982313,9.97490625 142.265438,9.97490625 C142.557469,9.97490625 142.828406,9.9219375 143.078719,9.81459375 C143.3295,9.7081875 143.547,9.56334375 143.732156,9.38053125 C143.917313,9.19725 144.062156,8.98115625 144.166688,8.730375 C144.271219,8.47959375 144.32325,8.211 144.32325,7.9231875 C144.32325,7.64475 144.271219,7.37896875 144.166688,7.1263125 C144.062156,6.874125 143.917313,6.6519375 143.732156,6.45975 C143.547,6.26803125 143.3295,6.116625 143.078719,6.006 C142.828406,5.8944375 142.557469,5.839125 142.265438,5.839125 C141.982313,5.839125 141.724031,5.8944375 141.491531,6.006 C141.258563,6.116625 141.059344,6.26803125 140.893406,6.45975 C140.727938,6.6519375 140.600438,6.874125 140.510906,7.1263125 C140.421844,7.37896875 140.377313,7.64475 140.377313,7.9231875 L140.377313,7.9231875 Z M146.812781,11.58225 C146.812781,11.6563125 146.799656,11.726625 146.773406,11.7945937 C146.747625,11.8620937 146.703563,11.9150625 146.643094,11.9549062 C146.594813,12.0027187 146.538563,12.0331875 146.472938,12.0458437 C146.407781,12.0589687 146.351063,12.0655312 146.30325,12.0655312 L145.016063,12.0655312 C144.925125,12.0655312 144.850594,12.0538125 144.793875,12.0299062 C144.737156,12.006 144.691688,11.9717812 144.657,11.9286562 C144.621844,11.8850625 144.592313,11.831625 144.568406,11.7683437 C144.5445,11.7055312 144.519656,11.636625 144.493406,11.5625625 L144.303563,11.07225 C144.186375,11.190375 144.057938,11.3155312 143.918719,11.4481875 C143.779031,11.5813125 143.625281,11.704125 143.457938,11.8170937 C143.290594,11.931 143.10825,12.0256875 142.912313,12.101625 C142.716375,12.1780312 142.507313,12.216 142.285125,12.216 C141.888563,12.216 141.508875,12.1658437 141.145125,12.0655312 C140.781375,11.9652187 140.442,11.8227187 140.126063,11.6375625 C139.810125,11.4524062 139.523719,11.2302187 139.266375,10.9714687 C139.0095,10.71225 138.788719,10.4235 138.603094,10.1056875 C138.418406,9.78740625 138.275438,9.44428125 138.175594,9.07678125 C138.075281,8.7088125 138.025125,8.32396875 138.025125,7.9231875 C138.025125,7.31803125 138.136688,6.7550625 138.358875,6.23475 C138.581063,5.71396875 138.883406,5.26115625 139.266375,4.875375 C139.650281,4.48959375 140.10075,4.18725 140.619188,3.96740625 C141.137625,3.74709375 141.692625,3.63740625 142.285125,3.63740625 C142.555125,3.63740625 142.803563,3.67771875 143.029969,3.75834375 C143.256375,3.83896875 143.462156,3.9444375 143.647313,4.07521875 C143.832469,4.206 144.000281,4.354125 144.150281,4.51959375 C144.30075,4.6850625 144.434813,4.85240625 144.552,5.0225625 L144.807,4.23178125 C144.850594,4.1235 144.886688,4.03490625 144.914813,3.96740625 C144.942938,3.89990625 144.973406,3.84975 145.006219,3.8169375 C145.039031,3.78459375 145.079344,3.7625625 145.127156,3.75178125 C145.175438,3.741 145.242469,3.735375 145.329656,3.735375 L146.30325,3.735375 C146.351063,3.735375 146.407781,3.7419375 146.472938,3.7550625 C146.538563,3.76771875 146.594813,3.79865625 146.643094,3.84646875 C146.703563,3.89428125 146.747625,3.949125 146.773406,4.00959375 C146.799656,4.071 146.812781,4.140375 146.812781,4.219125 L146.812781,11.58225 Z" id="Fill-14" fill="#146975"></path>
            <path d="M150.280922,2.47453125 C150.280922,2.33953125 150.325453,2.2378125 150.414516,2.17078125 C150.504047,2.10328125 150.631547,2.03859375 150.797016,1.978125 L152.280141,1.4615625 C152.302172,1.45734375 152.322328,1.45546875 152.342016,1.45546875 L152.397328,1.45546875 C152.559047,1.45546875 152.666391,1.50234375 152.720766,1.59609375 C152.775609,1.689375 152.802797,1.8121875 152.802797,1.96453125 L152.796234,4.0228125 L153.887484,4.0228125 C154.026703,4.0228125 154.140141,4.0640625 154.226859,4.14703125 C154.314047,4.23 154.358109,4.35421875 154.358109,4.5196875 L154.358109,5.78015625 C154.358109,5.9634375 154.314047,6.09703125 154.226859,6.18234375 C154.140141,6.2671875 154.026703,6.30984375 153.887484,6.30984375 L152.796234,6.30984375 L152.802797,11.5626563 C152.802797,11.728125 152.754984,11.8532813 152.658891,11.938125 C152.563266,12.0229688 152.430609,12.065625 152.260453,12.065625 L150.783891,12.065625 C150.448734,12.065625 150.280922,11.8978125 150.280922,11.5626563 L150.274359,6.30984375 L149.797172,6.30984375 C149.462016,6.30984375 149.294203,6.13359375 149.294203,5.78015625 L149.294203,4.5196875 C149.294203,4.18828125 149.462016,4.0228125 149.797172,4.0228125 L150.274359,4.0228125 L150.280922,2.47453125 Z" id="Fill-16" fill="#146975"></path>
            <path d="M158.571234,7.9231875 C158.571234,8.211 158.615766,8.47959375 158.704828,8.730375 C158.794359,8.98115625 158.921859,9.19725 159.087328,9.38053125 C159.253266,9.56334375 159.452484,9.7081875 159.685453,9.81459375 C159.917953,9.9219375 160.176234,9.97490625 160.459359,9.97490625 C160.751391,9.97490625 161.022328,9.9219375 161.272641,9.81459375 C161.523422,9.7081875 161.740922,9.56334375 161.926078,9.38053125 C162.111234,9.19725 162.256078,8.98115625 162.360609,8.730375 C162.465141,8.47959375 162.517172,8.211 162.517172,7.9231875 C162.517172,7.64475 162.465141,7.37896875 162.360609,7.1263125 C162.256078,6.874125 162.111234,6.6519375 161.926078,6.45975 C161.740922,6.26803125 161.523422,6.116625 161.272641,6.006 C161.022328,5.8944375 160.751391,5.839125 160.459359,5.839125 C160.176234,5.839125 159.917953,5.8944375 159.685453,6.006 C159.452484,6.116625 159.253266,6.26803125 159.087328,6.45975 C158.921859,6.6519375 158.794359,6.874125 158.704828,7.1263125 C158.615766,7.37896875 158.571234,7.64475 158.571234,7.9231875 L158.571234,7.9231875 Z M165.006703,11.58225 C165.006703,11.6563125 164.993578,11.726625 164.967328,11.7945937 C164.941547,11.8620937 164.897484,11.9150625 164.837016,11.9549062 C164.788734,12.0027187 164.732484,12.0331875 164.666859,12.0458437 C164.601703,12.0589687 164.544984,12.0655312 164.497172,12.0655312 L163.209984,12.0655312 C163.119047,12.0655312 163.044516,12.0538125 162.987797,12.0299062 C162.931078,12.006 162.885609,11.9717812 162.850922,11.9286562 C162.815766,11.8850625 162.786234,11.831625 162.762328,11.7683437 C162.738422,11.7055312 162.713578,11.636625 162.687328,11.5625625 L162.497484,11.07225 C162.380297,11.190375 162.251859,11.3155312 162.112641,11.4481875 C161.972953,11.5813125 161.819203,11.704125 161.651859,11.8170937 C161.484516,11.931 161.302172,12.0256875 161.106234,12.101625 C160.910297,12.1780312 160.701234,12.216 160.479047,12.216 C160.082484,12.216 159.702797,12.1658437 159.339047,12.0655312 C158.975297,11.9652187 158.635922,11.8227187 158.319984,11.6375625 C158.004047,11.4524062 157.717641,11.2302187 157.460297,10.9714687 C157.203422,10.71225 156.982641,10.4235 156.797016,10.1056875 C156.612328,9.78740625 156.469359,9.44428125 156.369516,9.07678125 C156.269203,8.7088125 156.219047,8.32396875 156.219047,7.9231875 C156.219047,7.31803125 156.330609,6.7550625 156.552797,6.23475 C156.774984,5.71396875 157.077328,5.26115625 157.460297,4.875375 C157.844203,4.48959375 158.294672,4.18725 158.813109,3.96740625 C159.331547,3.74709375 159.886547,3.63740625 160.479047,3.63740625 C160.749047,3.63740625 160.997484,3.67771875 161.223891,3.75834375 C161.450297,3.83896875 161.656078,3.9444375 161.841234,4.07521875 C162.026391,4.206 162.194203,4.354125 162.344203,4.51959375 C162.494672,4.6850625 162.628734,4.85240625 162.745922,5.0225625 L163.000922,4.23178125 C163.044516,4.1235 163.080609,4.03490625 163.108734,3.96740625 C163.136859,3.89990625 163.167328,3.84975 163.200141,3.8169375 C163.232953,3.78459375 163.273266,3.7625625 163.321078,3.75178125 C163.369359,3.741 163.436391,3.735375 163.523578,3.735375 L164.497172,3.735375 C164.544984,3.735375 164.601703,3.7419375 164.666859,3.7550625 C164.732484,3.76771875 164.788734,3.79865625 164.837016,3.84646875 C164.897484,3.89428125 164.941547,3.949125 164.967328,4.00959375 C164.993578,4.071 165.006703,4.140375 165.006703,4.219125 L165.006703,11.58225 Z" id="Fill-18" fill="#146975"></path>
            <path d="M128.258109,21.4454531 C128.258109,21.3057656 128.297484,21.1867031 128.375766,21.0859219 C128.454047,20.9856094 128.576391,20.9354531 128.741391,20.9354531 L130.238109,20.9354531 C130.290141,20.9354531 130.346391,20.9481094 130.407797,20.9720156 C130.468734,20.9959219 130.524984,21.0306094 130.577953,21.0760781 C130.629984,21.1220156 130.674047,21.1754531 130.711547,21.2363906 C130.748109,21.2973281 130.766859,21.3671719 130.766859,21.4454531 L130.766859,28.7302969 C130.766859,28.8962344 130.721391,29.0213906 130.629984,29.1057656 C130.538578,29.1910781 130.407797,29.2332656 130.238109,29.2332656 L128.741391,29.2332656 C128.418891,29.2332656 128.258109,29.0654531 128.258109,28.7302969 L128.258109,21.4454531 Z M128.258109,18.1398281 C128.258109,17.9565469 128.297484,17.8271719 128.375766,17.7507656 C128.454047,17.6748281 128.576391,17.6363906 128.741391,17.6363906 L130.257797,17.6363906 C130.410141,17.6363906 130.532953,17.6748281 130.626703,17.7507656 C130.719984,17.8271719 130.766859,17.9565469 130.766859,18.1398281 L130.766859,19.4134219 C130.766859,19.4659219 130.755141,19.5221719 130.731234,19.5835781 C130.707328,19.6445156 130.673109,19.7035781 130.629984,19.7598281 C130.586391,19.8165469 130.532953,19.8634219 130.469672,19.9004531 C130.406859,19.9374844 130.336078,19.9557656 130.257797,19.9557656 L128.741391,19.9557656 C128.418891,19.9557656 128.258109,19.7752969 128.258109,19.4134219 L128.258109,18.1398281 Z" id="Fill-20" fill="#146975"></path>
            <path d="M133.418203,21.0526875 C133.474922,21.004875 133.534922,20.9744062 133.598203,20.9612812 C133.661484,20.9481562 133.721016,20.9420625 133.778203,20.9420625 L134.763984,20.9420625 C134.842734,20.9420625 134.910234,20.9556562 134.966484,20.98425 C135.023672,21.012375 135.071484,21.0508125 135.110391,21.098625 C135.149766,21.1464375 135.181172,21.2003437 135.205078,21.2612812 C135.228984,21.3222187 135.251953,21.3850312 135.273984,21.4501875 L135.476484,22.2840937 C135.542109,22.1495625 135.636797,21.9962812 135.761016,21.8247187 C135.885234,21.6531562 136.042734,21.4928437 136.234453,21.3428437 C136.425703,21.1928437 136.653516,21.0672187 136.916953,20.9645625 C137.180859,20.862375 137.486484,20.81175 137.834766,20.81175 C138.331641,20.81175 138.782109,20.907375 139.187578,21.098625 C139.592578,21.289875 139.937578,21.5500312 140.223047,21.8800312 C140.508047,22.2105 140.729297,22.5958125 140.885859,23.037375 C141.043359,23.4789375 141.121641,23.9500312 141.121641,24.4506562 L141.121641,28.7303437 C141.121641,28.8958125 141.085078,29.0214375 141.013359,29.1058125 C140.942109,29.1906562 140.827266,29.2333125 140.670703,29.2333125 L139.161328,29.2333125 C138.973828,29.2333125 138.845391,29.2019062 138.776016,29.138625 C138.706172,29.0758125 138.671484,28.9525312 138.671484,28.76925 L138.671484,24.5162812 C138.671484,24.3287812 138.628828,24.1515937 138.543984,23.9837812 C138.458672,23.8164375 138.346641,23.6683125 138.207422,23.5394062 C138.068203,23.4109687 137.910234,23.3097187 137.733516,23.2356562 C137.557266,23.1615937 137.377734,23.1245625 137.194453,23.1245625 C137.037891,23.1245625 136.878047,23.15925 136.714453,23.2290937 C136.550859,23.2989375 136.400859,23.3959687 136.263984,23.5201875 C136.126641,23.6444062 136.011328,23.7897187 135.917578,23.9575312 C135.823828,24.1253437 135.770391,24.30675 135.757266,24.5031562 L135.757266,28.7500312 C135.757266,28.8240937 135.743203,28.8981562 135.715078,28.9722187 C135.686953,29.0462812 135.644297,29.103 135.587578,29.1419062 C135.530859,29.1770625 135.477422,29.2009687 135.427266,29.213625 C135.377109,29.22675 135.319922,29.2333125 135.254297,29.2333125 L133.778203,29.2333125 C133.590234,29.2333125 133.455234,29.187375 133.372734,29.0964375 C133.289766,29.0045625 133.248516,28.8826875 133.248516,28.7303437 L133.248516,21.4239375 C133.248516,21.3419062 133.267266,21.2659687 133.303828,21.196125 C133.341328,21.12675 133.392422,21.072375 133.458047,21.033 L133.418203,21.0526875 Z" id="Fill-22" fill="#146975"></path>
            <path d="M143.60325,21.4454531 C143.60325,21.3057656 143.642625,21.1867031 143.720906,21.0859219 C143.799188,20.9856094 143.921531,20.9354531 144.087,20.9354531 L145.58325,20.9354531 C145.635281,20.9354531 145.691531,20.9481094 145.752938,20.9720156 C145.813875,20.9959219 145.870125,21.0306094 145.923094,21.0760781 C145.975125,21.1220156 146.019656,21.1754531 146.056688,21.2363906 C146.09325,21.2973281 146.112,21.3671719 146.112,21.4454531 L146.112,28.7302969 C146.112,28.8962344 146.066531,29.0213906 145.975125,29.1057656 C145.883719,29.1910781 145.752938,29.2332656 145.58325,29.2332656 L144.087,29.2332656 C143.7645,29.2332656 143.60325,29.0654531 143.60325,28.7302969 L143.60325,21.4454531 Z M143.60325,18.1398281 C143.60325,17.9565469 143.642625,17.8271719 143.720906,17.7507656 C143.799188,17.6748281 143.921531,17.6363906 144.087,17.6363906 L145.602938,17.6363906 C145.755281,17.6363906 145.878094,17.6748281 145.971844,17.7507656 C146.065125,17.8271719 146.112,17.9565469 146.112,18.1398281 L146.112,19.4134219 C146.112,19.4659219 146.100281,19.5221719 146.076375,19.5835781 C146.052469,19.6445156 146.01825,19.7035781 145.975125,19.7598281 C145.931531,19.8165469 145.878094,19.8634219 145.814813,19.9004531 C145.752,19.9374844 145.681219,19.9557656 145.602938,19.9557656 L144.087,19.9557656 C143.7645,19.9557656 143.60325,19.7752969 143.60325,19.4134219 L143.60325,18.1398281 Z" id="Fill-24" fill="#146975"></path>
            <path d="M148.959937,19.6422656 C148.959937,19.5072656 149.004469,19.4055469 149.093531,19.3385156 C149.183062,19.2710156 149.310562,19.2063281 149.476031,19.1458594 L150.959156,18.6292969 C150.981187,18.6250781 151.001344,18.6232031 151.021031,18.6232031 L151.076344,18.6232031 C151.238062,18.6232031 151.345406,18.6700781 151.399781,18.7638281 C151.454625,18.8571094 151.481812,18.9799219 151.481812,19.1322656 L151.475719,21.1905469 L152.5665,21.1905469 C152.705719,21.1905469 152.819156,21.2317969 152.905875,21.3147656 C152.993062,21.3977344 153.037125,21.5219531 153.037125,21.6874219 L153.037125,22.9478906 C153.037125,23.1311719 152.993062,23.2647656 152.905875,23.3500781 C152.819156,23.4349219 152.705719,23.4775781 152.5665,23.4775781 L151.475719,23.4775781 L151.481812,28.7303906 C151.481812,28.8958594 151.434,29.0210156 151.337906,29.1058594 C151.242281,29.1907031 151.109625,29.2333594 150.939469,29.2333594 L149.462906,29.2333594 C149.12775,29.2333594 148.959937,29.0655469 148.959937,28.7303906 L148.953375,23.4775781 L148.476656,23.4775781 C148.141031,23.4775781 147.973219,23.3013281 147.973219,22.9478906 L147.973219,21.6874219 C147.973219,21.3560156 148.141031,21.1905469 148.476656,21.1905469 L148.953375,21.1905469 L148.959937,19.6422656 Z" id="Fill-26" fill="#146975"></path>
            <path d="M154.898156,21.4454531 C154.898156,21.3057656 154.937531,21.1867031 155.015813,21.0859219 C155.094094,20.9856094 155.216438,20.9354531 155.381906,20.9354531 L156.878156,20.9354531 C156.930188,20.9354531 156.986438,20.9481094 157.047844,20.9720156 C157.108781,20.9959219 157.165031,21.0306094 157.218,21.0760781 C157.270031,21.1220156 157.314563,21.1754531 157.351594,21.2363906 C157.388156,21.2973281 157.406906,21.3671719 157.406906,21.4454531 L157.406906,28.7302969 C157.406906,28.8962344 157.361438,29.0213906 157.270031,29.1057656 C157.178625,29.1910781 157.047844,29.2332656 156.878156,29.2332656 L155.381906,29.2332656 C155.059406,29.2332656 154.898156,29.0654531 154.898156,28.7302969 L154.898156,21.4454531 Z M154.898156,18.1398281 C154.898156,17.9565469 154.937531,17.8271719 155.015813,17.7507656 C155.094094,17.6748281 155.216438,17.6363906 155.381906,17.6363906 L156.897844,17.6363906 C157.050188,17.6363906 157.173,17.6748281 157.26675,17.7507656 C157.360031,17.8271719 157.406906,17.9565469 157.406906,18.1398281 L157.406906,19.4134219 C157.406906,19.4659219 157.395188,19.5221719 157.371281,19.5835781 C157.347375,19.6445156 157.313156,19.7035781 157.270031,19.7598281 C157.226438,19.8165469 157.173,19.8634219 157.109719,19.9004531 C157.046906,19.9374844 156.976125,19.9557656 156.897844,19.9557656 L155.381906,19.9557656 C155.059406,19.9557656 154.898156,19.7752969 154.898156,19.4134219 L154.898156,18.1398281 Z" id="Fill-28" fill="#146975"></path>
            <path d="M161.620406,25.0909688 C161.620406,25.3787813 161.664937,25.647375 161.754,25.8981563 C161.843531,26.1489375 161.971031,26.3650313 162.1365,26.5483125 C162.301969,26.731125 162.501656,26.8759688 162.734625,26.982375 C162.967125,27.0897188 163.225406,27.1426875 163.508531,27.1426875 C163.800562,27.1426875 164.0715,27.0897188 164.321812,26.982375 C164.572594,26.8759688 164.790094,26.731125 164.97525,26.5483125 C165.160406,26.3650313 165.30525,26.1489375 165.409781,25.8981563 C165.514312,25.647375 165.566344,25.3787813 165.566344,25.0909688 C165.566344,24.8125313 165.514312,24.54675 165.409781,24.2940938 C165.30525,24.0419063 165.160406,23.8197188 164.97525,23.6275313 C164.790094,23.4358125 164.572594,23.2844063 164.321812,23.1737813 C164.0715,23.0622188 163.800562,23.0069063 163.508531,23.0069063 C163.225406,23.0069063 162.967125,23.0622188 162.734625,23.1737813 C162.501656,23.2844063 162.301969,23.4358125 162.1365,23.6275313 C161.971031,23.8197188 161.843531,24.0419063 161.754,24.2940938 C161.664937,24.54675 161.620406,24.8125313 161.620406,25.0909688 L161.620406,25.0909688 Z M168.055875,28.7500313 C168.055875,28.8240938 168.04275,28.8944063 168.0165,28.962375 C167.990719,29.029875 167.946656,29.0828438 167.886187,29.1226875 C167.837906,29.1705 167.781656,29.2009688 167.716031,29.213625 C167.650875,29.22675 167.594156,29.2333125 167.546344,29.2333125 L166.259156,29.2333125 C166.168219,29.2333125 166.093219,29.2215938 166.036969,29.1976875 C165.98025,29.1737813 165.934781,29.1395625 165.900094,29.0964375 C165.864937,29.0528438 165.835406,28.9994063 165.8115,28.936125 C165.787594,28.8733125 165.76275,28.8044063 165.7365,28.7303438 L165.546656,28.2400313 C165.429469,28.3581563 165.301031,28.4833125 165.161812,28.6159688 C165.022125,28.7490938 164.868375,28.8719063 164.701031,28.984875 C164.533687,29.0987813 164.351344,29.1934688 164.155406,29.2694063 C163.959469,29.3458125 163.750406,29.3837813 163.528219,29.3837813 C163.131656,29.3837813 162.751969,29.333625 162.388219,29.2333125 C162.024469,29.133 161.685094,28.9905 161.369156,28.8053438 C161.053219,28.6201875 160.766812,28.398 160.509469,28.13925 C160.252594,27.8800313 160.031812,27.5912813 159.846187,27.2734688 C159.6615,26.9551875 159.518531,26.6120625 159.418687,26.2445625 C159.318375,25.8765938 159.268219,25.49175 159.268219,25.0909688 C159.268219,24.4858125 159.379781,23.9228438 159.601969,23.4025313 C159.824156,22.88175 160.1265,22.4289375 160.509469,22.0431563 C160.893375,21.657375 161.343844,21.3550313 161.862281,21.1351875 C162.380719,20.914875 162.935719,20.8051875 163.528219,20.8051875 C163.798219,20.8051875 164.046656,20.8455 164.273062,20.926125 C164.499469,21.00675 164.70525,21.1122188 164.890406,21.243 C165.075562,21.3737813 165.243375,21.5219063 165.393375,21.687375 C165.543844,21.8528438 165.677906,22.0201875 165.795094,22.1903438 L166.050094,21.3995625 C166.093219,21.2912813 166.129781,21.2026875 166.157906,21.1351875 C166.186031,21.0676875 166.2165,21.0175313 166.249312,20.9847188 C166.282125,20.952375 166.322437,20.9303438 166.37025,20.9195625 C166.418531,20.9087813 166.485562,20.9031563 166.57275,20.9031563 L167.546344,20.9031563 C167.594156,20.9031563 167.650875,20.9097188 167.716031,20.9228438 C167.781656,20.9355 167.837906,20.9664375 167.886187,21.01425 C167.946656,21.0620625 167.990719,21.1169063 168.0165,21.177375 C168.04275,21.2387813 168.055875,21.3081563 168.055875,21.3869063 L168.055875,28.7500313 Z" id="Fill-30" fill="#146975"></path>
            <path d="M170.903578,19.6422656 C170.903578,19.5072656 170.948109,19.4055469 171.037172,19.3385156 C171.126703,19.2710156 171.254203,19.2063281 171.419672,19.1458594 L172.902797,18.6292969 C172.924828,18.6250781 172.944984,18.6232031 172.964672,18.6232031 L173.019984,18.6232031 C173.181703,18.6232031 173.289047,18.6700781 173.343422,18.7638281 C173.398266,18.8571094 173.425453,18.9799219 173.425453,19.1322656 L173.419359,21.1905469 L174.510141,21.1905469 C174.649359,21.1905469 174.762797,21.2317969 174.849516,21.3147656 C174.936703,21.3977344 174.980766,21.5219531 174.980766,21.6874219 L174.980766,22.9478906 C174.980766,23.1311719 174.936703,23.2647656 174.849516,23.3500781 C174.762797,23.4349219 174.649359,23.4775781 174.510141,23.4775781 L173.419359,23.4775781 L173.425453,28.7303906 C173.425453,28.8958594 173.377641,29.0210156 173.281547,29.1058594 C173.185922,29.1907031 173.053266,29.2333594 172.883109,29.2333594 L171.406547,29.2333594 C171.071391,29.2333594 170.903578,29.0655469 170.903578,28.7303906 L170.897016,23.4775781 L170.420297,23.4775781 C170.084672,23.4775781 169.916859,23.3013281 169.916859,22.9478906 L169.916859,21.6874219 C169.916859,21.3560156 170.084672,21.1905469 170.420297,21.1905469 L170.897016,21.1905469 L170.903578,19.6422656 Z" id="Fill-32" fill="#146975"></path>
            <path d="M176.841797,21.4454531 C176.841797,21.3057656 176.881172,21.1867031 176.959453,21.0859219 C177.037734,20.9856094 177.160078,20.9354531 177.325078,20.9354531 L178.821797,20.9354531 C178.873828,20.9354531 178.930078,20.9481094 178.991484,20.9720156 C179.052422,20.9959219 179.108672,21.0306094 179.161641,21.0760781 C179.213672,21.1220156 179.257734,21.1754531 179.295234,21.2363906 C179.331797,21.2973281 179.350547,21.3671719 179.350547,21.4454531 L179.350547,28.7302969 C179.350547,28.8962344 179.305078,29.0213906 179.213672,29.1057656 C179.122266,29.1910781 178.991484,29.2332656 178.821797,29.2332656 L177.325078,29.2332656 C177.003047,29.2332656 176.841797,29.0654531 176.841797,28.7302969 L176.841797,21.4454531 Z M176.841797,18.1398281 C176.841797,17.9565469 176.881172,17.8271719 176.959453,17.7507656 C177.037734,17.6748281 177.160078,17.6363906 177.325078,17.6363906 L178.841484,17.6363906 C178.993828,17.6363906 179.116641,17.6748281 179.210391,17.7507656 C179.303672,17.8271719 179.350547,17.9565469 179.350547,18.1398281 L179.350547,19.4134219 C179.350547,19.4659219 179.338828,19.5221719 179.314922,19.5835781 C179.291016,19.6445156 179.256797,19.7035781 179.213672,19.7598281 C179.170078,19.8165469 179.116641,19.8634219 179.053359,19.9004531 C178.990547,19.9374844 178.919766,19.9557656 178.841484,19.9557656 L177.325078,19.9557656 C177.003047,19.9557656 176.841797,19.7752969 176.841797,19.4134219 L176.841797,18.1398281 Z" id="Fill-34" fill="#146975"></path>
            <path d="M181.292531,21.5825625 C181.204875,21.4044375 181.188937,21.2520937 181.243312,21.1255312 C181.297687,20.9989687 181.427062,20.9356875 181.632375,20.9356875 L183.304406,20.9356875 C183.417844,20.9356875 183.517219,20.9661562 183.602062,21.0275625 C183.686906,21.0885 183.746437,21.1756875 183.781594,21.2886562 C183.855187,21.5192812 183.937219,21.7785 184.026281,22.0663125 C184.115812,22.3536562 184.209562,22.6489687 184.307531,22.9513125 C184.4055,23.254125 184.502531,23.5550625 184.598156,23.8531875 C184.693781,24.1517812 184.782375,24.426 184.863,24.6763125 C184.943156,24.926625 185.015344,25.1445937 185.078625,25.32975 C185.141437,25.5149062 185.188312,25.646625 185.218781,25.7249062 L186.603937,21.2886562 C186.660656,21.1494375 186.724875,21.0556875 186.796594,21.007875 C186.868781,20.9600625 186.970031,20.9356875 187.100344,20.9356875 L188.81925,20.9356875 C188.945344,20.9356875 189.041437,20.9511562 189.106125,20.981625 C189.17175,21.0120937 189.215344,21.0538125 189.237375,21.1058437 C189.258469,21.157875 189.263156,21.217875 189.250031,21.285375 C189.237375,21.352875 189.215344,21.424125 189.184406,21.4977187 L186.074719,28.95225 C186.026906,29.031 185.970656,29.0970937 185.905031,29.1514687 C185.839406,29.2063125 185.741906,29.2335 185.610656,29.2335 L184.833469,29.2335 C184.659094,29.2335 184.536281,29.2086562 184.464562,29.1585 C184.392375,29.1083437 184.338937,29.0394375 184.304719,28.95225 L181.292531,21.5825625 Z" id="Fill-36" fill="#146975"></path>
            <path d="M194.574516,22.7980312 C194.404828,22.7980312 194.239828,22.8313125 194.081391,22.8992812 C193.922484,22.9667812 193.773422,23.0567812 193.633734,23.1702187 C193.494047,23.2836562 193.368891,23.4120937 193.258266,23.556 C193.146703,23.6994375 193.056703,23.8452187 192.986859,23.9933437 L196.325766,23.9933437 C196.233891,23.8236562 196.134984,23.666625 196.028578,23.5231875 C195.921234,23.3792812 195.799359,23.2527187 195.662484,23.1439687 C195.525141,23.0356875 195.368578,22.950375 195.191859,22.8894375 C195.015609,22.8285 194.809359,22.7980312 194.574516,22.7980312 M197.717484,28.2402187 C197.333578,28.5931875 196.902797,28.8688125 196.423734,29.066625 C195.944203,29.2649062 195.437016,29.3638125 194.901234,29.3638125 C194.304516,29.3638125 193.740141,29.2555312 193.209047,29.0375625 C192.677484,28.8195937 192.211547,28.5181875 191.810766,28.1324062 C191.409984,27.7470937 191.092641,27.292875 190.856859,26.7702187 C190.622016,26.2475625 190.504359,25.6789687 190.504359,25.0649062 C190.504359,24.6819375 190.551234,24.3102187 190.644516,23.9511562 C190.738266,23.591625 190.871391,23.2550625 191.043422,22.9419375 C191.214984,22.627875 191.424516,22.339125 191.670609,22.0761562 C191.916703,21.81225 192.191859,21.5867812 192.497016,21.39975 C192.801703,21.21225 193.133109,21.0664687 193.489828,20.9619375 C193.847484,20.8574062 194.223891,20.805375 194.620453,20.805375 C194.981391,20.805375 195.332484,20.8531875 195.671859,20.9488125 C196.012172,21.0444375 196.330922,21.1799062 196.629516,21.3542812 C196.927641,21.5281875 197.200922,21.73725 197.449359,21.981 C197.697797,22.2252187 197.911078,22.4919375 198.089672,22.7811562 C198.268266,23.0713125 198.406547,23.3802187 198.504516,23.7092812 C198.602484,24.0383437 198.651703,24.3767812 198.651703,24.7255312 C198.651703,24.9519375 198.647953,25.136625 198.641391,25.2805312 C198.635297,25.4244375 198.601078,25.5388125 198.540609,25.6236562 C198.479672,25.7085 198.377953,25.7675625 198.236859,25.7999062 C198.094828,25.83225 197.887172,25.849125 197.612953,25.849125 L192.908578,25.849125 C192.952172,26.1275625 193.040297,26.361 193.172953,26.5480312 C193.306078,26.7355312 193.459359,26.8845937 193.633734,26.9956875 C193.808109,27.1067812 193.993266,27.186 194.188734,27.2342812 C194.385141,27.2820937 194.570297,27.306 194.744672,27.306 C194.901234,27.306 195.062484,27.2895937 195.227953,27.2567812 C195.393422,27.2244375 195.553734,27.1808437 195.708422,27.1264687 C195.862641,27.071625 196.004203,27.0088125 196.132641,26.936625 C196.261078,26.8649062 196.364672,26.7899062 196.442953,26.711625 C196.512797,26.6549062 196.572797,26.61225 196.622953,26.584125 C196.673109,26.556 196.726547,26.5414687 196.782797,26.5414687 C196.839047,26.5414687 196.897172,26.5611562 196.955766,26.6000625 C197.014828,26.6394375 197.080922,26.6961562 197.155453,26.7702187 L197.847797,27.5544375 C197.895609,27.6106875 197.926078,27.6617812 197.939203,27.7077187 C197.952328,27.7536562 197.959359,27.8005312 197.959359,27.8483437 C197.959359,27.9350625 197.934984,28.0105312 197.887172,28.0738125 C197.839359,28.136625 197.782172,28.1924062 197.717484,28.2402187" id="Fill-38" fill="#146975"></path>
        </g>
    </g>
</svg>