<?xml version="1.0" encoding="utf-8"?>
<!-- Generator: Adobe Illustrator 19.1.0, SVG Export Plug-In . SVG Version: 6.00 Build 0)  -->
<svg version="1.1" id="Capa_1" xmlns:sketch="http://www.bohemiancoding.com/sketch/ns"
	 xmlns="http://www.w3.org/2000/svg" xmlns:xlink="http://www.w3.org/1999/xlink" x="0px" y="0px" viewBox="-160 202 664 163"
	 style="enable-background:new -160 202 664 163;" xml:space="preserve">
<style type="text/css">
	.st0{fill:#64D1B8;}
</style>
<title>Imported Layers</title>
<desc>Created with Sketch.</desc>
<g id="Imported-Layers" sketch:type="MSLayerGroup">
	<path id="Fill-1" sketch:type="MSShapeGroup" class="st0" d="M-105.7,304.2l-18.7-62h-22.2l29,89.6h22.6l29.5-89.6h-22.2
		L-105.7,304.2"/>
	<path id="Fill-2" sketch:type="MSShapeGroup" class="st0" d="M-64.3,242.1h21.2v89.6h-21.2V242.1z"/>
	<path id="Fill-3" sketch:type="MSShapeGroup" class="st0" d="M-64.3,206.7h21.2v21.7h-21.2V206.7z"/>
	<path id="Fill-4" sketch:type="MSShapeGroup" class="st0" d="M-33.3,261.3h43.8l-48.7,54.2v16.2h76.8v-19.2H-8.2l46.8-53.7v-16.7
		h-71.9V261.3"/>
	<path id="Fill-5" sketch:type="MSShapeGroup" class="st0" d="M43.5,261.3h43.3l-48.2,54.2v16.2h77.3v-19.2H68.1l47.8-53.7v-16.7
		H43.5V261.3"/>
	<path id="Fill-6" sketch:type="MSShapeGroup" class="st0" d="M181.8,282.5c0,6.9-0.5,15.3-3.9,21.7c-1.5,3.4-6.9,9.8-17.2,9.8
		c-15.3,0-17.2-11.3-17.2-20.2v-51.7h-21.7v56.6c0,7.9,0.5,16.2,5.4,23.6c3.9,5.4,10.8,11.8,26.1,11.8c15.8,0,24.6-6.9,28.6-11.3
		v9.4h21.7v-89.6h-21.7V282.5L181.8,282.5"/>
	<path id="Fill-7" sketch:type="MSShapeGroup" class="st0" d="M287.7,265.3c0-15.8-11.3-25.6-37.4-25.6c-37.4,0-38.9,22.6-38.9,28.6
		l21.7,1c0-4.9,1.5-13.3,17.7-13.3c13.3,0,15.3,6.4,15.3,13.3c-5.9,2-14.3,4.4-27.6,6.4c-16.7,3.4-32,10.8-32,30.5
		c0,15.3,11.8,27.6,32.5,27.6c10.8,0,20.7-4.4,26.6-9.4l0.5,7.9h25.6c-3.9-5.9-3.9-8.4-3.9-15.8V265.3L287.7,265.3z M265,299.3
		c0,11.3-11.3,16.2-21.7,16.2c-10.8,0-14.8-4.9-14.8-10.8c0-9.4,9.8-10.8,19.7-12.3c7.9-1,13.3-3.4,16.7-4.9V299.3h0.5H265z"/>
	<path id="Fill-8" sketch:type="MSShapeGroup" class="st0" d="M297.5,205.7h21.7v126.5h-21.7V205.7z"/>
	<path id="Fill-9" sketch:type="MSShapeGroup" class="st0" d="M330.5,206.7h21.2v21.7h-21.2V206.7z"/>
	<path id="Fill-10" sketch:type="MSShapeGroup" class="st0" d="M456.6,242.1l-16.7,66.5l-20.2-66.5h-34v-32H364v32h-34v90.1h21.2
		v-74.8H364v53.2c0,14.8,5.9,21.7,25.6,21.7c7.4,0,12.3-1,15.3-1.5v-18.2c-2.5,0.5-5.9,1-9.4,1c-1,0-5.4,0-7.9-2.5c-2-2-2-5.9-2-9.4
		v-44.3h15.8l27.1,75.8c-0.5,2-2.5,9.4-14.8,9.4c-1.5,0-3.9,0-5.9-0.5v18.2c3.4,0.5,5.9,1,12.3,1c6.9,0,12.3-1,18.2-5.4
		c7.4-5.9,11.8-22.2,15.3-33l24.6-80.7H456.6"/>
	<path id="Fill-11" sketch:type="MSShapeGroup" class="st0" d="M466.9,307.6h23.6v24.6h-23.6V307.6z"/>
</g>
</svg>
