<?xml version="1.0" encoding="utf-8"?>
<!-- Generator: Adobe Illustrator 19.1.0, SVG Export Plug-In . SVG Version: 6.00 Build 0)  -->
<svg version="1.1" xmlns="http://www.w3.org/2000/svg" xmlns:xlink="http://www.w3.org/1999/xlink" x="0px" y="0px"
	 viewBox="0 0 1280 900" style="enable-background:new 0 0 1280 900;" xml:space="preserve">
<style type="text/css">
	.st0{fill:#FBFBFB;stroke:#CCCCCC;stroke-width:0.5;stroke-miterlimit:10;}
	.st1{fill:#42352B;}
	.st2{fill:#FBFBFB;stroke:#EDE8E4;stroke-miterlimit:10;}
	.st3{fill:none;}
	.st4{fill:#A19893;}
	.st5{fill:#D1CDCA;}
	.st6{fill:#00C1C6;}
	.st7{fill:none;stroke:#CCCCCC;stroke-width:0.5;stroke-miterlimit:10;}
	.st8{fill:#999999;}
	.st9{fill:#CCCCCC;}
	.st10{fill:none;stroke:#FF3194;stroke-miterlimit:10;}
	.st11{fill:#FF3194;}
	.st12{opacity:0.5;}
	.st13{fill:none;stroke:#FF3194;stroke-width:0.5;stroke-miterlimit:10;}
	.st14{fill:none;stroke:#FF3194;stroke-width:0.5;stroke-miterlimit:10;stroke-dasharray:2.9975,2.9975;}
	.st15{fill:none;stroke:#FF3194;stroke-width:0.5;stroke-miterlimit:10;stroke-dasharray:2.9032,2.9032;}
	.st16{fill:#BEB7AA;}
	.st17{clip-path:url(#SVGID_2_);}
	.st18{fill:#FFFFFF;}
	.st19{fill:#FBFBFB;}
	.st20{fill:#CECECE;}
	.st21{fill:#00001D;}
	.st22{fill:#BBBBBB;}
	.st23{fill:#6F6259;}
	.st24{fill:#7BDFE2;}
	.st25{fill:#BDEFF0;}
	.st26{fill:#3ACFD3;}
	.st27{fill:#F3FCFC;}
	.st28{fill:#97102C;}
	.st29{fill:#A22A43;}
	.st30{fill:#CC8B98;}
	.st31{fill:#F4E7E9;}
	.st32{fill:#E9B33B;}
	.st33{fill:#EAB848;}
	.st34{fill:#F4D99C;}
	.st35{fill:#FDF8ED;}
	.st36{fill:#49C29A;}
	.st37{fill:#59C7A3;}
	.st38{fill:#A4E0CC;}
	.st39{fill:#EEF9F6;}
	.st40{fill:#5883B4;}
	.st41{fill:#678EBB;}
	.st42{fill:#ABC1D9;}
	.st43{fill:#EFF3F8;}
</style>
<g id="Capa_1">
	<g>
		<g>
			<path class="st1" d="M567.6,443.9c-1.4,0-2.7-0.2-3.9-0.7c-1.2-0.5-2.2-1.1-3.1-1.9c-0.9-0.8-1.6-1.8-2.1-2.9
				c-0.5-1.1-0.7-2.4-0.7-3.8v-0.1c0-1.3,0.2-2.5,0.7-3.7c0.5-1.1,1.2-2.1,2-3c0.9-0.8,1.9-1.5,3.1-2c1.2-0.5,2.5-0.7,3.9-0.7
				c1.6,0,3,0.2,4.1,0.7s2.2,1.1,3.2,1.9l-2.9,3.5c-0.7-0.5-1.3-1-2-1.3c-0.7-0.3-1.5-0.4-2.4-0.4c-0.7,0-1.3,0.1-1.8,0.4
				c-0.6,0.3-1,0.6-1.5,1.1c-0.4,0.4-0.7,1-1,1.6c-0.2,0.6-0.4,1.2-0.4,1.9v0.1c0,0.7,0.1,1.4,0.4,2c0.2,0.6,0.6,1.1,1,1.6
				c0.4,0.4,1,0.8,1.5,1c0.6,0.2,1.3,0.4,2,0.4c1.2,0,2.1-0.2,2.9-0.7v-2.2h-3.6V433h8.3v8.1c-1,0.8-2.1,1.4-3.4,2
				C570.7,443.6,569.3,443.9,567.6,443.9z"/>
			<path class="st1" d="M592.4,443.9c-1.4,0-2.7-0.2-3.9-0.7c-1.2-0.5-2.2-1.2-3.1-2c-0.9-0.8-1.5-1.8-2-3c-0.5-1.1-0.7-2.3-0.7-3.6
				v-0.1c0-1.3,0.2-2.5,0.7-3.6c0.5-1.1,1.2-2.1,2-3c0.9-0.8,1.9-1.5,3.1-2c1.2-0.5,2.5-0.7,3.9-0.7s2.7,0.2,3.9,0.7
				c1.2,0.5,2.2,1.2,3.1,2c0.9,0.8,1.5,1.8,2,3c0.5,1.1,0.7,2.3,0.7,3.6v0.1c0,1.3-0.2,2.5-0.7,3.6c-0.5,1.1-1.2,2.1-2,3
				c-0.9,0.8-1.9,1.5-3.1,2C595.1,443.7,593.8,443.9,592.4,443.9z M592.5,439.4c0.7,0,1.3-0.1,1.9-0.4c0.6-0.3,1-0.6,1.4-1
				c0.4-0.4,0.7-0.9,0.9-1.5c0.2-0.6,0.3-1.2,0.3-1.9v-0.1c0-0.7-0.1-1.3-0.3-1.9c-0.2-0.6-0.5-1.1-1-1.5c-0.4-0.4-0.9-0.8-1.5-1.1
				c-0.6-0.3-1.2-0.4-1.9-0.4c-0.7,0-1.3,0.1-1.9,0.4c-0.6,0.3-1,0.6-1.4,1c-0.4,0.4-0.7,0.9-0.9,1.5c-0.2,0.6-0.3,1.2-0.3,1.9v0.1
				c0,0.7,0.1,1.3,0.3,1.9c0.2,0.6,0.5,1.1,0.9,1.5c0.4,0.4,0.9,0.8,1.5,1.1C591.1,439.3,591.8,439.4,592.5,439.4z"/>
			<path class="st1" d="M608.5,425.5h5.6l4.1,11.4l4.1-11.4h5.5l-7.3,18.1h-4.6L608.5,425.5z"/>
			<path class="st1" d="M634.6,425.5h14.5v4.2h-9.5v2.7h8.6v3.9h-8.6v2.9h9.7v4.2h-14.6V425.5z"/>
			<path class="st1" d="M656.9,425.5h8.5c1.4,0,2.6,0.2,3.5,0.5c1,0.3,1.7,0.8,2.3,1.4c1.1,1,1.6,2.4,1.6,4.2v0.1
				c0,1.4-0.3,2.5-1,3.4c-0.7,0.9-1.6,1.6-2.7,2.1l4.3,6.3h-5.8l-3.6-5.5H664h-2.1v5.5h-5V425.5z M665.2,434.2c0.9,0,1.5-0.2,2-0.6
				c0.5-0.4,0.7-0.9,0.7-1.6V432c0-0.7-0.2-1.3-0.7-1.6c-0.5-0.4-1.1-0.5-2-0.5h-3.3v4.3H665.2z"/>
			<path class="st1" d="M680.6,425.5h4.7l7.4,9.5v-9.5h4.9v18h-4.4l-7.7-9.9v9.9h-4.9V425.5z"/>
			<path class="st1" d="M712.1,425.4h4.8l7.7,18.1h-5.4l-1.3-3.2H711l-1.3,3.2h-5.2L712.1,425.4z M716.5,436.5l-2-5.1l-2,5.1H716.5z
				"/>
			<path class="st1" d="M731.5,425.5h4.7l7.4,9.5v-9.5h4.9v18h-4.4l-7.7-9.9v9.9h-4.9V425.5z"/>
			<path class="st1" d="M765.5,443.9c-1.3,0-2.5-0.2-3.6-0.7c-1.1-0.5-2.1-1.1-2.9-1.9c-0.8-0.8-1.5-1.8-2-3
				c-0.5-1.1-0.7-2.4-0.7-3.7v-0.1c0-1.3,0.2-2.5,0.7-3.7c0.5-1.1,1.1-2.1,2-3c0.8-0.8,1.8-1.5,3-2c1.2-0.5,2.4-0.7,3.8-0.7
				c0.9,0,1.8,0.1,2.5,0.3c0.8,0.2,1.4,0.4,2.1,0.8c0.6,0.3,1.2,0.7,1.7,1.2c0.5,0.5,1,1,1.4,1.5l-3.8,2.9c-0.5-0.7-1.1-1.2-1.7-1.5
				c-0.6-0.4-1.4-0.6-2.2-0.6c-0.6,0-1.2,0.1-1.7,0.4c-0.5,0.2-1,0.6-1.4,1c-0.4,0.4-0.7,0.9-0.9,1.5c-0.2,0.6-0.3,1.2-0.3,1.9v0.1
				c0,0.7,0.1,1.3,0.3,1.9c0.2,0.6,0.5,1.1,0.9,1.5c0.4,0.4,0.8,0.8,1.4,1c0.5,0.2,1.1,0.4,1.7,0.4c0.5,0,0.9-0.1,1.3-0.2
				c0.4-0.1,0.7-0.3,1.1-0.5c0.3-0.2,0.6-0.4,0.9-0.7c0.3-0.3,0.6-0.6,0.8-0.9l3.8,2.7c-0.4,0.6-0.9,1.1-1.4,1.6
				c-0.5,0.5-1.1,0.9-1.7,1.3c-0.6,0.4-1.4,0.6-2.2,0.8C767.4,443.8,766.5,443.9,765.5,443.9z"/>
			<path class="st1" d="M780.8,425.5h14.5v4.2h-9.5v2.7h8.6v3.9h-8.6v2.9h9.7v4.2h-14.6V425.5z"/>
		</g>
		<g>
			<path class="st1" d="M558.4,457.3h6.9c1.6,0,3,0.2,4.3,0.7c1.3,0.4,2.3,1.1,3.2,1.8c0.9,0.8,1.5,1.7,2,2.8
				c0.5,1.1,0.7,2.3,0.7,3.6v0.1c0,1.3-0.2,2.5-0.7,3.6c-0.5,1.1-1.1,2.1-2,2.9c-0.9,0.8-2,1.4-3.2,1.9c-1.3,0.5-2.7,0.7-4.3,0.7
				h-6.8V457.3z M565.5,470.9c1.5,0,2.7-0.4,3.6-1.2c0.9-0.8,1.4-1.9,1.4-3.4v-0.1c0-1.4-0.5-2.6-1.4-3.4c-0.9-0.8-2.1-1.2-3.6-1.2
				h-2v9.2H565.5z"/>
			<path class="st1" d="M589.5,457.1h4.8l7.7,18.1h-5.4l-1.3-3.2h-6.9l-1.3,3.2h-5.2L589.5,457.1z M593.9,468.2l-2-5.1l-2,5.1H593.9
				z"/>
			<path class="st1" d="M613.3,461.6h-5.4v-4.4h15.8v4.4h-5.4v13.6h-5V461.6z"/>
			<path class="st1" d="M637.2,457.1h4.8l7.7,18.1h-5.4l-1.3-3.2h-6.9l-1.3,3.2h-5.2L637.2,457.1z M641.6,468.2l-2-5.1l-2,5.1H641.6
				z"/>
		</g>
		<g>
			<path class="st1" d="M682.1,457.1h4.8l7.7,18.1h-5.4l-1.3-3.2h-6.9l-1.3,3.2h-5.2L682.1,457.1z M686.4,468.2l-2-5.1l-2,5.1H686.4
				z"/>
			<path class="st1" d="M701.4,457.3h5v13.6h8.7v4.4h-13.7V457.3z"/>
			<path class="st1" d="M722.4,457.3h5v13.6h8.7v4.4h-13.7V457.3z"/>
			<path class="st1" d="M743.5,457.3h5v18h-5V457.3z"/>
			<path class="st1" d="M763.2,457.1h4.8l7.7,18.1h-5.4l-1.3-3.2h-6.9l-1.3,3.2h-5.2L763.2,457.1z M767.6,468.2l-2-5.1l-2,5.1H767.6
				z"/>
			<path class="st1" d="M782.6,457.3h4.7l7.4,9.5v-9.5h4.9v18h-4.4l-7.7-9.9v9.9h-4.9V457.3z"/>
			<path class="st1" d="M816.6,475.6c-1.3,0-2.5-0.2-3.6-0.7c-1.1-0.5-2.1-1.1-2.9-1.9c-0.8-0.8-1.5-1.8-2-3
				c-0.5-1.1-0.7-2.4-0.7-3.7v-0.1c0-1.3,0.2-2.5,0.7-3.7c0.5-1.1,1.1-2.1,2-3c0.8-0.8,1.8-1.5,3-2c1.2-0.5,2.4-0.7,3.8-0.7
				c0.9,0,1.8,0.1,2.5,0.3c0.8,0.2,1.4,0.4,2.1,0.8c0.6,0.3,1.2,0.7,1.7,1.2c0.5,0.5,1,1,1.4,1.5l-3.8,2.9c-0.5-0.7-1.1-1.2-1.7-1.5
				c-0.6-0.4-1.4-0.6-2.2-0.6c-0.6,0-1.2,0.1-1.7,0.4c-0.5,0.2-1,0.6-1.4,1c-0.4,0.4-0.7,0.9-0.9,1.5c-0.2,0.6-0.3,1.2-0.3,1.9v0.1
				c0,0.7,0.1,1.3,0.3,1.9c0.2,0.6,0.5,1.1,0.9,1.5c0.4,0.4,0.8,0.8,1.4,1c0.5,0.2,1.1,0.4,1.7,0.4c0.5,0,0.9-0.1,1.3-0.2
				c0.4-0.1,0.7-0.3,1.1-0.5c0.3-0.2,0.6-0.4,0.9-0.7c0.3-0.3,0.6-0.6,0.8-0.9l3.8,2.7c-0.4,0.6-0.9,1.1-1.4,1.6
				c-0.5,0.5-1.1,0.9-1.7,1.3c-0.6,0.4-1.4,0.6-2.2,0.8C818.5,475.5,817.6,475.6,816.6,475.6z"/>
			<path class="st1" d="M831.9,457.3h14.5v4.2h-9.5v2.7h8.6v3.9h-8.6v2.9h9.7v4.2h-14.6V457.3z"/>
		</g>
		<g>
			
				<rect x="474.1" y="440.5" transform="matrix(0.7071 -0.7071 0.7071 0.7071 -176.5523 473.7614)" class="st3" width="18.9" height="18.9"/>
			<path class="st3" d="M454.9,465.4c-2.2,2.2-2.2,5.7,0,7.9l5.5,5.5c2.2,2.2,5.7,2.2,7.9,0l4.3-4.3L459.2,461L454.9,465.4z"/>
			<path class="st3" d="M512.4,434.6c2.2-2.2,2.2-5.7,0-7.9l-5.5-5.5c-2.2-2.2-5.7-2.2-7.9,0l-4.3,4.3L508,439L512.4,434.6z"/>
			<path class="st3" d="M468.3,421.3c-2.2-2.2-5.7-2.2-7.9,0l-5.5,5.5c-2.2,2.2-2.2,5.7,0,7.9l4.3,4.3l13.4-13.4L468.3,421.3z"/>
			<path class="st3" d="M499,478.7c2.2,2.2,5.7,2.2,7.9,0l5.5-5.5c2.2-2.2,2.2-5.7,0-7.9L508,461l-13.4,13.4L499,478.7z"/>
			<path class="st1" d="M494.6,425.6l-11-11l-11.4-11.4c-4.4-4.4-11.5-4.4-15.9,0l-19.6,19.6c-4.4,4.4-4.4,11.5,0,15.9l11.4,11.4
				l11-11l-4.3-4.3c-2.2-2.2-2.2-5.7,0-7.9l5.5-5.5c2.2-2.2,5.7-2.2,7.9,0l4.3,4.3l11,11L497,450l11-11L494.6,425.6z"/>
			<path class="st1" d="M530.4,461.4L519,450l-11,11l4.3,4.3c2.2,2.2,2.2,5.7,0,7.9l-5.5,5.5c-2.2,2.2-5.7,2.2-7.9,0l-4.3-4.3
				l-11-11L470.2,450l-11,11l13.4,13.4l11,11l11.4,11.4c4.4,4.4,11.5,4.4,15.9,0l19.6-19.6C534.8,472.9,534.8,465.8,530.4,461.4z"/>
			<path class="st4" d="M468.3,478.7c-2.2,2.2-5.7,2.2-7.9,0l-5.5-5.5c-2.2-2.2-2.2-5.7,0-7.9l4.3-4.3l11-11l13.4-13.4l-11-11
				L459.2,439l-11,11l-11.4,11.4c-4.4,4.4-4.4,11.5,0,15.9l19.6,19.6c4.4,4.4,11.5,4.4,15.9,0l11.4-11.4l-11-11L468.3,478.7z"/>
			<path class="st4" d="M530.4,422.8l-19.6-19.6c-4.4-4.4-11.5-4.4-15.9,0l-11.4,11.4l11,11l4.3-4.3c2.2-2.2,5.7-2.2,7.9,0l5.5,5.5
				c2.2,2.2,2.2,5.7,0,7.9L508,439l-11,11l-13.4,13.4l11,11L508,461l11-11l11.4-11.4C534.8,434.2,534.8,427.1,530.4,422.8z"/>
		</g>
	</g>
</g>
<g id="Capa_2">
</g>
<g id="Capa_3">
</g>
<g id="Capa_4">
</g>
</svg>
