<svg width="649" height="200" viewBox="0 0 649 200" fill="none" xmlns="http://www.w3.org/2000/svg">
<g opacity="0.2">
<path d="M46.3225 168.054C64.9436 189.18 97.7471 199.487 122.432 185.929C143.014 174.621 156.887 147.66 182.479 145.759C188.348 145.323 194.566 146.317 199.247 149.889C207.291 156.027 209.279 168.396 218.19 173.191C224.113 176.381 231.399 175.226 237.879 177.018C245.286 179.067 251.182 184.909 254.955 191.604C264.095 207.801 267.875 225.079 282.971 237.804C293.487 246.668 309.093 250.979 321.247 244.546C329.48 240.188 335.477 231.425 344.636 229.726C347.665 229.162 350.821 229.444 353.789 228.624C360.726 226.711 364.882 218.894 364.285 211.729C363.687 204.564 359.255 198.198 353.849 193.45C348.45 188.703 342.051 185.258 336.014 181.35C316.11 168.477 299.101 155.47 299 130.254C298.98 125.345 299.289 120.383 300.773 115.702C306.32 98.2162 334.14 85.4776 351.036 83.4697C354.4 83.0735 357.811 83.3354 361.196 83.1004C378.46 81.9118 393.227 66.5274 394.953 49.3098C396.679 32.0921 386.109 14.6797 370.577 7.05805C363.022 3.35128 354.575 1.75308 346.987 -1.88653C337.914 -6.23795 330.266 -13.4232 320.75 -16.7002C316.836 -18.0499 312.692 -18.7013 308.858 -20.2659C300.632 -23.6168 294.649 -30.755 289.062 -37.6649C280.849 -47.8114 272.469 -58.2401 261.261 -64.9284C245.185 -74.531 225.281 -75.1891 206.694 -72.8925C188.106 -70.5959 169.828 -65.6335 151.106 -64.9552C120.323 -63.8338 87.8825 -74.0878 59.5916 -61.9065C32.3012 -50.1617 5.48092 -11.328 8.92579 19.2058C10.336 31.7362 17.031 43.0445 18.5553 55.7362C20.9191 75.378 18.9515 95.1474 22.5105 114.742C26.0158 134.082 33.1809 153.146 46.3225 168.054Z" stroke="white" stroke-miterlimit="10"/>
<path d="M490.133 391.104C504.846 407.872 525.576 416.407 547.903 418.455C568.62 420.355 592.183 427.151 611.905 416.702C632.581 405.743 639.888 380.649 641.351 357.999C642.882 334.207 640.176 310.375 638.088 286.616C634.489 245.641 632.749 204.282 638.014 163.474C642.694 127.232 652.868 90.5139 645.266 54.7289C642.426 41.3725 636.087 27.3714 623.348 21.3748C617.748 18.7357 611.435 17.9232 605.257 17.1375C572.447 12.9942 536.602 4.05638 510.372 29.7754C497.882 42.0171 491.523 58.6707 483.095 73.7798C474.668 88.8956 462.312 103.837 444.853 107.349C424.452 111.452 402.688 98.7601 382.973 105.254C373.128 108.497 365.171 116.602 362.384 126.239C359.597 135.875 362.048 146.767 368.743 154.429C377.876 164.891 393.636 169.001 401.231 180.544C410.552 194.713 404.535 215.597 416.286 227.986C424.513 236.656 438.211 237.582 448.982 243.102C458.471 247.964 465.488 256.351 471.042 265.195C476.071 273.2 480.208 282.057 480.51 291.404C480.873 302.552 475.81 313.108 473.217 323.973C467.664 347.248 474.124 372.866 490.133 391.104Z" stroke="white" stroke-miterlimit="10"/>
<path d="M34.026 -3.01468C31.7026 14.3641 37.397 31.6959 39.2638 49.1285C42.5072 79.4474 34.7109 112.761 50.599 138.782C63.7137 160.264 92.609 170.572 116.36 162.252C132.638 156.551 145.283 143.705 160.217 135.076C175.152 126.44 196.036 122.928 208.318 135.042C214.18 140.824 217.323 149.513 224.602 153.361C231.425 156.96 239.818 155.181 247.299 157.081C262.381 160.909 269.479 177.737 274.865 192.342C280.25 206.948 288.711 223.568 304.143 225.582C308.696 226.18 313.336 225.334 317.714 223.937C321.636 222.688 325.625 220.828 327.888 217.39C331.359 212.119 329.546 204.772 325.645 199.81C321.743 194.847 316.163 191.55 311.133 187.729C294.345 174.984 282.943 154.744 282.755 133.672C282.567 112.6 294.44 91.3735 313.403 82.1804C328.808 74.7132 348.893 74.223 359.012 60.4233C368.387 47.6444 363.653 28.2175 351.78 17.715C334.824 2.71334 308.796 3.37814 289.846 -9.00459C270.158 -21.8708 260.018 -47.5563 238.086 -56.0509C211.863 -66.1975 183.653 -46.8377 155.537 -46.3341C140.253 -46.0588 125.493 -51.4175 110.384 -53.7208C75.4853 -59.0526 39.0355 -40.5054 34.026 -3.01468Z" stroke="white" stroke-miterlimit="10"/>
<path d="M509.627 72.6248C501.743 90.1177 493.175 109.484 475.299 117.737C454.328 127.42 429.69 117.871 406.422 117.784C401.406 117.764 396 118.355 392.253 121.565C384.121 128.542 389.634 141.892 397.9 148.728C406.167 155.564 417.085 160.392 421.511 169.968C428.246 184.56 417.589 205.484 430.408 215.631C437.674 221.385 448.304 219.646 457.618 220.969C475.93 223.575 490.046 239.275 494.934 256.432C499.83 273.589 497.063 291.908 492.503 309.153C489.656 319.917 486.084 330.93 487.736 341.922C491.268 365.419 517.349 379.897 541.833 382.972C555.626 384.705 570.043 383.899 582.802 378.56C595.561 373.228 606.459 362.961 610.267 350.101C612.543 342.419 612.241 334.274 611.697 326.303C609.73 297.576 604.74 268.976 605.439 240.195C606.278 205.437 615.37 171.418 620.333 136.983C623.388 115.756 624.825 93.7506 618.433 73.2157C612.046 52.6808 596.514 33.7172 575.086 27.8079C542.397 18.8028 520.902 47.6041 509.627 72.6248Z" stroke="white" stroke-miterlimit="10"/>
<path d="M48.296 9.4352C47.5573 28.9091 52.7817 48.148 53.2854 67.6287C53.7554 85.8402 50.1695 104.663 56.005 121.921C62.5791 141.354 83.1946 156.208 103.401 152.683C117.61 150.205 128.958 139.944 141.254 132.403C152.294 125.627 164.569 120.88 177.294 118.456C188.965 116.233 202.248 116.381 211.226 124.164C215.537 127.904 218.941 132.625 222.85 136.754C224.253 138.238 225.697 139.749 227.523 140.656C234.594 144.168 243.848 137.359 250.691 141.294C253.289 142.791 254.867 145.524 256.392 148.11C259.266 152.992 265.921 158.874 271.823 154.65C278.558 149.829 273.831 136.385 272.79 130.086C269.245 108.692 280.157 85.6454 298.946 74.8206C305.191 71.2213 312.107 68.918 318.42 65.4328C324.732 61.9544 330.661 56.9248 332.904 50.0753C336.06 40.4323 330.89 29.6344 323.053 23.1878C315.223 16.7413 305.211 13.6993 295.487 10.8051C285.764 7.91757 275.752 4.88233 267.908 -1.5575C253.088 -13.7254 247.837 -36.5099 230.223 -44.0913C221.634 -47.7913 211.709 -46.925 202.718 -44.3666C193.719 -41.8081 185.252 -37.6716 176.334 -34.8311C165.193 -31.2855 153.301 -29.8216 141.724 -31.4332C121.578 -34.2401 97.3502 -47.9659 76.7682 -40.2771C58.0061 -33.2731 48.981 -8.76957 48.296 9.4352Z" stroke="white" stroke-miterlimit="10"/>
<path d="M293.674 202.939C295.528 205.283 297.629 207.579 300.383 208.734C303.136 209.889 306.702 209.6 308.649 207.337C310.529 205.148 310.368 201.744 309.005 199.192C307.642 196.647 305.312 194.773 302.995 193.048C298.704 189.844 293.95 186.729 290.565 182.505C288.598 180.047 286.395 171.828 283.763 172.123C274.079 173.218 291.31 199.951 293.674 202.939Z" stroke="white" stroke-miterlimit="10"/>
<path d="M147.97 -21.4813C137.286 -23.6033 127.186 -27.9681 116.67 -30.7751C106.148 -33.5887 94.6446 -34.7572 84.5988 -30.5602C71.4371 -25.0605 63.2983 -11.1736 60.8607 2.88126C58.4231 16.9361 60.7667 31.3333 63.1976 45.3882C65.6285 59.443 68.1534 73.7798 66.0717 87.8951C64.8428 96.2286 62.009 104.528 63.0767 112.889C64.7488 126.03 77.2726 136.882 90.5215 136.66C101.192 136.486 110.748 130.133 118.759 123.082C126.77 116.032 134.089 107.933 143.524 102.95C152.146 98.3976 161.964 96.7456 171.607 95.3153C179.269 94.1804 187.065 93.1396 194.741 94.1804C202.416 95.2213 210.085 98.6057 214.718 104.824C217.633 108.739 219.17 113.493 221.668 117.69C224.16 121.887 228.162 125.762 233.044 125.876C239.195 126.017 246.098 120.43 250.718 124.486C253.478 126.91 255.13 132.443 258.528 131.033C259.69 130.55 260.334 129.314 260.771 128.132C264.773 117.213 258.42 104.569 262.282 93.6029C264.061 88.533 267.869 84.4166 272.052 81.0523C280.735 74.0618 291.331 69.7104 299.86 62.5319C308.388 55.3534 314.781 43.5885 310.792 33.18C308.395 26.9282 302.727 22.4694 296.697 19.5617C287.255 14.9954 276.679 13.5248 266.526 10.9193C256.372 8.31382 245.991 4.1437 239.598 -4.16965C229.995 -16.6464 225.12 -40.4449 204.531 -32.333C185.078 -24.6911 169.861 -17.1366 147.97 -21.4813Z" stroke="white" stroke-miterlimit="10"/>
<path d="M75.9021 37.8067C78.8568 50.7737 82.4293 64.0697 80.3006 77.1978C79.159 84.2621 76.3856 91.0243 75.6604 98.149C74.9419 105.274 76.8557 113.366 82.8926 117.207C88.8624 121.007 96.9743 119.369 102.904 115.501C108.833 111.633 113.252 105.912 118.228 100.882C136.023 82.8855 161.507 73.679 186.796 72.6113C194.136 72.3024 201.737 72.6852 208.379 75.8279C216.665 79.7495 222.561 87.6331 225.939 96.1546C228.41 102.393 231.479 110.492 238.187 110.424C244.09 110.364 247.501 103.474 247.783 97.5783C248.065 91.6824 246.702 85.4641 249.046 80.0517C253.35 70.12 266.948 68.7233 274.919 61.4037C282.742 54.2185 283.716 40.7882 277.001 32.5555C270.44 24.504 259.226 22.4492 249.059 20.3339C241.263 18.7088 228.672 15.7877 224.589 7.89743C220.439 -0.127174 223.75 -10.5222 213.791 -15.6795C206.25 -19.581 197.265 -15.572 189.375 -12.4159C174.246 -6.36555 155.181 -2.74608 139.414 -8.6957C133.048 -11.0997 128.079 -16.7606 121.76 -19.8294C113.695 -23.7511 104.69 -26.1685 96.0207 -22.6296C70.4629 -12.2077 70.7046 14.9819 75.9021 37.8067Z" stroke="white" stroke-miterlimit="10"/>
<path d="M143.671 31.6691C142.839 31.0916 142.053 30.4469 141.341 29.715C136.305 24.5645 135.754 16.6204 132.685 10.1C127.085 -1.81936 112.855 -10.0723 99.7272 -7.29892C93.9254 -6.07676 88.3249 -2.22898 85.6792 3.17C82.9461 8.75029 85.471 15.3714 87.3042 20.9517C91.2527 32.9785 97.1621 44.6696 97.6926 57.3143C97.9074 62.5185 97.2829 67.8839 95.8929 72.9068C94.6842 77.265 92.1727 81.3209 92.3675 85.9879C92.5018 89.1105 93.8918 92.2935 96.4906 94.0327C103.635 98.7937 109.693 89.6276 112.808 84.5576C118.839 74.7334 127.797 65.8089 139.138 63.7339C144.37 62.7804 149.735 63.3445 155.053 63.5123C163.333 63.7742 174.292 62.8811 176.072 52.6539C176.931 47.7116 173.486 42.8498 169.162 40.3115C164.831 37.7732 159.741 36.9875 154.832 35.9131C150.917 35.0602 146.915 33.912 143.671 31.6691Z" stroke="white" stroke-miterlimit="10"/>
<path d="M187.461 4.31153C193.8 2.26341 201.086 0.0272657 206.774 3.499C211.904 6.62826 213.583 13.1487 216.826 18.2119C220.09 23.302 225.274 27.1296 231.103 28.748C235.911 30.0843 241.014 29.9567 245.856 31.1453C250.697 32.3339 255.633 35.4228 256.707 40.2913C257.762 45.0792 254.773 49.8 251.456 53.4194C248.146 57.0389 244.224 60.4368 242.753 65.1105C241.632 68.6628 241.968 72.8463 239.57 75.7003C236.884 78.8967 231.761 78.9169 228.054 76.9896C224.347 75.0624 221.674 71.6779 218.901 68.5554C216.128 65.4328 212.918 62.3573 208.849 61.444C204.343 60.43 199.38 62.2163 195.116 60.4233C189.207 57.9387 187.924 50.3237 187.112 43.9645C186.863 42.0037 186.541 39.9623 185.359 38.3842C184.56 37.3232 183.425 36.5577 182.263 35.913C172.063 30.2656 157.74 31.7832 150.487 22.6573C144.202 14.7402 153.449 8.68981 160.795 8.30704C170.223 7.81012 178.281 7.27963 187.461 4.31153Z" stroke="white" stroke-miterlimit="10"/>
<path d="M130.624 26.955C129.301 21.7575 127.159 16.7749 124.298 12.2421C121.727 8.16604 118.483 4.37871 114.286 2.00826C110.297 -0.241317 105.281 -1.25531 100.735 -0.590506C95.6247 0.154875 93.12 3.61989 92.5224 8.70998C91.7904 14.9685 94.1541 21.1531 96.9073 26.8207C99.6673 32.4816 102.904 38.035 104.126 44.213C105.234 49.7933 104.63 55.5414 104.529 61.2292C104.475 64.0361 105.08 67.5683 107.786 68.2935C110.855 69.1127 113.977 65.0837 115.965 63.1564C118.906 60.3025 121.196 57.1128 124.58 54.6819C127.119 52.8621 130.094 51.3377 133.209 51.5728C136.084 51.7877 138.622 53.4597 141.389 54.2454C143.846 54.9438 146.606 54.8968 148.836 53.6545C151.065 52.4055 152.616 49.8134 152.193 47.2885C151.79 44.8778 149.722 43.0042 147.419 42.1917C143.463 40.7882 138.796 42.3059 135.298 39.4922C132.464 37.2158 131.934 33.2001 131.228 29.6344C131.047 28.7346 130.846 27.8414 130.624 26.955Z" stroke="white" stroke-miterlimit="10"/>
<path d="M100.097 12.128C99.9156 15.7273 101.829 19.0647 103.824 22.0664C105.818 25.0681 108.014 28.1168 108.545 31.6825C108.766 33.1867 108.679 34.7312 109.055 36.2018C109.679 38.6394 111.64 40.6875 114.051 41.4128C116.462 42.138 119.228 41.5202 121.095 39.8347C123.385 37.7732 124.151 34.5029 124.292 31.4206C124.641 23.8124 121.673 16.1571 116.475 10.6104C114.273 8.26678 110.693 4.76819 107.255 4.68761C103.582 4.60703 100.271 8.68312 100.097 12.128Z" stroke="white" stroke-miterlimit="10"/>
<path d="M158.243 50.8542C157.921 51.4989 157.699 52.2174 157.726 52.9359C157.767 54.1447 158.499 55.2392 159.398 56.0585C161.144 57.6433 163.669 58.3819 165.952 57.791C170.458 56.636 172.211 50.5521 168.356 47.5235C165.267 45.1061 159.801 47.7384 158.243 50.8542Z" stroke="white" stroke-miterlimit="10"/>
<path d="M185.017 15.8683C190.167 15.8213 195.15 11.846 200.058 13.4039C204.672 14.8678 206.445 20.2466 208.929 24.3966C212.522 30.3932 218.834 34.6909 225.737 35.8325C229.498 36.457 233.849 36.3898 236.387 39.2371C238.127 41.1912 238.469 43.9847 238.65 46.5901C238.865 49.7261 238.953 52.9494 237.925 55.9175C236.898 58.8856 234.527 61.5716 231.438 62.1357C227.765 62.8072 224.267 60.4301 221.439 57.9925C218.612 55.5549 215.651 52.7815 211.938 52.4256C208.52 52.1033 205.001 53.9231 201.724 52.8822C198.205 51.7608 196.473 47.819 195.68 44.2063C194.888 40.5935 194.485 36.6584 192.067 33.8582C189.771 31.2057 186.131 30.1783 182.653 29.762C177.16 29.1039 165.65 29.3456 166.577 20.8913C167.55 11.8862 179.497 15.9153 185.017 15.8683Z" stroke="white" stroke-miterlimit="10"/>
<path d="M213.375 39.9556C215.47 40.936 217.874 40.8756 220.184 40.9629C222.984 41.077 225.858 41.4665 228.309 42.8364C230.76 44.2063 232.721 46.711 232.782 49.518C232.802 50.3775 232.634 51.2505 232.191 51.9891C230.868 54.1783 227.691 54.3193 225.261 53.5202C223.085 52.8084 221.084 51.5594 219.492 49.9141C218.378 48.7659 217.417 47.396 216 46.6439C214.503 45.8515 212.737 45.8783 211.078 45.5426C208.446 45.0121 206.022 43.5213 204.363 41.4061C202.61 39.1699 201.69 33.6568 206.022 33.8582C208.755 33.9858 210.877 38.7804 213.375 39.9556Z" stroke="white" stroke-miterlimit="10"/>
<path d="M517.302 100.298C511.708 112.943 503.415 125.325 490.63 131.476C469.51 141.636 444.456 131.886 420.859 131.073C418.657 131 416.326 131.033 414.413 132.087C409.799 134.632 410.39 141.623 413.855 145.504C417.32 149.386 422.538 151.299 426.983 154.113C434.82 159.082 440.387 167.255 441.992 176.146C443.227 182.975 442.381 190.563 446.504 196.251C451.776 203.517 462.379 204.228 471.283 206.518C487.5 210.682 501.098 222.285 508.995 236.515C516.899 250.744 519.411 267.391 517.953 283.46C515.912 306.003 506.417 328.741 512.427 350.619C514.24 357.213 517.645 363.686 523.393 367.688C529.799 372.141 538.139 372.946 546.043 373.101C555.84 373.296 566.417 372.456 573.938 366.413C581.808 360.087 584.4 349.631 585.743 339.854C590.121 308.085 586.24 275.886 585.172 243.854C584.333 218.518 585.259 193.121 587.952 167.899C590.887 140.401 595.923 112.943 594.815 85.3164C594.11 67.6623 583.937 29.9164 557.284 38.2835C532.284 46.1335 526.139 80.3271 517.302 100.298Z" stroke="white" stroke-miterlimit="10"/>
<path d="M526.865 119.812C518.142 134.7 503.389 147.714 485.667 148.996C476.877 149.634 468.147 147.358 459.801 144.638C455.187 143.134 449.533 141.663 445.9 144.786C442.12 148.043 443.369 154.153 446.29 158.142C449.211 162.131 453.461 165.247 455.59 169.672C457.618 173.896 457.571 179.046 460.593 182.679C465.522 188.602 475.044 187.105 482.786 188.589C504.852 192.813 518.874 222.917 525.589 241.088C533.996 263.845 536.111 288.819 530.981 312.503C529.443 319.608 527.281 326.686 527.321 333.945C527.362 341.204 530.048 348.926 536.266 353.036C544.552 358.516 556.599 355.628 563.697 348.785C574.005 338.847 575.214 324.913 576.51 311.872C578.155 295.353 577.013 279.962 575.59 263.436C573.609 240.47 576.584 217.786 576.234 195.015C575.879 171.747 575.516 146.72 579.874 123.774C582.419 110.377 587.187 97.0746 585.998 83.5033C584.662 68.2129 566.699 44.4211 551.059 61.7798C544.586 68.965 542.625 80.3337 539.684 89.1306C536.185 99.6398 532.519 110.162 526.865 119.812Z" stroke="white" stroke-miterlimit="10"/>
<path d="M561.079 73.115C558.91 74.3976 557.533 76.6606 556.412 78.9169C549.354 93.059 549.005 109.713 542.585 124.15C532.848 146.041 508.365 160.412 484.506 158.236C481.249 157.941 477.959 157.37 474.735 157.941C471.519 158.512 468.295 160.553 467.476 163.722C466.294 168.269 470.659 172.627 475.232 173.688C479.812 174.749 484.573 173.641 489.267 173.493C498.01 173.218 506.82 176.454 513.314 182.323C519.458 187.877 523.373 195.431 528.732 201.737C534.097 208.042 542.028 213.361 550.16 211.803C556.835 210.52 561.905 204.846 564.759 198.675C569.949 187.461 569.332 174.567 569.466 162.205C569.681 142.644 572.078 123.156 576.483 104.105C578.048 97.3365 579.935 91.904 577.954 85.0881C576.047 78.5274 569.318 68.2398 561.079 73.115Z" stroke="white" stroke-miterlimit="10"/>
<path d="M543.545 149.634C540.04 151.937 536.011 153.482 532.841 156.228C528.503 159.996 526.18 165.952 526.831 171.66C527.476 177.368 531.075 182.659 536.145 185.352C537.28 185.956 538.502 186.453 539.416 187.353C541.014 188.918 541.578 191.59 543.66 192.416C545.58 193.182 547.736 191.859 549.012 190.234C552.208 186.185 552.255 180.537 551.765 175.407C551.275 170.276 550.422 164.918 552.255 160.096C553.329 157.276 555.25 154.872 556.694 152.226C559.198 147.64 560.239 142.268 559.628 137.077C559.427 135.331 558.896 133.41 557.365 132.544C552.409 129.744 547.715 146.894 543.545 149.634Z" stroke="white" stroke-miterlimit="10"/>
</g>
</svg>
