<svg width="898" height="611" viewBox="0 0 898 611" fill="none" xmlns="http://www.w3.org/2000/svg">
<g opacity="0.2">
<path d="M917.274 113.117C891.618 146.291 843.853 164.742 805.874 146.951C774.207 132.112 751.015 93.3692 712.802 92.9891C704.038 92.901 694.892 94.9718 688.278 100.728C676.909 110.617 675.136 129.189 662.351 137.166C653.854 142.471 642.916 141.451 633.457 144.734C622.645 148.485 614.441 157.73 609.472 168.04C597.437 192.983 593.469 219.022 572.251 239.374C557.469 253.551 534.689 261.449 516.012 253.049C503.361 247.359 493.612 234.908 479.838 233.258C475.284 232.709 470.62 233.43 466.131 232.496C455.64 230.314 448.716 219.095 448.92 208.39C449.124 197.685 455.102 187.801 462.682 180.229C470.252 172.658 479.433 166.928 488.032 160.543C516.381 139.512 540.417 118.557 538.158 81.0748C537.72 73.7779 536.787 66.4326 534.134 59.6187C524.221 34.162 481.66 17.8881 456.36 16.5178C451.322 16.2503 446.278 16.9653 441.226 16.9393C415.455 16.8217 392.041 -4.63084 387.832 -30.0532C383.623 -55.4756 397.668 -82.3617 420.022 -95.1717C430.895 -101.402 443.296 -104.584 454.226 -110.717C467.292 -118.05 477.973 -129.459 491.8 -135.237C497.489 -137.617 503.585 -138.981 509.133 -141.672C521.038 -147.438 529.248 -158.617 536.891 -169.42C548.127 -185.283 559.585 -201.581 575.602 -212.591C598.576 -228.397 628.092 -231.276 655.934 -229.638C683.777 -228 711.414 -222.371 739.302 -223.151C785.155 -224.424 832.386 -242.761 875.592 -227.36C917.27 -212.513 960.837 -157.363 958.634 -111.658C957.735 -92.9016 948.865 -75.4568 947.812 -56.4502C946.175 -27.0346 950.987 2.15685 947.569 31.6167C944.207 60.6922 935.38 89.708 917.274 113.117Z" stroke="white" stroke-miterlimit="10"/>
<path d="M279.026 486.979C258.762 513.303 228.771 527.966 195.785 533.142C165.18 537.945 130.811 550.295 100.503 536.65C68.7302 522.338 55.476 485.743 51.1374 452.222C46.5899 417.012 48.3355 381.336 49.1701 345.83C50.6058 284.591 49.2406 222.962 37.5194 162.82C27.1026 109.408 8.47699 55.8122 16.3561 1.90597C19.3018 -18.2144 27.3852 -39.6268 45.7435 -49.755C53.8143 -54.2118 63.1173 -56.0222 72.2234 -57.7798C120.587 -67.0706 173.004 -83.7765 214.439 -48.0604C234.17 -31.0607 245.211 -6.9191 259.178 14.7297C273.146 36.3885 292.935 57.4127 319.217 60.9645C349.926 65.1136 381.058 44.174 410.977 51.9412C425.917 55.821 438.517 67.1062 443.578 81.1606C448.64 95.2149 446.038 111.636 436.82 123.661C424.247 140.082 401.218 147.694 391.034 165.574C378.536 187.521 389.472 217.982 373.191 237.516C361.794 251.186 341.525 253.871 326.045 263.103C312.408 271.234 302.781 284.368 295.372 298.042C288.662 310.418 283.361 323.975 283.804 337.896C284.33 354.496 292.863 369.7 297.752 385.599C308.228 419.658 301.075 458.346 279.026 486.979Z" stroke="white" stroke-miterlimit="10"/>
<path d="M893.567 221.992C870.408 226.647 846.669 218.071 825.582 207.422C804.496 196.772 784.14 183.761 761.107 178.527C738.074 173.294 710.789 177.843 696.686 196.796C684.085 213.719 684.582 238.138 670.798 254.105C652.051 275.812 612.501 275.517 601.497 302.008C598.867 308.329 598.373 315.456 595.185 321.513C592.444 326.729 587.875 330.79 582.931 334.004C563.859 346.433 537.679 346.963 518.131 335.303C505.658 327.867 496.067 316.158 483.254 309.336C459.576 296.718 428.138 304.31 409.807 323.906C391.476 343.502 385.557 372.712 390.667 399.058C395.853 425.801 411.328 452.674 402.994 478.611C401.458 483.4 399.097 488.141 399.459 493.148C399.765 497.437 402.039 501.329 404.491 504.87C423.754 532.671 458.633 548.838 492.292 545.562C519.678 542.901 544.358 528.709 569.927 518.518C623.342 497.228 683.478 493.204 739.249 507.186C771.402 515.25 801.787 529.01 833.014 540.11C857.635 548.859 883.328 556.026 909.442 555.25C935.555 554.463 962.369 544.774 979.054 524.672C1003.57 495.139 1000.8 451.768 991.536 414.525C982.268 377.283 967.691 339.751 972.994 301.732C975.805 281.54 984.124 262.548 988.984 242.745C993.844 222.943 994.841 200.713 984.01 183.432C972.811 165.564 951.789 163.247 939.863 180.217C926.117 199.739 920.584 216.568 893.567 221.992Z" stroke="white" stroke-miterlimit="10"/>
<path d="M919.208 -142.282C924.321 -116.678 917.514 -90.3769 916.404 -64.292C914.48 -18.9252 929.247 29.8381 908.121 70.0257C890.683 103.202 848.726 121.28 812.634 111.184C787.9 104.266 767.882 86.3832 744.863 74.9859C721.844 63.5787 690.473 60.354 673.378 79.5298C665.218 88.6819 661.377 101.895 650.927 108.309C641.132 114.309 628.487 112.466 617.552 116.005C595.504 123.134 586.562 148.82 579.954 171.04C573.345 193.259 562.358 218.766 539.618 223.234C532.909 224.557 525.933 223.743 519.293 222.085C513.345 220.603 507.24 218.22 503.549 213.327C497.886 205.824 499.879 194.734 505.203 186.986C510.527 179.239 518.505 173.806 525.614 167.648C549.346 147.103 564.358 115.936 562.625 84.603C560.892 53.2697 541.221 22.8586 512.161 11.0078C488.555 1.38192 458.66 2.5716 442.303 -16.9696C427.151 -35.0652 432.332 -64.3877 448.972 -81.1294C472.737 -105.043 511.481 -106.541 538.46 -126.752C566.491 -147.753 579.107 -186.893 610.889 -201.611C648.889 -219.195 692.662 -193.118 734.494 -195.055C757.233 -196.105 778.656 -205.479 800.89 -210.345C852.244 -221.601 908.183 -197.519 919.208 -142.282Z" stroke="white" stroke-miterlimit="10"/>
<path d="M957.073 369.122C961.86 385.759 967.551 402.278 969.31 419.501C971.527 441.213 967.24 463.544 957.14 482.892C949.297 497.916 937.165 511.682 920.996 516.74C895.956 524.561 870.14 510.017 846.574 498.515C754.018 453.358 641.58 451.074 547.27 492.457C530.857 499.655 514.563 508.217 496.748 510.114C478.922 512.001 458.689 505.275 450.879 489.152C444.351 475.663 447.976 459.728 446.976 444.781C445.665 425.325 436.351 407.316 432.843 388.131C429.326 368.947 434.125 345.391 451.898 337.374C468.2 330.024 487.179 339.226 500.996 350.583C514.812 361.93 527.487 376.106 544.741 380.76C562.362 385.509 582.568 378.248 593.135 363.37C600.404 353.133 603.107 340.303 609.674 329.61C617.548 316.779 631.074 307.552 645.904 304.896C663.756 301.704 684.441 307.049 698.615 295.736C718.966 279.508 709.118 242.122 729.556 225.998C738.483 218.951 751.074 218.253 762.104 221.021C773.135 223.799 783.108 229.601 793.284 234.669C813.729 244.849 835.933 252.32 858.77 252.937C880.763 253.528 900.994 247.117 918.673 234.217C932.638 224.03 944.816 217.376 956.182 236.436C967.346 255.159 952.426 274.034 949.127 292.875C944.651 318.334 950.028 344.623 957.073 369.122Z" stroke="white" stroke-miterlimit="10"/>
<path d="M219.64 15.5471C233.026 40.7906 247.609 68.7529 274.963 79.3104C307.053 91.6979 342.756 75.1542 377.326 72.8023C384.779 72.2933 392.869 72.6552 398.744 77.0675C411.495 86.6595 404.577 107.025 392.945 117.974C381.313 128.922 365.548 137.14 359.886 151.793C351.27 174.122 369.106 204.2 351.024 220.503C340.776 229.749 324.813 228.18 311.098 231.035C284.133 236.656 264.655 261.336 259.029 287.3C253.392 313.265 259.253 340.225 267.676 365.417C272.936 381.142 279.297 397.167 277.891 413.661C274.886 448.916 237.509 472.923 201.418 479.831C181.085 483.723 159.583 483.903 140.112 477.188C120.642 470.483 103.465 456.265 96.5781 437.518C92.4615 426.319 92.1326 414.185 92.1797 402.288C92.3601 359.408 97.0434 316.429 93.2569 273.724C88.69 222.151 71.9289 172.463 61.2655 121.763C54.6976 90.5095 50.4604 57.9442 57.9997 26.8166C65.529 -4.31034 86.8002 -33.9756 118.08 -44.8039C165.8 -61.3082 200.495 -20.5594 219.64 15.5471Z" stroke="white" stroke-miterlimit="10"/>
<path d="M939.018 378.028C944.064 396.523 948.487 415.598 946.717 434.681C944.937 453.765 935.969 473.099 919.527 482.954C897.652 496.064 869.334 489.356 846.305 478.411C823.275 467.465 801.356 452.43 776.073 449.145C763.311 447.49 750.294 448.737 737.575 446.668C727.144 444.964 719.806 441.638 709.001 443.474C684.37 447.673 656.726 439.92 641.781 419.897C626.836 399.874 629.101 367.452 649.609 353.187C671.296 338.106 704.999 345.65 722.835 326.146C739.82 307.578 729.387 267.956 762.371 263.211C777.125 261.09 790.214 271.732 802.629 279.983C816.059 288.9 831.288 295.728 847.367 296.919C862.802 298.061 878.743 293.51 890.106 282.739C900.193 273.172 908.069 261.162 921.841 274.477C933.968 286.203 926.995 303.686 927.26 318.41C927.632 338.848 933.683 358.48 939.018 378.028Z" stroke="white" stroke-miterlimit="10"/>
<path d="M878.106 312.911C887.911 304.104 899.704 297.073 908.146 312.573C917.871 330.436 911.798 355.528 915.939 375.052C919.604 392.323 928.405 408.902 927.242 426.513C925.989 445.523 911.248 463.285 892.479 466.555C881.32 468.495 869.882 465.622 859.234 461.777C837.937 454.087 818.274 442.514 797.538 433.416C776.802 424.317 754.147 417.636 731.69 420.592C721.992 421.877 712.579 424.927 702.861 426.062C693.144 427.198 682.595 426.152 674.874 420.135C665.822 413.071 662.67 399.415 667.719 389.1C673.972 376.323 689.268 371.241 703.104 367.937C716.941 364.633 732.257 360.963 740.323 349.252C746.629 340.108 746.882 328.288 749.21 317.426C751.538 306.565 757.994 294.756 769.003 293.297C779.605 291.894 788.441 300.596 796.703 307.38C808.16 316.784 822.008 323.63 836.741 325.239C851.484 326.837 867.088 322.808 878.106 312.911Z" stroke="white" stroke-miterlimit="10"/>
<path d="M904.506 401.57C907.397 410.844 910.788 421.207 906.384 429.858C901.01 440.414 886.327 442.711 875.101 438.923C863.876 435.145 854.726 427.025 844.502 421.048C822.127 407.976 795.222 405.487 769.311 405.208C753.337 405.042 737.36 405.588 721.439 406.871C717.94 407.156 714.209 407.416 711.152 405.689C705.796 402.646 705.321 394.469 708.907 389.459C712.493 384.449 718.776 382.121 724.841 381.07C730.906 380.019 737.173 379.927 743.059 378.116C754.467 374.597 763.449 364.199 765.266 352.398C766.901 341.822 763.956 328.904 772.141 322.005C778.633 316.527 788.776 318.591 795.807 323.37C802.827 328.14 808.115 335.105 815.036 340.041C824.845 347.037 837.827 349.158 849.466 346.266C859.487 343.778 869.358 331.009 879.92 333.807C899.889 339.087 899.669 386.028 904.506 401.57Z" stroke="white" stroke-miterlimit="10"/>
<path d="M856.249 361.061C859.226 358.736 861.754 355.657 865.297 354.347C870.768 352.322 877.123 355.311 880.601 359.997C884.078 364.684 885.254 370.661 885.917 376.46C886.581 382.26 886.841 388.185 888.857 393.667C889.782 396.203 891.079 398.615 891.758 401.237C893.224 406.884 891.425 413.363 886.946 417.098C882.466 420.833 875.444 421.344 870.716 417.931C864.505 413.44 863.749 404.49 859.214 398.318C855.294 392.988 848.371 390.036 841.823 390.898C835.403 391.741 829.629 395.91 823.149 395.966C805.713 396.125 803.795 372.669 818.204 365.951C830.502 360.221 843.808 370.799 856.249 361.061Z" stroke="white" stroke-miterlimit="10"/>
<path d="M802.965 365.057C802.146 367.905 800.559 370.492 799.78 373.348C798.824 376.867 799.04 380.851 796.905 383.804C794.66 386.914 790.484 387.894 786.652 388.14C782.819 388.377 778.826 388.142 775.317 389.681C773.32 390.56 771.469 392.012 769.288 392.072C766.127 392.155 763.548 388.984 763.486 385.831C763.423 382.669 765.32 379.751 767.724 377.703C770.127 375.655 773.037 374.305 775.794 372.775C777.613 371.766 779.443 370.617 780.542 368.853C781.624 367.12 781.877 364.989 781.846 362.937C781.748 354.085 772.028 337.254 788.536 336.684C801.714 336.228 805.808 355.184 802.965 365.057Z" stroke="white" stroke-miterlimit="10"/>
<path d="M600.733 397.553C590.352 396.306 580.621 402.072 570.982 406.139C550.221 414.888 523.137 414.765 508.328 397.79C504.25 393.112 501.383 387.484 497.285 382.817C493.197 378.15 487.252 374.363 481.119 375.288C477.327 375.853 473.96 378.184 471.472 381.099C463.848 390.016 464.158 403.264 466.935 414.669C469.702 426.075 474.516 437.199 474.508 448.934C474.507 453.904 473.636 458.901 474.442 463.809C476.102 473.893 485.082 481.864 495.087 483.966C505.093 486.079 515.697 482.983 524.167 477.258C531.447 472.341 537.394 465.565 545.021 461.207C566.179 449.125 595.221 462.41 614.867 448.311C633.468 434.941 622.94 400.225 600.733 397.553Z" stroke="white" stroke-miterlimit="10"/>
<path d="M559.913 440.329C558.878 440.446 557.733 440.409 556.967 439.707C556.263 439.051 556.086 438.01 556.084 437.048C555.988 424.478 576.204 419.712 584.246 414.025C592.192 408.413 597.014 407.502 602.792 417.262C606.343 423.256 608.335 433.199 601.062 437.124C594.447 440.685 586.231 433.688 579.517 433.839C572.393 434.006 566.877 439.551 559.913 440.329Z" stroke="white" stroke-miterlimit="10"/>
<path d="M523.757 431.74C527.272 432.326 530.907 432.914 533.898 434.856C536.888 436.799 539.051 440.507 538.028 443.93C536.973 447.475 533.094 449.328 529.488 450.131C525.882 450.933 521.99 451.184 518.937 453.264C515.3 455.752 513.276 460.592 509.022 461.757C504.009 463.121 499.278 458.275 497.826 453.298C495.126 444.022 495.286 436.376 491.057 427.649C489.429 424.296 478.555 402.439 486.469 399.756C490.166 398.506 494.342 400.172 497.133 402.908C508.363 413.921 504.005 428.44 523.757 431.74Z" stroke="white" stroke-miterlimit="10"/>
<path d="M899.191 -122.418C902.148 -93.5481 896.222 -64.4581 897.334 -35.4597C898.375 -8.35064 905.501 19.2792 898.477 45.4836C890.563 74.9919 861.345 99.0352 830.98 95.7257C809.627 93.4003 791.782 79.2356 772.79 69.203C755.736 60.1881 737.041 54.305 717.898 51.9177C700.342 49.7291 680.616 51.2172 668.017 63.6408C661.968 69.6111 657.359 76.9517 651.945 83.4623C650.001 85.8018 648 88.1851 645.372 89.7067C635.199 95.6013 620.798 86.3658 611.004 92.8673C607.285 95.3409 605.201 99.5532 603.183 103.541C599.378 111.07 590.05 120.448 580.875 114.735C570.405 108.213 576.146 87.7824 577.092 78.3223C580.318 46.1892 561.9 12.982 532.944 -1.31039C523.319 -6.06293 512.82 -8.8253 503.107 -13.4018C493.394 -17.9683 484.102 -24.8766 480.115 -34.8414C474.503 -48.8704 481.156 -65.4111 492.187 -75.7398C503.207 -86.0678 517.796 -91.5447 531.969 -96.7744C546.144 -101.994 560.733 -107.461 571.774 -117.78C592.637 -137.279 598.265 -171.64 623.717 -184.589C636.127 -190.908 650.959 -190.569 664.566 -187.625C678.183 -184.682 691.162 -179.344 704.686 -175.974C721.58 -171.769 739.394 -170.729 756.444 -174.23C786.114 -180.325 820.809 -203.037 852.13 -193.576C880.682 -184.96 896.434 -149.407 899.191 -122.418Z" stroke="white" stroke-miterlimit="10"/>
<path d="M553.013 188.583C550.483 192.243 547.578 195.857 543.597 197.836C539.616 199.816 534.289 199.727 531.179 196.55C528.176 193.476 528.09 188.401 529.872 184.479C531.655 180.567 534.939 177.56 538.217 174.774C544.288 169.604 551.056 164.519 555.682 157.919C558.371 154.079 560.86 141.654 564.8 141.841C579.295 142.543 556.241 183.917 553.013 188.583Z" stroke="white" stroke-miterlimit="10"/>
<path d="M748.114 -158.844C763.789 -163.018 778.381 -170.469 793.741 -175.645C809.11 -180.831 826.093 -183.666 841.423 -178.388C861.508 -171.472 874.929 -151.612 879.894 -130.958C884.859 -110.304 882.751 -88.684 880.48 -67.5649C878.21 -46.4459 875.827 -24.8987 880.269 -4.12075C882.891 8.14635 887.895 20.2103 887.107 32.7366C885.877 52.426 868.302 69.7488 848.591 70.6848C832.717 71.4444 817.91 62.9165 805.331 53.2032C792.752 43.4899 781.101 32.1538 766.604 25.6501C753.356 19.7075 738.608 18.1902 724.141 16.9855C712.646 16.0307 700.961 15.2285 689.654 17.5083C678.346 19.7881 667.273 25.5501 660.981 35.2336C657.024 41.3299 655.193 48.5422 651.881 55.0179C648.58 61.493 643.002 67.6333 635.758 68.2692C626.63 69.0662 615.838 61.4226 609.359 67.8914C605.489 71.7576 603.563 80.1384 598.379 78.3672C596.606 77.7596 595.53 75.985 594.768 74.2703C587.778 58.426 596.011 39.0281 589.225 23.1005C586.097 15.736 580.045 9.9822 573.507 5.38205C559.936 -4.17729 543.773 -9.63194 530.413 -19.4855C517.054 -29.339 506.43 -46.2124 511.364 -62.0614C514.329 -71.5812 522.326 -78.7488 531.01 -83.6458C544.605 -91.3335 560.182 -94.5291 575.022 -99.3708C589.862 -104.212 604.892 -111.401 613.598 -124.366C626.677 -143.825 631.649 -179.658 663.021 -169.569C692.661 -160.07 715.996 -150.297 748.114 -158.844Z" stroke="white" stroke-miterlimit="10"/>
<path d="M860.875 -77.6183C857.723 -58.0659 853.684 -37.9654 858.101 -18.659C860.472 -8.26966 865.239 1.51473 866.998 12.0336C868.746 22.5532 866.674 34.7611 858.07 41.0459C849.561 47.2644 837.349 45.6041 828.168 40.4223C818.987 35.2404 811.874 27.1599 803.999 20.1606C775.835 -4.88476 737.084 -16.1327 699.399 -15.3042C688.462 -15.0623 677.202 -13.7675 667.633 -8.46291C655.693 -1.84354 647.684 10.4354 643.478 23.4218C640.401 32.9287 636.614 45.257 626.638 45.7979C617.86 46.2718 612.133 36.3587 611.151 27.6237C610.168 18.8887 611.6 9.51757 607.601 1.69798C600.255 -12.6505 579.914 -13.4275 567.369 -23.5439C555.057 -33.4747 552.327 -53.3405 561.52 -66.2166C570.501 -78.8085 586.971 -82.9332 601.878 -87.0477C613.308 -90.2073 631.741 -95.7508 637.055 -107.867C642.456 -120.188 636.543 -135.32 650.85 -143.935C661.684 -150.454 675.42 -145.354 687.447 -141.417C710.508 -133.871 739.186 -130.313 762.049 -140.66C771.28 -144.841 778.124 -153.728 787.222 -158.892C798.832 -165.49 811.984 -169.943 825.205 -165.512C864.182 -152.464 866.42 -112.035 860.875 -77.6183Z" stroke="white" stroke-miterlimit="10"/>
<path d="M759.577 -80.2673C760.759 -81.2051 761.865 -82.2381 762.853 -83.3939C769.845 -91.5291 769.905 -103.387 773.843 -113.37C781.027 -131.619 801.386 -145.242 821.16 -142.375C829.899 -141.112 838.59 -135.929 843.037 -128.158C847.632 -120.126 844.512 -110.046 842.32 -101.578C837.601 -83.3275 829.936 -65.3889 830.355 -46.547C830.533 -38.7925 831.973 -30.8785 834.518 -23.5467C836.731 -17.1855 840.851 -11.3978 841.007 -4.44349C841.106 0.209764 839.344 5.07276 835.648 7.90561C825.484 15.6634 815.608 2.61995 810.493 -4.61693C800.593 -18.6409 786.428 -31.048 769.375 -33.0485C761.51 -33.966 753.59 -32.6153 745.703 -31.8579C733.423 -30.6779 717.051 -30.9586 713.43 -45.9873C711.681 -53.25 716.336 -60.8041 722.52 -64.9894C728.714 -69.1752 736.204 -70.8289 743.396 -72.8944C749.133 -74.5357 754.971 -76.6244 759.577 -80.2673Z" stroke="white" stroke-miterlimit="10"/>
<path d="M691.888 -116.741C682.272 -119.18 671.23 -121.807 663.109 -116.105C655.784 -110.964 653.912 -101.114 649.575 -93.2796C645.211 -85.4035 637.873 -79.2201 629.365 -76.2584C622.348 -73.8133 614.751 -73.5155 607.67 -71.2868C600.588 -69.058 593.548 -63.9961 592.416 -56.6585C591.307 -49.4424 596.198 -42.7123 601.474 -37.6502C606.739 -32.5875 612.892 -27.9124 615.524 -21.1072C617.53 -15.9352 617.43 -9.68595 621.265 -5.67365C625.562 -1.17997 633.179 -1.63935 638.503 -4.85745C643.828 -8.07555 647.476 -13.3604 651.3 -18.2657C655.123 -23.171 659.599 -28.0481 665.56 -29.794C672.159 -31.7312 679.704 -29.5506 685.87 -32.6223C694.415 -36.8791 695.594 -48.3182 696.194 -57.8463C696.376 -60.7841 696.66 -63.8486 698.265 -66.3066C699.352 -67.9597 700.965 -69.2057 702.63 -70.2747C717.249 -79.6415 738.68 -78.7541 748.587 -93.0088C757.171 -105.375 742.852 -113.483 731.898 -113.35C717.839 -113.188 705.813 -113.207 691.888 -116.741Z" stroke="white" stroke-miterlimit="10"/>
<path d="M210.876 57.4053C220.396 75.6623 233.904 93.2723 253.492 101.192C285.847 114.274 322.149 97.3915 357.139 93.9304C360.406 93.6102 363.872 93.4376 366.817 94.8216C373.916 98.1632 373.705 108.608 368.926 114.707C364.148 120.806 356.576 124.149 350.239 128.755C339.067 136.888 331.575 149.564 330.039 162.93C328.855 173.197 330.837 184.393 325.253 193.24C318.113 204.541 302.423 206.611 289.409 210.865C265.707 218.601 246.606 237.144 236.23 259.044C225.843 280.946 223.7 305.924 227.401 329.666C232.587 362.972 248.87 395.855 242.027 428.942C239.963 438.915 235.521 448.861 227.361 455.357C218.266 462.585 205.949 464.579 194.218 465.564C179.676 466.789 163.879 466.552 152.124 458.288C139.824 449.639 134.974 434.349 132.044 419.947C122.504 373.153 125.197 324.931 123.724 277.227C122.552 239.495 118.749 201.841 112.339 164.615C105.352 124.03 95.2446 83.7051 94.2528 42.544C93.6146 16.2408 105.129 -40.8251 145.536 -30.9362C183.439 -21.6579 195.836 28.5705 210.876 57.4053Z" stroke="white" stroke-miterlimit="10"/>
<path d="M198.529 87.3187C212.915 108.61 236.082 126.541 262.54 126.755C275.664 126.863 288.42 122.647 300.565 117.808C307.277 115.132 315.539 112.406 321.236 116.7C327.166 121.179 325.893 130.379 321.933 136.586C317.973 142.793 311.954 147.829 309.213 154.609C306.602 161.08 307.164 168.729 303.02 174.417C296.261 183.689 281.967 182.373 270.603 185.318C238.214 193.703 220.252 239.779 212.008 267.425C201.687 302.048 200.929 339.364 210.815 374.071C213.779 384.482 217.668 394.794 218.301 405.586C218.935 416.377 215.68 428.11 206.832 434.812C195.041 443.746 176.862 440.606 165.66 431.114C149.393 417.329 146.266 396.737 143.094 377.481C139.071 353.089 139.298 330.107 139.835 305.412C140.586 271.093 133.999 237.667 132.343 203.793C130.65 169.18 128.798 131.953 120.13 98.2691C115.069 78.6033 106.713 59.2894 107.183 39.0075C107.709 16.1567 132.132 -20.9159 157.031 3.38729C167.338 13.447 171.338 30.1549 176.549 42.947C182.752 58.2307 189.205 73.5183 198.529 87.3187Z" stroke="white" stroke-miterlimit="10"/>
<path d="M143.224 21.1894C146.57 22.8883 148.832 26.1199 150.714 29.3659C162.553 49.7085 164.662 74.4241 175.581 95.2667C192.142 126.87 229.9 145.887 265.149 140.375C269.961 139.625 274.796 138.463 279.641 139.003C284.475 139.544 289.46 142.27 290.98 146.902C293.171 153.545 287.101 160.439 280.406 162.452C273.701 164.467 266.52 163.275 259.53 163.503C246.511 163.929 233.727 169.581 224.637 178.923C216.037 187.763 210.94 199.363 203.579 209.246C196.207 219.129 184.93 227.79 172.696 226.251C162.654 224.983 154.577 217.034 149.747 208.136C140.962 191.966 140.648 172.747 139.268 154.387C137.081 125.338 131.657 96.6065 123.291 68.7156C120.319 58.8058 116.996 50.9126 119.289 40.5943C121.497 30.6623 130.514 14.7313 143.224 21.1894Z" stroke="white" stroke-miterlimit="10"/>
<path d="M176.589 133.23C182.018 136.318 188.153 138.229 193.126 142.008C199.932 147.192 203.954 155.822 203.531 164.367C203.118 172.911 198.274 181.118 190.997 185.604C189.368 186.611 187.6 187.466 186.328 188.89C184.103 191.368 183.52 195.394 180.505 196.82C177.724 198.141 174.394 196.381 172.343 194.088C167.206 188.376 166.597 179.987 166.835 172.316C167.074 164.645 167.829 156.6 164.645 149.61C162.778 145.521 159.695 142.132 157.297 138.338C153.136 131.761 151.076 123.877 151.489 116.105C151.621 113.491 152.226 110.586 154.419 109.153C161.516 104.518 170.13 129.557 176.589 133.23Z" stroke="white" stroke-miterlimit="10"/>
</g>
</svg>
